<?xml version="1.0" encoding="UTF-8"?>
<svg id="Layer_1" xmlns="http://www.w3.org/2000/svg" baseProfile="tiny" version="1.2" viewBox="0 0 864.1 313.3">
  <!-- Generator: Adobe Illustrator 30.2.1, SVG Export Plug-In . SVG Version: 2.1.1 Build 1)  -->
  <g>
    <g isolation="isolate">
      <g isolation="isolate">
        <path d="M53.9,255.8c-1.8,0-3.7,0-5-.5-12.8-3.7-14.1-15.5-12.3-21,2.3-6.4,5.9-9.1,7.8-10s2.7,0,3.2.9.5,1.8-.9,3.2c-3.7,2.7-4.6,5-5.5,7.8s-.9,11.4,6.8,14.1c1.8.5,3.7.9,5.5.9,11,0,19.6-11.4,23.7-26,1.4-5.5,2.3-10.5,2.3-15.1,0-10-3.2-17.3-8.7-18.7-2.7-.5-5,2.7-10,4.1-2.3.9-5.5,1.8-7.8,1.8s-4.1-.9-4.6-3.2c-.9-4.6,5.5-7.3,9.1-8.2,3.7-1.4,9.1-1.4,11-1.8,1.8,0,1.8-.5,3.2-1.8,1.4-1.4,9.6-11.9,11.4-22.4.5-2.7.5-5.5.5-8.2,0-8.2-2.3-15.5-10-17.3-7.3-1.8-20.1,2.7-33.3,17.8,2.7,5.9,4.1,13.7,4.1,23.3s-.5,13.2-1.8,20.5c-4.6,31-21.9,62.1-33.3,59.8-5.9-1.4-9.1-8.2-9.1-19.2s1.8-17.8,5.5-29.2c5.5-16.4,13.2-32.4,23.3-46.6-1.4-7.3-4.1-11.9-8.2-11.9-10,0-14.1,17.3-14.1,21s-1.4,4.1-2.7,4.1-1.8-.5-1.8-2.7c0-5.5,5.9-29.7,23.3-29.7s10,2.3,13.2,6.4c12.3-14.1,25.6-23.3,39.3-23.3s6.4.5,10,1.8c10,3.7,13.2,11,13.2,18.3s-2.3,13.7-5,18.7c-5.5,10.5-14.1,18.7-16.9,20.1-2.3,1.4-1.4,2.3,0,2.3s19,4.6,19.6,24.2c.2,6.7-.2,8-.9,11.5-5.5,23.7-28.8,34.6-43.4,34.6l-.5-.5ZM10,209.3c-3.2,11.4-5,21.5-5,29.2s1.4,11,4.1,11.9c9.1,1.8,16.9-29.2,19.2-51.6.5-6.4,1.4-13.2,1.4-19.6s0-8.7-.5-12.8c-8.2,13.2-14.1,28.3-18.7,42.9h-.5Z" fill="#fff"/>
        <path d="M164.8,248.5c-3.2,2.7-6.8,6.4-13.7,5.5-7.3-.9-10-8.7-10-19.2s0-3.2,0-5c-1.8,3.7-4.6,7.8-7.3,11.4-5.9,7.8-11,13.7-19.2,13.2-6.8-.5-11.5-7.8-11.4-18.7,0-4.5,0-6.8,1.4-11,3.2-12.3,7.3-22.8,9.1-23.7s4.1-.9,5.9-.9,2.7,0,3.7,1.4c.5.5.5,1.4,0,2.7-.9,4.1-3.2,13.7-4.6,20.5-.9,4.1-2.7,12.3-2.7,17.8s.5,5.9,2.7,5.9c5,.5,12.8-8.2,16.9-16,2.3-4.1,5.5-11.4,8.2-16.4,1.4-7.3,4.1-13.7,5-15.1.9-.9,3.7-.9,5.5-.9s4.6,0,5,1.4v1.8c-.9,4.6-3.2,14.1-4.6,21.5-1.4,5.5-2.7,13.2-2.7,17.8s.5,4.6,1.8,5.5c3.7,1.8,7.8-2.7,11-6.8,2.3-3.2,4.6-6.8,5.9-9.1.5-1.4,2.3-1.8,3.2-.9.5.5.9,1.8,0,3.2-1.8,3.7-6.4,11-9.1,13.7v.5Z" fill="#fff"/>
        <path d="M198.5,248c-4.1,4.1-10.5,6.8-17.3,5.9-7.3-1.4-10-8.2-10-18.7s1.4-13.7,3.2-21.9c1.4-5.5,2.7-11.4,4.1-17.3h-4.6c-1.4,0-2.7-1.4-2.7-2.7s1.4-2.7,2.7-2.7h6.4c2.3-10,4.6-18.3,5.9-20.1,1.8-3.2,3.7-4.1,5.9-4.1s4.6,2.3,3.7,6.4c-.5,2.3-2.3,9.1-4.1,17.8h8.2c1.4,0,2.7,1.4,2.7,2.7s-1.4,2.7-2.7,2.7h-9.6c-1.4,5.5-2.3,11-3.2,16.4-1.8,11-4.1,21.9-4.1,29.2s.9,6.8,2.7,7.3c4.6,1.4,11-3.2,13.2-5.9,2.7-3.2,5.5-7.3,6.4-9.1,0-.9,1.8-1.4,2.3-.5.5.5.9,1.4,0,3.2-1.4,3.7-4.6,7.8-8.7,11.9l-.5-.5Z" fill="#fff"/>
        <path d="M229.6,248c-4.1,4.1-10.5,6.8-17.3,5.9-7.3-1.4-10-8.2-10-18.7s1.4-13.7,3.2-21.9c1.4-5.5,2.7-11.4,4.1-17.3h-4.6c-1.4,0-2.7-1.4-2.7-2.7s1.4-2.7,2.7-2.7h6.4c2.3-10,4.6-18.3,5.9-20.1,1.8-3.2,3.7-4.1,5.9-4.1s4.6,2.3,3.7,6.4c-.5,2.3-2.3,9.1-4.1,17.8h8.2c1.4,0,2.7,1.4,2.7,2.7s-1.4,2.7-2.7,2.7h-9.6c-1.4,5.5-2.3,11-3.2,16.4-1.8,11-4.1,21.9-4.1,29.2s.9,6.8,2.7,7.3c4.6,1.4,11-3.2,13.2-5.9,2.7-3.2,5.5-7.3,6.4-9.1,0-.9,1.8-1.4,2.3-.5.5.5.9,1.4,0,3.2-1.4,3.7-4.6,7.8-8.7,11.9l-.5-.5Z" fill="#fff"/>
        <path d="M276.6,250.3c-5.9,2.7-12.3,4.1-18.3,4.1s-12.8-1.8-17.3-4.6c-9.1-5.9-10.5-14.6-9.6-20.5,1.8-13.2,10.5-20.5,18.7-25.1,4.1-2.3,11-4.1,16.4-4.1s10,1.4,12.8,5.5c.9,1.8,1.8,3.7,1.8,5.5,0,7.3-7.3,16-19.6,21.9-6.4,3.2-12.3,5-15.5,5.5.9,5.9,4.1,8.7,7.3,10,2.7,1.4,5,1.8,7.8,1.8,4.1,0,8.7-1.4,14.6-4.6,7.8-3.7,12.8-11.4,13.7-13.7.5-1.4,1.8-1.4,2.7,0s.9,2.3,0,3.7c-1.8,3.7-5.5,10-15.5,15.1v-.5ZM246.9,223.9c-.9,3.7-1.4,6.8-1.4,9.6,3.7-.5,10-1.8,15.1-5.9s8.2-11.4,8.2-16.9-.9-4.6-2.7-5.5c-5.9-2.7-16,3.2-19.2,18.7Z" fill="#fff"/>
        <path d="M345.5,223.9c-2.3,2.7-5.5,5.5-9.1,6.4-1.8.5-3.7.9-5.5.9-2.7,0-5-.5-7.3-1.8-4.1-2.3-6.8-7.8-6.4-14.1,0-2.7-.5-2.3-1.8-.9-.9,1.4-5,6.4-9.1,14.1-4.1,8.2-7.8,20.5-8.2,21.9-.5,1.8-2.3,2.3-5.9,2.3s-6.4,0-6.4-2.3,1.4-14.6,2.7-24.2c1.8-11,5-23.3,5.9-24.2.9-.9,3.2-1.8,5.9-1.4,3.2,0,5,1.8,4.6,3.7s-1.4,8.2-2.3,12.3c-.9,4.1-1.4,8.7-1.4,10s0,.9.5.5.5-.9.9-1.4c.9-1.8,5.5-9.1,8.7-14.6,3.7-5.5,6.4-8.7,7.3-9.6,1.4-.9,7.8-3.2,10.5-1.4,3.2,2.3.5,7.8-.5,11.4-1.4,3.7-4.6,10.5-2.3,13.7,1.4,1.8,4.6,2.3,8.2,1.4,3.2-.9,5.9-3.2,7.8-5.5.9-.9,2.3-.5,2.7,0,0,.5,0,1.4-.9,2.3l1.4.5Z" fill="#fff"/>
        <path d="M412.2,247.6c-4.6,4.1-11.4,7.8-18.7,6.4-5.9-1.4-10-8.2-11.4-19.2-4.6,7.8-12.8,15.1-18.3,15.5,1.4,4.6,2.3,11,2.3,17.8.9,26.9-6.8,40.2-16.4,39.7-9.6,0-14.1-9.1-14.1-31s.9-21,2.3-35.1c-2.3-2.3-4.1-5-3.7-8.2.5-4.1,2.7-5.5,5.5-6.4h0c6.8-55.7,19.2-81.2,34.2-77.6,5.9,1.4,8.2,6.8,8.2,13.7s-4.6,22.4-7.8,28.3c-7.3,15.5-17.3,27.4-22.4,32.9l-.9,6.4c4.1,2.3,8.2,6.8,11.4,15.1,6.4-.9,15.1-9.6,18.7-20.5,0-9.1,1.4-19.6,3.7-31,6.4-31,16.4-59.8,29.2-58,5.5.9,7.3,7.3,7.3,15.1s-3.2,22.8-4.6,28.3c-2.7,9.1-13.2,30.6-21.5,40.2v10.5c0,9.6.9,16.9,3.7,17.3,5.5,1.8,10-2.7,13.2-5.9,3.2-3.2,6.4-8.2,7.8-11,.5-1.4,1.4-1.4,1.8-.9.9.5,1.4,2.3.5,4.1-1.4,3.2-5,9.1-9.6,13.2l-.5.5ZM358.8,250.3c-3.7,0-6.8-.5-9.6-1.8-2.3,19.6-3.7,32.9-3.7,41.5s1.8,13.2,5.5,13.2c6.4,0,10.5-16,10.5-30.6s-.5-15.5-2.7-22.4h0ZM350.5,236.2l-.9,7.8c1.8,1.4,4.6,2.3,7.8,2.3-1.8-4.1-3.7-7.3-6.8-10ZM353.3,214.7c4.1-3.7,11-11,16.9-25.1,4.6-10,6.8-20.1,6.8-26.9s-1.4-9.1-4.1-9.1c-7.8-.9-13.7,14.1-19.6,61.2ZM398,193.3c-.9,5.9-1.4,11.9-1.8,17.3,5-5.9,11.4-16.9,16.9-32.9,3.2-10,5-19.6,5-26.5s-1.4-10-3.7-10.5c-5.5-1.8-12.8,27.8-16,52.5h-.5Z" fill="#fff"/>
        <path d="M482,236.6c-1.8,4.6-10,13.2-20.5,19.2,0,1.4-.5,3.2-.9,4.6-3.7,21.9-8.2,34.2-13.7,42-4.1,5.9-11.4,11-17.8,11s-4.1-.5-5.9-1.8c-4.1-2.3-5.9-7.3-5.9-12.8s1.8-11.4,5-16.9c5.9-9.6,16.4-18.3,27.4-24.2,1.8-10.5,3.2-19.2,3.2-20.1v-1.4s-.5,0-.9.9c-1.4,2.3-11.9,19.2-23.7,17.3-8.2-1.4-11-9.1-11-17.8s.5-8.2,1.4-12.3c2.3-11,5.9-21.5,7.8-22.4,1.4-1.4,2.3-1.4,4.6-1.4s5.5,1.8,5,4.1c-.5,1.8-4.1,16.9-5.5,22.8-.9,4.1-2.7,11.9-2.7,16.9s.5,4.6,1.8,5.5c3.7,1.8,11.4-1.8,18.3-13.7,7.3-11.4,9.6-29.7,9.6-31s2.3-3.2,5.9-3.2,6.8,0,6.4,3.7c0,2.7-4.6,27.4-7.8,46.1,8.2-5,13.7-11.4,16.4-16.4,1.4-2.7,3.2-3.2,3.7-1.8.5.9.5,2.3,0,4.6v-1.4ZM426.3,285.5c-2.7,5.9-4.1,11-4.1,15.1s1.4,6.4,3.7,7.8c5,2.3,13.7-1.8,17.8-21,1.8-7.3,3.2-16,4.6-24.6-9.6,5.9-17.8,13.7-21.9,22.8Z" fill="#fff"/>
      </g>
    </g>
    <g isolation="isolate">
      <g isolation="isolate">
        <path d="M584.7,160.7c-2.7,5-5.5,11.9-5.9,22.4v4.6c0,6.4.5,13.7.5,21.5s-.9,16.9-4.1,26c-5,13.2-19.2,27.4-40.6,27.4s-3.7,0-5,0c-23.7-2.7-28.8-18.3-26.9-26,1.4-6.8,5.5-9.6,7.3-10,1.8-.9,8.7-.5,11.9,1.4,3.2,1.8,2.7,4.6,0,6.4-2.3,1.8-5.5,6.4-5.5,10.5s2.3,10.5,11.4,12.8c1.8.5,4.1.5,5.9.5,8.2,0,16.4-3.7,21-13.2,8.7-17.8,4.6-44.7,15.5-70.7,4.6-10.5,9.1-15.1,11-16.9.9-.9,2.7-1.4,3.7-.5.9.5.9,1.8,0,4.1ZM593,152.9c-1.4.5-3.2.9-4.6.9-8.2,0-18.7-5.5-26.5-8.2-4.6-1.4-10-2.7-15.5-2.7-8.2,0-15.5,2.3-19.6,9.6-1.8,3.2-2.7,6.4-2.7,9.1,0,6.4,4.1,11,6.8,12.8,3.2,1.8,6.8,2.7,10.5,2.7s4.6,0,6.8-.9c2.3-.5,3.7-.5,3.7,0,.5.9-.5,2.7-1.8,4.1-1.4,1.4-9.6,8.2-19.2,8.2s-5.9-.5-9.1-1.8c-6.8-3.2-10.5-10-10.5-18.3s0-4.1.9-6.4c3.7-14.1,18.7-23.7,34.7-23.7,15.5.5,33.3,5.9,39.3,5.5,5.9-.5,8.7-2.3,9.6-3.2s3.2-.5,3.2,2.3-.9,9.1-6.4,11l.5-.9Z" fill="#fff"/>
        <path d="M641.8,231.4c-1.8,2.7-5.5,5-8.7,5.9-1.8.5-3.7.9-5,.9-2.7,0-5-.5-6.8-1.4-4.1-2.3-6.4-7.3-5.9-13.2,0-2.7-.5-1.8-1.4-.9-.9,1.4-4.6,5.9-8.7,13.7-3.7,7.8-7.3,19.6-7.8,21s-2.3,1.8-5.9,1.8-6.4,0-5.9-2.3c0-1.8.9-13.7,2.7-23.3,1.4-10.5,5-21.9,5.5-23.3.9-.9,2.7-1.4,5.9-1.4s5,1.4,4.6,3.2-1.4,7.8-1.8,11.4c-.9,4.1-.9,8.2-1.4,9.6q0,.9.5.5s.5-.9.9-1.4c.9-1.8,5-8.7,8.2-13.7,3.7-5,5.9-8.2,6.8-9.1,1.4-.9,7.8-3.2,10-1.4,3.2,2.3.5,7.3-.5,10.5-1.4,3.2-4.6,10-2.3,12.8,1.4,1.8,4.6,2.3,7.8,1.4,2.7-.9,5.9-3.2,7.8-5,.9-.9,1.8-.5,2.7,0,0,.5,0,1.4-.9,2.3l-.5,1.4Z" fill="#fff"/>
        <path d="M659.6,254.2c-2.7,2.3-8.2,5.9-14.6,5.5-5.9-.9-10.5-7.8-10.5-18.3s0-5.5.9-8.2c2.3-11,5-20.1,6.8-21.9,1.8-2.3,3.7-2.3,5.5-2.3s4.1.9,4.6,2.3c1.4,2.7-2.3,13.7-4.1,21.5-.9,5-2.3,11.9-2.3,16.4s.5,4.6,1.4,5c3.2,1.4,8.2-1.8,11.4-5.5,3.2-3.2,5-6.8,5.9-9.1.5-1.4,1.4-1.4,2.3-.9.5,0,.9,1.4.5,3.2-1.4,3.7-5,9.6-8.7,12.8l.9-.5ZM650.5,192.2c-3.7-.9-5.9-5-5-9.1.9-4.1,5-6.8,8.7-5.9s5.9,5,5,9.1c-.9,4.1-5,6.8-8.7,5.9Z" fill="#fff"/>
        <path d="M716.6,241.5c-2.3,2.7-7.3,3.7-11.9,3.7s-3.2,0-4.6-.5c-5.9,11.4-15.5,16.9-23.3,16-8.7-1.4-13.7-10-13.7-26s1.8-20.5,5-34.2c8.2-32.9,21.5-54.8,34.2-52,5.5,1.4,7.8,5.5,7.8,11s-3.7,16.9-7.3,24.6c-7.3,15.5-18.3,31.5-25.6,39.7-1.4,9.6-2.3,17.3-2.3,22.8s1.4,10,4.6,10c5.9.5,13.2-5,17.8-13.2-3.7-2.3-7.3-6.8-8.2-13.7-1.4-10,2.7-21.5,10.5-21,5,0,7.8,4.6,7.8,11.9s-.9,9.6-3.2,15.5c-.5,1.4-.9,2.7-1.8,4.1,1.4,0,2.7.5,4.6.5,2.7,0,5.5-.5,6.8-2.3,2.7-2.3,4.1-2.3,4.1-1.4.5.9,0,3.2-1.4,4.6ZM680.1,204.5c-.5,3.2-.9,5.9-1.4,9.1,5-5.5,11.9-14.1,16.9-25.1,5.5-10.5,9.6-21.9,9.6-28.8s-.9-5.9-3.7-6.8c-7.8-2.7-16,14.1-21.9,51.6h.5ZM701.6,225c0-4.6-1.4-7.8-4.1-8.2-3.2,0-4.6,4.1-4.6,8.7s.5,5,1.4,7.3c.9,2.3,2.7,4.1,5,5.5v-.9c1.4-4.6,2.3-9.1,2.3-12.8v.5Z" fill="#fff"/>
        <path d="M773.2,255.2c-2.7,2.7-6.4,6.4-13.2,5-6.8-.9-9.6-8.2-9.6-18.3s0-3.2,0-4.6c-1.8,3.2-4.1,7.3-6.8,11-5.5,7.3-10,13.2-18.3,12.3-6.4-.5-11-7.3-11-17.8s0-6.4,1.4-10c2.7-11.4,6.8-21.9,8.7-22.8s3.7-.9,5.5-.9,2.7,0,3.2,1.4c.5.5.5,1.4,0,2.7-.9,3.7-3.2,12.8-4.6,19.6-.9,4.1-2.7,11.9-2.7,16.9s.5,5.5,2.7,5.5c5,.5,11.9-7.8,16-15.1,2.3-4.1,5.5-10.5,7.8-15.5,1.4-6.8,3.7-12.8,5-14.1.9-.9,3.7-.9,5.5-.9s4.6,0,5,.9v1.8c-.9,4.6-3.2,13.7-4.1,20.5-.9,5.5-2.3,12.3-2.3,16.9s.5,4.6,1.4,5c3.2,1.4,7.8-2.3,10.5-6.4,2.3-3.2,4.6-6.4,5.5-8.7.5-1.4,1.8-1.4,2.7-.9.5.5.9,1.4,0,3.2-1.8,3.7-5.9,10.5-8.7,12.8l.5.5Z" fill="#fff"/>
        <path d="M805.2,254.2c-4.1,3.7-10,6.4-16.4,5.5-6.8-1.4-9.6-7.8-9.6-17.8s.9-13.2,2.7-21c.9-5,2.7-10.5,3.7-16.4h-4.6c-1.4,0-2.7-.9-2.7-2.7s1.4-2.7,2.7-2.7h5.9c2.3-9.6,4.6-17.3,5.5-19.2,1.8-3.2,3.7-4.1,5.5-3.7,1.8,0,4.6,2.3,3.7,5.9-.5,2.3-2.3,8.7-4.1,16.9h8.2c1.4,0,2.7.9,2.7,2.7s-1.4,2.7-2.7,2.7h-9.1c-.9,5-1.8,10.5-3.2,15.5-1.8,10.5-4.1,21-4.1,27.8s.9,6.4,2.7,6.8c4.6,1.4,10-3.2,12.8-5.5,2.3-3.2,5-6.8,5.9-8.7,0-.9,1.4-.9,2.3-.5.5.5.9,1.4,0,3.2-1.4,3.7-4.1,7.8-8.2,11h.5Z" fill="#fff"/>
        <path d="M849.9,256.5c-5.5,2.7-11.4,4.1-17.3,4.1s-11.9-1.4-16.4-4.6c-8.7-5.5-10-13.7-9.1-19.6,1.8-12.3,10-19.6,17.8-24.2,4.1-2.3,10-4.1,15.5-4.1s9.6,1.4,11.9,5c.9,1.4,1.4,3.2,1.4,5,0,6.8-6.8,15.1-18.7,21-6.4,3.2-11.4,4.6-14.6,5.5.9,5.5,4.1,8.2,6.8,9.6,2.3.9,4.6,1.4,7.3,1.4,4.1,0,8.2-1.4,13.7-4.1,5.5-2.7,12.3-10.5,13.2-13.2.5-.9,1.8-.9,2.3,0s.9,1.8,0,3.7c-1.8,3.2-5,9.6-14.6,14.1l.9.5ZM821.2,231.4c-.9,3.7-1.4,6.4-1.4,9.1,3.7-.5,9.6-1.8,14.1-5.9,4.6-4.1,8.2-11,8.2-16s-.9-4.6-2.7-5c-5.9-2.7-15.1,3.2-18.3,17.8Z" fill="#fff"/>
      </g>
    </g>
  </g>
  <path d="M527.5,61.3c-6.3-2.1-13.8-1.8-20.5-1.4-14.3.9-27.7,4.4-41.1,9,0,0,0,0,0,0,0,0,0,0,0,0,0,0,0,0,0,0,0,0,0,0,0,0-2.2.8-4.4,1.6-6.4,2.4h0s0,0,0,0c-5.4,2.1-9.9,4.3-12.2,5.9-.2-.8-.6-1.5-1.1-2.1.3-.1.6-.3.8-.6.9-.9,1.1-2.4.5-3.5,2.4-1.9,7.9-6.1,8.5-5.9.7.4,1.4.4,1.4-.4s-1.2-.9-1.9-.5-7.9,6.2-7.9,6.2l.2.2-.3.3c-.1-.2-.3-.4-.5-.6-.7-.7-1.8-1-2.7-.8,0-.2,0-.4,0-.4,0,0-.2-9.3-.5-10.1-.4-.7-1.4-1.4-1.6-1.2-.2.2,0,1.1.7,1.4.6.3.9,7.5,1,10.4-.4.1-.8.4-1.2.7-.8.8-1,1.9-.8,2.9-.9,0-1.8.3-2.6.7-3-16.4-7.8-26.5-11.4-33.3-4-8.4-8.5-16.5-14.4-24.1-4.1-5.1-8.6-11.1-14.5-14.5-6.7-3.9-9.7-1.9-13.9,3.4-1.9,2.6-2.6,3.4-3.2,6.7-.4,3.2-.5,6.2-.7,9.2,0,3.2.2,5.5-.4,8.5-.4,2.1-.5,4.8-.9,6.9-.5,4.8-1.1,9.5-.5,14.3.4,3.2.5,5.8,2.6,7.9,2.1,2.1,5.1,3,7.1,4.9-4.6,1.4-8.6,1.6-12.9,4.4-3.5,2.5-5.6,5.6-6.9,9.7-.5,1.6-1.8,3.2-2.3,5.1-.7,2.1-.2,5.1-.2,7.2-.2,3.7,1.4,6,2.8,9.5,1.6,3.7,2.8,7.1,5.3,10.6,2.1,2.1,3.7,3.7,6.2,6.2s6.5,5.8,10.2,6.3c4.6.7,9.7-1.3,13.5-3.9,0,0,0,.1,0,.2,7.4-4.2,12.7-8.8,18.9-13.2l.9-.9.2-.9,1.1-.5-4.6,11.8c-.5,1.2-4.8,13.6-3.4,14.3,1.4.7,8.1-10.6,8.6-11.8l5.3-9.8c0,0,0,.2,0,.3-.2,6.2,3.4,24.9,3,24.5.5,4.8,2.5,10.2,6,13.8,2.8,2.5,7.9,3.4,11.5,3.7,2.8.4,5.6.7,8.6.5,4.2-.4,7.6-1.6,11.5-3,3.5-1.4,6.3-1.4,9-4.1,1.9-1.2,4.4-3,5.5-4.8,1.1-1.8,1.6-3.7,2.5-5.3,2.3-3.7,3.4-7.2,2.8-11.6-.5-5.1-3.2-8.5-4.9-12.7,2.8,0,5.3,1.8,8.3,1.9,3.2,0,5.3-1.4,7.8-3.2,3.9-2.8,7.2-6.2,10.8-9.7,1.1-1.8,2.8-3.5,4.4-5.1,1.4-2.5,3.7-3.7,5.8-5.8l6.5-6.5c2.3-2.6,2.5-3.5,3-6.9,1.4-6.7.7-10.2-6.5-12.9Z" fill="#32271b"/>
  <g>
    <g>
      <g id="pzYYIp">
        <g>
          <path d="M396.8,19.7c2.3.9,4.6,2.1,6.5,4.4-1.6.5-1.9,1.9-1.6,3.4-2.5-.4-4.8-1.2-6.3-2.8l-.4-1.1h0c.9-.9,1.8-1.8,1.6-3.4l.5-.5h-.4Z" fill="#eee8e4"/>
          <path d="M403.7,22.5c.2-.5.2-1.2.5-1.9.4-.4.7-.4,1.2-.5,0-.4,0-1.1-.2-1.9,1.8,1.8,3.2,3.2,4.8,4.4-2.1,2.8-3.5,2.8-6.5.2h0l.2-.2Z" fill="#eee8e4"/>
          <path d="M413.6,31.7c.4-1.1.5-1.9.9-2.6,1.9.5,3.5,2.5,3.7,4.8-1.6.5-3.2-.4-4.6-2.1Z" fill="#eee8e4"/>
          <path d="M401.4,66.8c1.4-.7,2.8-1.1,4.1.2,0,4.9-4.6,1.4-4.1-.2Z" fill="#eee8e4"/>
          <path d="M409.9,21.3c-1.1-1.1-2.5-1.8-3-3,.5-.5,1.2-.9,1.9-1.2,1.1,1.1,1.9,2.6,3,4.1-.4.4-.5.5-1.1.7-.2-.2-.7,0-1.1-.4h0l.2-.2Z" fill="#eee8e4"/>
          <path d="M387.5,23.2c1.8-.4,4.2,1.8,2.5,3.2-2.6,1.9-2.6-1.6-2.5-3.2Z" fill="#eee8e4"/>
          <path d="M385.4,36.6c-.5-3.4,1.9-2.3,3.7-1.6-.2,2.3-.9,2.6-3.7,1.6Z" fill="#eee8e4"/>
          <path d="M421.6,39.8c-.4-.4-.5-.9-.7-1.4.4-1.1.7-2.1,1.1-3.2.7,1.4,1.6,2.6,2.5,4.2-.9.2-1.8.4-2.6.5h0l-.2-.2Z" fill="#eee8e4"/>
          <path d="M421.3,72.2c-1.9-.2-3.4-.9-4.4-2.3.4-1.8,4.8.5,4.4,2.3Z" fill="#eee8e4"/>
          <path d="M390.8,34c-.9-.2-1.8-.7-2.6-.9-.9-4.4,3.2-2.5,2.6.9Z" fill="#eee8e4"/>
          <path d="M383.9,53.5c-2.3.2-3.5-.7-3.4-2.6,3.7.9,3.4.5,3.4,2.6Z" fill="#eee8e4"/>
          <path d="M392.4,64.5c2.1,0,3.5,0,5.5-.2-2.1,2.1-4.1,2.3-5.5.2Z" fill="#eee8e4"/>
          <path d="M390.6,6.6c1.2-1.9,2.8-1.8,4.2-.4-.7,1.4-2.3,1.6-4.2.4Z" fill="#eee8e4"/>
          <path d="M385.5,68.2c.2-2.6,1.6-3.4,3.5-2.1-1.2,1.2-2.4,1.9-3.5,2.1Z" fill="#eee8e4"/>
          <path d="M387.6,118.3c1.4-.4,1.8,1.1,2.8,1.4-.7,2.8-3.7.9-2.8-1.4Z" fill="#eee8e4"/>
          <path d="M389.8,10c.2,1.2-.9,3-1.9,1.9s1.2-2.3,1.9-1.9Z" fill="#eee8e4"/>
          <path d="M383.9,42.3c.5-.5,1.2-1.2,1.6-1.9,1.9,1.9,1.1,4.2-1.6,1.9Z" fill="#eee8e4"/>
          <path d="M390.1,115.5c-1.1.4-1.4.7-1.9.9-.9-.9-1.8-1.8-.9-3.7l2.8,2.8Z" fill="#eee8e4"/>
          <path d="M392.1,115.3c1.8,1.8,1.6,2.3.5,3.7-2.3-1.2-2.1-2.1-.5-3.7Z" fill="#eee8e4"/>
          <path d="M382,47.7c-1.4-2.1-2.5-1.8-.2-3.7,1.4,1.4.2,2.3.2,3.7Z" fill="#eee8e4"/>
          <path d="M383.8,114c-.9.5-1.6.9-1.9,1.2-.7-2.8-.9-4.4,1.9-1.2Z" fill="#eee8e4"/>
          <path d="M375.3,75.9c-.2-2.3.5-3,2.5-2.5-.6,1.5-1.4,2.4-2.5,2.5Z" fill="#eee8e4"/>
          <path d="M376.4,72.1c.2-2.3,1.4-2.5,3-1.6-.9,1.2-1.4,1.4-3,1.6Z" fill="#eee8e4"/>
          <path d="M382.5,116c1.6-.5,3.5-1.1,3.4,1.6-1.2.5-2.3-.2-3.4-1.6Z" fill="#eee8e4"/>
          <path d="M395.2,119.2c4.2-1.1,3.4,2.3,0,.7v-.7Z" fill="#eee8e4"/>
          <path d="M382.7,23.4c1.8,0,1.9.2,1.6,2.3-1.9.2-2.3-.2-1.6-2.3Z" fill="#eee8e4"/>
          <path d="M385.5,108.4c.4,1.1.5,1.9.7,2.8-1.4,1.4-3-1.2-.7-2.8Z" fill="#eee8e4"/>
          <path d="M373.4,91.6c.4,1.1.7,2.1.2,3.4-1.8-.4-2.3-3-.2-3.4Z" fill="#eee8e4"/>
          <path d="M400,6.1c-1.6.9-2.6.2-3.9-.7.7-.7,1.6-.9,2.3-1.2l1.8,1.8-.2.2Z" fill="#eee8e4"/>
          <path d="M382.5,108.9c-1.8,1.1-3.7-1.2-1.6-2.3.5.5,1.2,1.2,1.6,2.3Z" fill="#eee8e4"/>
          <path d="M371.8,77.4c-.4-1.1-.4-2.1.9-3,1.1,1.8.9,2.6-.9,3Z" fill="#eee8e4"/>
          <path d="M381.8,71.5c3.5-2.1,3.4,1.9.4.4l-.4-.4Z" fill="#eee8e4"/>
          <path d="M382,33.6c1.2.5,1.1,1.8,1.1,2.8-2.3-.2-2.5-.7-1.1-2.8Z" fill="#eee8e4"/>
          <path d="M376.4,109.5c1.8-.4,2.5,0,2.1,2.1-.7-.7-1.6-.9-2.5-1.4v-.7l.2.2.2-.2Z" fill="#eee8e4"/>
          <path d="M382.7,66.4c.4,1.8-.5,2.3-2.6,1.9.7-1.1,1.2-1.9,2.6-1.9Z" fill="#eee8e4"/>
          <path d="M377.8,101.3c.6,1.3.5,2.2-.4,2.8-1.2-1.2-1.2-1.9.4-2.8Z" fill="#eee8e4"/>
          <path d="M373.2,101.7c-2.3-.2-1.8-1.8-.9-3,1.1,1.1,1.8,1.8.9,3Z" fill="#eee8e4"/>
          <path d="M385.2,20.2c-1.4.4-2.1,0-2.5-1.1.5-.5,1.4-.4,2.1-.7,0,.7.2,1.2.4,1.8Z" fill="#eee8e4"/>
          <path d="M374.2,104.5c1.1,1.1,1.2,1.2,1.1,2.5-1.4-.4-1.1-1.1-1.6-2.3l.4-.4.2.2Z" fill="#eee8e4"/>
          <path d="M369.3,91.8c-1.2-1.2-1.2-1.9-.2-3,1.1,1.1,1.2,1.2.2,3Z" fill="#eee8e4"/>
          <path d="M370.4,97.8c-.9-.9-1.2-1.9-.7-3.2,1.6.9,1.9,1.9.7,3.2Z" fill="#eee8e4"/>
          <path d="M370.7,79.1c.7,0,1.1,0,1.4,0-.2,1.2-.7,2.1-2.1,2.1.2-.9.4-1.4.5-2.3l.2.2Z" fill="#eee8e4"/>
          <path d="M368.1,86.4c.2-.9.4-1.4.5-2.3,1.6.9.9,1.9-.2,2.6l-.4-.4Z" fill="#eee8e4"/>
          <path d="M391.7,122.3c1.1-1.1,1.4-1.4,2.8,0-.9.9-1.2.5-2.8,0Z" fill="#eee8e4"/>
          <path d="M384.1,17.4c-1.9.2-2.5-1.8-.4-1.8.2.5.2,1.2.4,1.8Z" fill="#eee8e4"/>
          <path d="M373,82.5c0,1.1.2,1.9-1.1,2.5-.7-1.8-.5-2.3,1.1-2.5Z" fill="#eee8e4"/>
          <path d="M372.7,88.1l1.2,1.2-.2.5c-1.1.1-1.6-.4-1.6-1.6l.4-.4h0l.2.2Z" fill="#eee8e4"/>
          <path d="M430.1,85.6c-.5-.5-.5-1.2-.9-2.3,1.9.2,1.2,1.2.9,2.3Z" fill="#eee8e4"/>
          <path d="M375.8,78.6c0,1.4.4,1.4-1.1,1.8,0-1.4,0-1.1,1.1-1.8Z" fill="#eee8e4"/>
          <path d="M387.8,20.4c.5.5,1.1.7,1.4,1.4-1.4.4-1.6.5-1.4-1.4Z" fill="#eee8e4"/>
          <path d="M434.2,80.5l.5-.5h0l-.5.5h0Z" fill="#eee8e4"/>
          <path d="M415.3,76.8l.7.7-.7-.7Z" fill="#eee8e4"/>
          <path d="M424,42.4" fill="#eee8e4"/>
          <path d="M417.5,100.1l-1.1,1.1,1.1-1.1Z" fill="#eee8e4"/>
          <path d="M409.9,21.3c.2.2.7,0,1.1.4-.2-.2-.7,0-1.1-.4Z" fill="#fff"/>
          <path d="M439.1,77.7l-.4.4s.4-.4.2-.9h0l-.4.4.2.2h.4Z" fill="#eee8e4"/>
          <path d="M408.5,77.4h.7s-.7,0-.7,0Z" fill="#eee8e4"/>
          <path d="M398.4,95.9l.7-.7-.7.7Z" fill="#eee8e4"/>
          <path d="M418,99.9l-.4.4.4-.4Z" fill="#eee8e4"/>
          <path d="M387.3,95.7l-.4.4.4-.4Z" fill="#eee8e4"/>
          <path d="M387.8,95.5l-.4.4.4-.4Z" fill="#eee8e4"/>
          <path d="M398,96.2h0s0,0,0,0Z" fill="#eee8e4"/>
          <path d="M410.4,76.1l-.2-.2.2.2Z" fill="#eee8e4"/>
          <path d="M405.5,95.5h0Z" fill="#eee8e4"/>
          <path d="M407,64.3c-3.4-1.6-6.7-3.5-10.2-4.6-2.8-1.1-7.9-1.6-9.9-4.2-1.6-1.6-1.1-3.9-.5-5.5,1.2-3,3.2-2.8,6.3-1.4,7.2,3,15,5.5,22,9,6.2,3,9.7,9,12.3,15.2-.4-.4-1.1-.4-1.4-.7-3.9-2.1-7.9-3.4-12-4.6-2.3-.5-4.2-2.1-6.3-3.2,0,0,.4-.4.4-.7l-.2-.2-.7.7s.2.2.2.2Z" fill="#63cadf"/>
          <path d="M406.7,94.3c2.6-1.9,6.5-2.3,9.5-2.8,3.7-.9,7.1-1.8,10.8-2.6,2.5,4.9-13.1,9.9-16.4,11.5-6.7,3.5-12.2,9-18.7,13.1-1.9-.2-2.5-.4-3.7-2.3-.5-2.3-1.2-3.7.4-5.6,1.4-1.4,4.2-3.2,5.8-4.1,3.2-1.8,11.5-6.5,12.2-6.9h0l.2-.2ZM401.8,102.8l-.4.4h0l.4-.4h0ZM408.8,98.5l-.4.4h0l.4-.4h0Z" fill="#63cadf"/>
          <path d="M421,41.6c0,.4,3.2,3.5,3.5,4.2,2.3,3,3.5,6.3,4.8,10.1,2.6,6.5,6,13.8,4.8,21l-1.2-1.2c-7.4-12.7-16.9-23.3-21.2-37.7,3.7.9,5.8,1.9,9,3.7l.2.2.2-.2Z" fill="#63cadf"/>
          <path d="M393.1,87.4c3.2-1.8,6-3.9,9.5-4.6,1.4-.4,3-.2,4.2-.7s1.9-1.9,3.2-2.5c3.2-1.4,6,.4,9,1.2,3,.9,8.3,1.6,9.9,4.9-6,2.5-12.9,3-19.2,3.7-4.1.5-13.2,1.2-16.2-2.5l-.4.4Z" fill="#63cadf"/>
          <path d="M390.6,41.2c.2-1.6-.5-3.4,1.9-3.7s6.9,3,9.2,4.2c3,1.6,6.9,3,9.5,5.3,2.5,2.1,3.7,5.5,5.3,8.1l-.4.4c-5.8-1.9-11.8-3.7-17.5-6.2-2.3-.9-12.7-4.6-8.1-8.1h0Z" fill="#63cadf"/>
          <path d="M418,99.9c3.2-2.5,6.5-4.8,9.9-7.4-2.1,6.7-9.9,11.6-14.8,15.9-3,2.3-5.8,4.8-8.6,6.9-3.5,2.8-4.4,2.6-8.6,1.9-.2-.9-2.3-2.3-1.1-3.2,3.9-2.5,7.9-4.8,11.6-7.1,2.5-1.4,10.9-6.3,11.3-6.7h0l.4-.4Z" fill="#63cadf"/>
          <path d="M411.3,45.3c-4.2-2.5-8.6-4.8-12.7-7.4-2.3-1.6-8.1-8.1-3.4-9.3,7.6-2.3,17.1,10.1,16.2,16.9l-.2-.2Z" fill="#63cadf"/>
          <path d="M398,96.2c-4.6,3.2-8.8,6.7-13.1,10.2-1.2.5-4.6-2.5-4.4-5.5.4-2.8,4.1-4.1,6.5-5.1l.4-.4h0l.4-.4c4.2-2.1,11.3-6,15.9-2.5-1.6.9-3.2,1.8-4.6,2.5,0,0-.4.4-.9.5h0l-.2.5Z" fill="#63cadf"/>
          <path d="M405.8,78.9c-.9,3.7-9.2,2.5-11.8,2.3-5.3-.7-10.1-.9-15.3-.9s1.9-7.2,3.7-6.5c7.9,1.2,15.9,2.5,23.6,5.3,0,0-.2-.2-.2-.2Z" fill="#63cadf"/>
          <path d="M408.5,77.4c-3.7-.9-7.6-1.9-11.3-2.8-2.3-.5-10.2.4-10.1-2.6-.5-.5.7-1.4,1.1-1.8,1.6-.5,2.6-1.9,4.2-2.5,1.8-.7,4.1.2,5.6.7,4.8,1.6,8.6,4.1,12.3,7.4l.2.2-1.1,1.1h-.7s-.4.4-.4.4Z" fill="#63cadf"/>
          <path d="M392.6,90.4c-4.4,2.6-8.6,5.1-12.9,7.6-1.4,1.4-6.5-5.5-1.8-8.5s11.8-2.3,14.6.9Z" fill="#63cadf"/>
          <path d="M404.9,116.5c4.4-4.4,9.7-7.6,14.5-11.6,4.2-3.5,7.2-7.2,9.9-12l.5-.5c.4,2.8-1.4,6-3.5,8.5-1.8,2.5-2.3,3.7-4.6,5.6-4.9,3.9-9.9,7.1-15.2,10.2-.4-.4-1.2-.2-1.6-.2Z" fill="#63cadf"/>
          <path d="M396.5,83c-4.2,2.5-7.9,2.6-12.3,3.5-2.6.5-8.8,4.2-9.7-.5-1.4-8.5,18.2-3.7,22.2-3.2h0l-.2.2Z" fill="#63cadf"/>
          <path d="M415.3,76.8c-1.9-.9-4.9-2.8-5.8-4.8-.7-.7-.2-1.9-.7-2.5,2.8-2.1,7.9,1.9,10.4,3.4,3,1.6,7.6,3.4,7.4,7.4l-.9.9c-1.6-.5-3.4-1.2-5.1-1.9-1.6-.5-3-1.2-4.6-2.1l-.7-.7h0v.4Z" fill="#63cadf"/>
          <path d="M401,19.5c.2.2.5.5.7,1.1-2.5-1.1-13.2-4.1-10.2-8.1,2.5-3.2,9.5,2.8,11.5,4.4-.9.9-1.4,1.8-1.8,2.5h0l-.2.2Z" fill="#63cadf"/>
          <path d="M393.6,8.9c2.6-1.2,3.4-1.9,6.3-.7,2.6,1.2,7.4,4.9,5.8,8.3-3.5-2.1-10.1-4.1-12.2-7.6Z" fill="#63cadf"/>
          <path d="M432.6,76.5l1.2,1.2c.9.9.5,1.9-.4,2.8,0,0-3,.2-4.2,1.1-1.8-2.8-3.2-4.9-5.5-7.2l.4-.4s.7,0,1.4,0l.4-1.1c.4.4,1.1.4,1.4.7,1.8,1.1,3.7,1.9,5.5,3,0,0-.2-.2-.2-.2Z" fill="#63cadf"/>
          <path d="M414.3,34.1c-1.9.5-7.8,1.1-6.2-3,1.2-3.4,5.3,1.8,6.2,3Z" fill="#63cadf"/>
          <path d="M395.2,19l-.5.5c0,1.4-.9,2.3-1.6,3.4l-.5-.5s-.4.4-.9.2h0c-1.8-.7-1.6-2.3-2.5-3.9l1.1-1.1c1.6.2,3.5,1.8,4.9,1.4Z" fill="#63cadf"/>
          <path d="M403.5,119.3h0c-.4.4-1.1,0-1.6.2h0l3-3c.4.4,1.2.2,1.6.2" fill="#63cadf"/>
          <path d="M433.9,79.5c-.4.4-.5.5-.5,1.2l-1.4,1.4-.7-.7c.7,0,.9-.2.9-.9l.7-.7h0l1.1-.4Z" fill="#63cadf"/>
          <path d="M429.3,87.9c.2.9.5,1.9-.4,2.5-.2-.9-.4-1.4-.4-2.1l.7-.7h0v.4Z" fill="#63cadf"/>
          <path d="M431.9,82.1l1.4-1.4c-.5.5-.7,1.4-1.1,2.1h0v-.7h-.4Z" fill="#63cadf"/>
          <path d="M429.8,92.3l-.5.5c.4-.4.2-1.2.4-1.8h0v1.4h0l.2-.2Z" fill="#63cadf"/>
          <path d="M409.2,77.4l1.1-1.1.7.7c-.4.4-.9.2-1.4.4l-.2-.2-.2.2Z" fill="#63cadf"/>
          <path d="M434.6,82.6l.4-1.1h0s-.5.5-.4,1.1l-.4-.4.2.2.2.2Z" fill="#63cadf"/>
          <path d="M433.5,85.5v-1.1c.4.4.5.5.2.9h0l-.2.2Z" fill="#63cadf"/>
          <path d="M425.7,81.2l.9-.9c.2.9,0,1.1-.9.9Z" fill="#63cadf"/>
          <path d="M416,24.6h0" fill="#63cadf"/>
          <path d="M416.7,25.7" fill="#63cadf"/>
          <path d="M432.1,80.5c.4.4,0,1.1-.9.9l.9-.9Z" fill="#63cadf"/>
          <path d="M407,64.3l.7-.7h0s-.4.4-.4.7l-.2-.2-.2.2Z" fill="#63cadf"/>
          <path d="M439.1,77.7v1.1h0s-.2-.5-.2-.9l.4-.4h0l-.2.2Z" fill="#63cadf"/>
          <path d="M393.5,22.9l.4,1.1s-.4-1.1-.4-1.1Z" fill="#63cadf"/>
          <path d="M438.1,73.8h0Z" fill="#63cadf"/>
          <path d="M391.9,22.7h0Z" fill="#63cadf"/>
          <path d="M408.8,98.5l-.4.4h0l.4-.4h0Z" fill="#63cadf"/>
          <path d="M401.8,102.8l-.4.4h0l.4-.4h0Z" fill="#63cadf"/>
          <path d="M408.8,98.5h0Z" fill="#63cadf"/>
          <path d="M401.8,102.8h0Z" fill="#63cadf"/>
        </g>
      </g>
      <g id="pzYYIp-2">
        <g>
          <path d="M515.2,75.1c-2.3-1.2-4.6-2.1-7.4-2.1.5,1.6-.2,2.6-1.6,3.4,1.8,1.8,4.1,2.6,6.3,3.2l1.1-.4h0c.2-1.2.4-2.5,1.4-3.2l.4-.4-.2-.2v-.4Z" fill="#eee8e4"/>
          <path d="M509.2,71.2l1.4-1.4c-.4-.4-.2-.9-.4-1.4l1.4-1.4c-2.5-.4-4.4-.5-6.3-.7-.7,3.5.2,4.4,4.2,4.9h-.4Z" fill="#eee8e4"/>
          <path d="M495.8,69.4c.7-.7,1.1-1.8,1.4-2.5-1.6-1.2-4.1-1.2-6.2.2.7,1.8,2.3,2.3,4.6,2.1h0l.2.2Z" fill="#eee8e4"/>
          <path d="M477.1,101.5c-.5-1.6-1.1-2.8-2.8-2.8-3.9,3.2,1.9,4.4,2.8,2.8Z" fill="#eee8e4"/>
          <path d="M506,65.5c1.4,0,2.8.7,4.4.2,0-.7-.4-1.4-.4-2.5-1.6.2-3.4.2-4.9.4.2.5.2.9.2,1.2,0,0,.7.7.7.7Z" fill="#eee8e4"/>
          <path d="M519,83.9c-.9-1.6-4.2-2.1-4.1.2.2,3.4,3,.9,4.1-.2Z" fill="#eee8e4"/>
          <path d="M510.4,94.3c2.8-1.8.5-3-1.2-3.7-1.6,1.6-1.4,2.5,1.2,3.7Z" fill="#eee8e4"/>
          <path d="M485.7,69.5c.4-.4,1.1-.4,1.8-.4.7-.7,1.1-1.8,1.9-3-1.4.4-3,.5-4.8.9.5.9.9,1.6,1.2,2.3h0l-.2.2Z" fill="#eee8e4"/>
          <path d="M459.8,89.9c1.4,1.4,2.8,2.1,4.6,1.8,1.2-1.2-3.4-3.4-4.6-1.8Z" fill="#eee8e4"/>
          <path d="M509,88.3c.7.7,1.6.9,2.5,1.4,4.1-2.3-.4-3.9-2.5-1.4Z" fill="#eee8e4"/>
          <path d="M498.4,106.3c1.2,1.9,2.8,2.1,4.2.7-3-2.3-2.3-2.3-4.2-.7Z" fill="#eee8e4"/>
          <path d="M484.5,106.8c-1.4-1.4-2.3-2.6-3.5-4.2-.2,3,.9,4.4,3.5,4.2Z" fill="#eee8e4"/>
          <path d="M529.6,70.5c.7-2.5-.5-3.4-2.6-3.4-.5,1.6.4,2.8,2.6,3.4Z" fill="#eee8e4"/>
          <path d="M486.1,114.7c1.9-1.9,1.6-3.4-.7-3.9-.2,1.6,0,2.9.7,3.9Z" fill="#eee8e4"/>
          <path d="M446.7,145.6c-.5-1.2-1.9-.5-2.8-1.1-1.6,2.3,1.8,3.5,2.8,1.1Z" fill="#eee8e4"/>
          <path d="M527.7,73.5c-.7.7-1.6,2.6.2,3,1.9.2,1.1-2.5-.2-3Z" fill="#eee8e4"/>
          <path d="M507,99c.2-.9.4-1.8.5-2.3-2.8-.4-4.1,1.9-.5,2.3Z" fill="#eee8e4"/>
          <path d="M447.3,141.9c.4,1.1.5,1.6.7,2.1,1.4,0,2.5,0,3.4-1.6-1.2-.2-2.5-.4-3.9-.4h0l-.2-.2Z" fill="#eee8e4"/>
          <path d="M446.2,140.1c-1.8.1-2.8.8-3,1.9,2.3.9,2.8.4,3-1.9Z" fill="#eee8e4"/>
          <path d="M504.2,104c2.5-.4,2.8.7,2.6-2.6-1.9-.2-1.8,1.8-2.6,2.6Z" fill="#eee8e4"/>
          <path d="M452.7,145.6c.2,1.2.4,1.8.4,2.5,2.6-1.2,3.9-2.1-.4-2.5Z" fill="#eee8e4"/>
          <path d="M486.9,127.3c1.8-1.8,2.1-2.1.2-3.4-.8,1.5-.9,2.6-.2,3.4Z" fill="#eee8e4"/>
          <path d="M489.4,124.1c1.6-1.6.9-2.6-.7-3.5-.5,1.6-.2,1.9.7,3.5Z" fill="#eee8e4"/>
          <path d="M451.8,147.9c-.5-1.6-1.6-3.4-3.4-1.6.4,1.4,1.6,1.6,3.4,1.6Z" fill="#eee8e4"/>
          <path d="M441.3,140.5c-1.9-4.1-3.9-1.1-.5.5l.5-.5Z" fill="#eee8e4"/>
          <path d="M522,87.6c-1.2-1.2-1.4-1.4-2.8.4,1.2,1.6,1.6,1.6,2.8-.4Z" fill="#eee8e4"/>
          <path d="M455.9,140.7c-1.1.4-1.9.9-2.6,1.2-.2,1.9,2.8,1.4,2.6-1.2Z" fill="#eee8e4"/>
          <path d="M476.4,138.9c-1.1.4-2.1.7-2.6,1.9,1.2,1.2,3.9-.4,2.6-1.9Z" fill="#eee8e4"/>
          <path d="M524,63.1c.5,1.6,1.4,2.1,2.8,2.8-.2-.9-.4-1.8-.5-2.6-.9.2-1.8,0-2.5,0l.2-.2Z" fill="#eee8e4"/>
          <path d="M457.1,143.3c.4,2.1,3.5,2.1,2.6-.2-.9.2-1.8,0-2.6.2Z" fill="#eee8e4"/>
          <path d="M488.2,131c1.2-.5,1.9-1.2,1.6-2.6-2.1.4-2.5,1.1-1.6,2.6Z" fill="#eee8e4"/>
          <path d="M486.2,119.5c-.5-4.1-3.7-1.2-.4.4l.4-.4Z" fill="#eee8e4"/>
          <path d="M514.8,94.8c-1.4-.7-1.9.2-2.8,1.1,1.6,1.6,2.1,1.4,2.8-1.1Z" fill="#eee8e4"/>
          <path d="M460.8,148.4c-1.1-1.8-1.8-1.8-3.2-.4,1.1.4,1.8.7,2.6.9l.5-.5Z" fill="#eee8e4"/>
          <path d="M489.6,115.5c-1.6.9-1.6,1.6.2,3.4.4-1.1.5-2.3-.2-3.4Z" fill="#eee8e4"/>
          <path d="M466.1,142.1c-1.3.4-1.9,1-1.9,1.9,1.8.4,2.5-.4,1.9-1.9Z" fill="#eee8e4"/>
          <path d="M468.8,145.8c1.6,1.6,2.5,0,3-1.2-1.4,0-2.5,0-3,1.2Z" fill="#eee8e4"/>
          <path d="M522.9,83.5c.5,1.2,1.4,1.4,2.5,1.1-.4-.7-.5-1.2-1.1-2.1-.5.5-.9.9-1.6.9l.2.2Z" fill="#eee8e4"/>
          <path d="M466,146.8c-1.6-.2-1.8-.4-2.6.9,1.1,1.1,1.4.4,2.8-.4l-.4-.4.2-.2Z" fill="#eee8e4"/>
          <path d="M479,142.3c1.8.4,2.3-.2,2.1-2.1-1.1-.1-1.8.6-2.1,2.1Z" fill="#eee8e4"/>
          <path d="M473.7,145.4c1.2-.2,2.3-.5,2.8-1.4-1.8-.7-3-.2-2.8,1.4Z" fill="#eee8e4"/>
          <path d="M487.6,132.9l-1.1-1.1c-.9.9-1.1,1.8-.5,3l1.8-1.8-.2-.2Z" fill="#eee8e4"/>
          <path d="M483.8,139.6c.5-.5,1.1-1.1,1.2-1.9-1.6-.5-1.9.5-1.9,1.9,0,0,.7,0,.7,0Z" fill="#eee8e4"/>
          <path d="M440.9,145.1c.4-1.4,0-1.8-1.9-1.9.2,1.2.4,1.4,1.9,1.9Z" fill="#eee8e4"/>
          <path d="M529.4,78.1l1.2,1.2c.5-.5.5-1.2,1.1-1.8-.9-.9-1.6-.2-2.3.5Z" fill="#eee8e4"/>
          <path d="M525.7,82.5c1.4,1.4,3,.9,1.6-.9-.4.4-.9.9-1.6.9Z" fill="#eee8e4"/>
          <path d="M483.6,133.4c-.7.7-1.4,1.4-1.4,2.5,1.9-.5,2.1-1.1,1.4-2.5Z" fill="#eee8e4"/>
          <path d="M479.4,137.3c-.4-.4-1.2-.2-1.8-.4l-.4.4c.7.7,1.5.9,2.3.5,1.2-.5,0,0-.2-.5Z" fill="#eee8e4"/>
          <path d="M443.9,92c.5-.5,1.4-.4,2.1-.7-1.2-1.2-1.8-.4-2.1.7Z" fill="#eee8e4"/>
          <path d="M484.6,128.9c-1.1,1.1-1.4.7-.7,2.1,1.1-1.1.9-.9.7-2.1Z" fill="#eee8e4"/>
          <path d="M445.1,85.5l.5-.5h0l-.5.5h0Z" fill="#eee8e4"/>
          <path d="M460.5,97.6s-.7-.4-1.1-.4c0,0,.7.4,1.1.4Z" fill="#eee8e4"/>
          <path d="M480.9,68.7l.4-.4-.4.4Z" fill="#eee8e4"/>
          <path d="M441.1,111l-.2,1.2.2-1.2Z" fill="#eee8e4"/>
          <path d="M506,65.5l-.7-.7.7.7Z" fill="#fff"/>
          <path d="M444.3,80h0l.5-.5h0l-.4.4h0l-.2.2Z" fill="#eee8e4"/>
          <path d="M464.2,103.1l-.5-.5.5.5Z" fill="#eee8e4"/>
          <path d="M456.8,122.9l-.2-.9.2.9Z" fill="#eee8e4"/>
          <path d="M441.1,110.7l.4.4-.4-.4Z" fill="#eee8e4"/>
          <path d="M464.2,131l.4.4-.4-.4Z" fill="#eee8e4"/>
          <path d="M464,130.4l.4.4-.4-.4Z" fill="#eee8e4"/>
          <path d="M456.8,123.2h0s0,0,0,0Z" fill="#eee8e4"/>
          <path d="M464.2,101h0q.1-.1,0,0Z" fill="#eee8e4"/>
          <path d="M452.5,117.2h0Z" fill="#eee8e4"/>
          <path d="M475.1,95.7c3.4,1.6,6.9,3,10.1,4.8,2.5,1.4,6.2,5.1,9.5,4.9,2.3-.2,3.5-1.8,4.4-3.4,1.6-3,0-4.2-3-5.8-6.9-3.7-14.1-7.8-21.2-10.9-6.3-2.8-13.2-1.6-19.4.4.4.4.9.5,1.4.7,4.1,1.6,7.8,3.9,11.5,6.2,1.9,1.2,4.4,1.9,6.3,2.8l.5-.5h0l-.7.7.4.4.2-.2Z" fill="#63cadf"/>
          <path d="M455.4,129.2c.4,1.8,1.2,5.1.9,7.2-.4,2.5-1.9,3-4.1,4.1-2.3.2-2.8,0-4.2-1.4-1.2-7.6-.5-15-2.1-22.6-.9-3.7-7.1-18.7-1.9-19.9,1.6,3.4,3.4,6.5,4.9,9.9,1.4,2.8,3.7,5.8,3.9,9.2.2.9,1.9,10.1,2.6,13.6ZM449.6,124.4h0l-.4.4h0l-.4-.4.2.2.5-.2ZM448,116.5h0l-.4.4.4.4-.4-.4h0l.4-.4Z" fill="#63cadf"/>
          <path d="M483.6,70.3c-.4.4-4.8-.2-5.6,0-3.9.4-7.2,1.6-10.8,2.6-6.5,2.3-14.3,4.4-19,9.9.5.2,1.2.2,1.8.4,14.6-2.6,28.7-2.3,42.3-8.5-3.2-2.1-5.3-3.2-8.8-4.6h0l.2.2Z" fill="#63cadf"/>
          <path d="M466.7,121.4c-.7-3.5-.9-6.9-2.6-10.1-.5-1.2-1.8-2.5-2.3-3.7-.4-1.4.2-2.6-.4-3.9-1.1-3.2-4.2-4.2-6.9-5.8-2.6-1.6-6.7-5.3-10.1-4.1,1.9,6.2,6.2,11.8,9.7,17.1,2.5,3.5,7.8,10.9,12.5,10.8h0v-.4Z" fill="#63cadf"/>
          <path d="M503.5,93.1c1.1-1.1,2.8-1.8,1.8-3.9-1.1-2.1-6.9-3.4-9.2-4.2-3.2-1.4-6.9-3.4-10.2-3.9-3-.5-6.7.7-9.7,1.2l-.4.4c5.3,3.2,10.4,6.5,16.1,9.3,2.1,1.1,11.8,6.5,11.3.7h0l.4.4Z" fill="#63cadf"/>
          <path d="M441.1,110.7c-.2-4.1-.5-7.9-.9-12.2-3.7,5.8-2.6,15-2.3,21.7.2,3.7.4,7.4.5,11.1.2,4.4.7,4.9,4.2,7.8.5-.5,3.2.4,3-1.2-.7-4.6-1.6-9-2.3-13.6-.5-2.6-2.3-12.5-2.3-12.9h0l-.4-.4h0l.4-.4Z" fill="#63cadf"/>
          <path d="M510.4,81.6c1.9,4.8-6.5,4.4-9.3,3.7-4.6-1.4-9.3-3.4-13.9-5.1,4.4-5.1,20.1-6,23.3,1.4Z" fill="#63cadf"/>
          <path d="M456.8,123.2c.7,5.6.7,10.9.7,16.6.5,1.2,4.8,1.9,6.9-.2s.2-5.8-.2-8.3l-.4-.4-.4-.4c-1.1-4.6-2.8-12.3-8.5-13.8.4,1.8.7,3.5,1.1,5.3,0,0,.4.4.2.9h0l.4.4.2-.2Z" fill="#63cadf"/>
          <path d="M464.7,106.1c-2.1,3.2,4.1,8.6,6,10.6,3.7,3.7,7.2,7.2,10.9,10.9s4.2-6,2.6-6.9c-6-5.3-12.3-10.6-19.2-14.6l-.2-.2-.2.2Z" fill="#63cadf"/>
          <path d="M464.2,103.1c3.2,2.5,6.5,4.4,9.7,6.9,1.8,1.4,6.2,7.9,8.6,5.8.7,0,.5-1.6.7-1.8-.5-1.6-.2-3.4-.9-4.8-.7-1.8-2.8-2.8-4.2-3.9-4.2-2.5-8.8-3.9-13.6-4.8h0c-.5.5-.4,1.1-.4,1.8l.5.5-.4.4-.2-.2Z" fill="#63cadf"/>
          <path d="M464.7,123.7c.7,4.9,1.8,9.9,2.5,14.8-.4,2.1,8.5,1.4,7.8-4.2s-6-10.6-10.4-10.4l.2-.2Z" fill="#63cadf"/>
          <path d="M437,131.3c.2-6.2-.4-12.3-.5-18.5,0-5.6,1.2-10.1,2.6-15.3,0,0-.4-.4-.2-.9-2.5,1.4-3.5,4.9-4.2,8.1-.5,3-1.4,4.2-1.2,7.2.2,6.2.9,12.2,2.1,18.3l1.2,1.2.2-.2Z" fill="#63cadf"/>
          <path d="M467.7,115.8c.9,4.8,3.2,7.8,5.5,11.8,1.2,2.3,2.6,9.3,6.9,6.9,7.4-4.2-9-16.1-11.8-18.9l-.2-.2-.4.4Z" fill="#63cadf"/>
          <path d="M460.5,97.6c1.9.9,5.3,2.1,7.4,1.4,1.1-.4,1.4-1.4,2.5-1.1-.4-3.5-6.7-4.6-9.2-5.6-3-1.2-7.4-3.5-10.6-1.1-.2.2-.2.9-.2,1.2,1.6.9,3.2,1.8,4.8,2.6,1.4.7,3,1.6,4.6,2.1,0,0,.7.4,1.1.4l-.2-.2-.2.2Z" fill="#63cadf"/>
          <path d="M513.2,71c-.2.2-.7,0-1.2.2,2.5,1.1,11.6,7.4,12.7,2.5.9-4.1-8.3-5.5-10.8-5.8-.2,1.2-.4,2.1-.7,3.2h0Z" fill="#63cadf"/>
          <path d="M525.9,69.9c-.9-2.6-.7-3.9-3.7-5.1-2.6-1.2-8.5-2.5-9.9,1.1,3.9,1.4,9.7,5.1,13.8,4.2h0l-.2-.2Z" fill="#63cadf"/>
          <path d="M449.4,84.4c-.5-.2-1.2-.2-1.8-.4-1.1,0-1.8.7-1.9,1.9,0,0,1.9,2.6,1.9,4.1,3.2-.7,6-.7,9-.5h0c0-.7-.4-1.1-.5-1.2l.7-.7c-.4-.4-.9-.5-1.4-.7-1.9-.9-3.9-1.4-5.8-2.3,0,0-.2-.2-.2-.2Z" fill="#63cadf"/>
          <path d="M493.5,70.7c.7,1.8,4.2,6.7,6.3,2.8,1.8-3.2-4.9-2.8-6.3-2.8Z" fill="#63cadf"/>
          <path d="M517.3,75.1l-.4.4c-.9.9-1.1,2.1-1.4,3.5,0,0,.5.2.9.2,0,0,.4.4.5.9h0c1.6.9,2.8-.4,4.6-.7.2-.2.2-.9.4-1.4-1.2-1.2-3.5-1.4-4.2-2.8h-.4Z" fill="#63cadf"/>
          <path d="M435.8,134.3h0l1.1,1.1h0v-4.2s-1.2-1.2-1.2-1.2" fill="#63cadf"/>
          <path d="M446.9,86.2l-.9-.9s-.4.4-.4,1.1c0,.7-.2,1.2-.2,1.9,0,0,.7,0,.9.2-.5-.5-.7-.7.2-1.2.2-.2.4-.4.4-1.1Z" fill="#63cadf"/>
          <path d="M442.8,94.1c-.7.7-1.8.7-1.8,1.8.5-.5,1.2-.5,1.8-1.1,0,0-.4-.4-.2-.9h0l.2.2Z" fill="#63cadf"/>
          <path d="M445.5,88.3c0-.7.2-1.2.2-1.9-.5.5-.5,1.6-.9,2.3h0l.5-.5.2.2Z" fill="#63cadf"/>
          <path d="M439,96.6s.4.4.2.9l1.4-1.4h0l-.9.9-.4-.4h-.4Z" fill="#63cadf"/>
          <path d="M463.8,102.4c.4-.4.2-.9.2-1.6-.2.2-.4.4-.9.2.4.4.5.9.7,1.4Z" fill="#63cadf"/>
          <path d="M443.4,86.9l.4-1.1h0l-.7.7.4.4Z" fill="#63cadf"/>
          <path d="M442,89.3l.7-.7c-.4-.4-.7,0-.7.7h0Z" fill="#63cadf"/>
          <path d="M450.1,92.5s.2-.9.2-1.2c-.7.7-.9.9-.2,1.2Z" fill="#63cadf"/>
          <path d="M446.7,87.4c-.5.5-.7.7-.2,1.2,0,0,.2-.9.2-1.2Z" fill="#63cadf"/>
          <path d="M475.1,95.7l.7-.7-.5-.5-.5.5.4.4v.4Z" fill="#63cadf"/>
          <path d="M444.3,80l-.7.7h0l.5-.5h0l.2-.2Z" fill="#63cadf"/>
          <path d="M515.7,79.1l-1.1.4,1.1-.4Z" fill="#63cadf"/>
          <path d="M447.6,78.4h0Z" fill="#63cadf"/>
          <path d="M516.7,80.2h0Z" fill="#63cadf"/>
          <path d="M448,116.5l-.4.4.4.4-.4-.4h0l.4-.4Z" fill="#63cadf"/>
          <path d="M449.6,124.8l-.4.4h0l-.4-.4.2.2.5-.2Z" fill="#63cadf"/>
          <path d="M447.8,116.7h0Z" fill="#63cadf"/>
          <path d="M449.6,124.8h0Z" fill="#63cadf"/>
        </g>
      </g>
    </g>
    <path d="M469.1,51.6c-6.7,1.8-17.1,4.8-17.1,4.8,0,0-4.4-9.7-7.4-15.9-3.2-6.3-4.9-13.8-1.9-19.9s9.7-10.8,17.3-7.1c7.6,3.7,6.7,11.6,6.7,11.6,0,0,5.6-6,13.1-2.5,7.4,3.5,8.6,11.5,5.8,17.8-2.8,6.3-9.7,9.7-16.4,11.5h0v-.4Z" fill="#ee60a2"/>
  </g>
</svg>