<?xml version="1.0" encoding="UTF-8"?>
<svg id="Layer_1" xmlns="http://www.w3.org/2000/svg" baseProfile="tiny" version="1.2" viewBox="0 0 178 58.3">
  <!-- Generator: Adobe Illustrator 30.5.1, SVG Export Plug-In . SVG Version: 2.1.4 Build 3)  -->
  <g>
    <g isolation="isolate">
      <path d="M84.1,28.8c-.4,0-.8,0-1.1-.1-2.8-.8-3.1-3.4-2.7-4.6.5-1.4,1.3-2,1.7-2.2s.6,0,.7.2,0,.4-.2.7c-.8.6-1,1.1-1.2,1.7s-.2,2.5,1.5,3.1c.4.1.8.2,1.2.2,2.4,0,4.3-2.5,5.2-5.7.3-1.2.5-2.3.5-3.3,0-2.2-.7-3.8-1.9-4.1-.6-.1-1.1.6-2.2.9-.5.2-1.2.4-1.7.4s-.9-.2-1-.7c-.2-1,1.2-1.6,2-1.8.8-.3,2-.3,2.4-.4.4,0,.4-.1.7-.4.3-.3,2.1-2.6,2.5-4.9,0-.6,0-1.2,0-1.8,0-1.8-.5-3.4-2.2-3.8-1.6-.4-4.4.6-7.3,3.9.6,1.3.9,3,.9,5.1s0,2.9-.4,4.5c-1,6.8-4.8,13.6-7.3,13.1-1.3-.3-2-1.8-2-4.2s.4-3.9,1.2-6.4c1.2-3.6,2.9-7.1,5.1-10.2-.3-1.6-.9-2.6-1.8-2.6-2.2,0-3.1,3.8-3.1,4.6s-.3.9-.6.9-.4-.1-.4-.6c0-1.2,1.3-6.5,5.1-6.5s2.2.5,2.9,1.4c2.7-3.1,5.6-5.1,8.6-5.1s1.4.1,2.2.4c2.2.8,2.9,2.4,2.9,4s-.5,3-1.1,4.1c-1.2,2.3-3.1,4.1-3.7,4.4-.5.3-.3.5,0,.5s4.3,1,4.3,5.3,0,1.3-.3,2c-1.2,5.2-6.2,8.1-9.4,8.1h0ZM74.5,18.6c-.7,2.5-1.1,4.7-1.1,6.4s.3,2.4.9,2.6c2,.4,3.7-6.4,4.2-11.3,0-1.4.3-2.9.3-4.3s0-1.9,0-2.8c-1.8,2.9-3.1,6.2-4.1,9.4h-.1Z" fill="#00aeef"/>
      <path d="M108.4,27.2c-.7.6-1.5,1.4-3,1.2-1.6-.2-2.2-1.9-2.2-4.2s0-.7,0-1.1c-.4.8-1,1.7-1.6,2.5-1.3,1.7-2.4,3-4.2,2.9-1.5-.1-2.5-1.7-2.5-4.1s0-1.5.3-2.4c.7-2.7,1.6-5,2-5.2s.9-.2,1.3-.2.6,0,.8.3c0,.1,0,.3,0,.6-.2.9-.7,3-1,4.5-.2.9-.6,2.7-.6,3.9s0,1.3.6,1.3c1.1.1,2.8-1.8,3.7-3.5.5-.9,1.2-2.5,1.8-3.6.3-1.6.9-3,1.1-3.3.2-.2.8-.2,1.2-.2s1,0,1.1.3v.4c-.2,1-.7,3.1-1,4.7-.3,1.2-.6,2.9-.6,3.9s0,1,.4,1.2c.8.4,1.7-.6,2.4-1.5.5-.7,1-1.5,1.3-2,0-.3.5-.4.7-.2,0,.1.2.4,0,.7-.4.8-1.4,2.4-2,3h0Z" fill="#00aeef"/>
      <path d="M115.8,27.1c-.9.9-2.3,1.5-3.8,1.3-1.6-.3-2.2-1.8-2.2-4.1s.3-3,.7-4.8c.3-1.2.6-2.5.9-3.8h-1c-.3,0-.6-.3-.6-.6s.3-.6.6-.6h1.4c.5-2.2,1-4,1.3-4.4.4-.7.8-.9,1.3-.9s1,.5.8,1.4c0,.5-.5,2-.9,3.9h1.8c.3,0,.6.3.6.6s-.3.6-.6.6h-2.1c-.3,1.2-.5,2.4-.7,3.6-.4,2.4-.9,4.8-.9,6.4s.2,1.5.6,1.6c1,.3,2.4-.7,2.9-1.3.6-.7,1.2-1.6,1.4-2,0-.2.4-.3.5-.1,0,.1.2.3,0,.7-.3.8-1,1.7-1.9,2.6h-.1Z" fill="#00aeef"/>
      <path d="M122.6,27.1c-.9.9-2.3,1.5-3.8,1.3-1.6-.3-2.2-1.8-2.2-4.1s.3-3,.7-4.8c.3-1.2.6-2.5.9-3.8h-1c-.3,0-.6-.3-.6-.6s.3-.6.6-.6h1.4c.5-2.2,1-4,1.3-4.4.4-.7.8-.9,1.3-.9s1,.5.8,1.4c0,.5-.5,2-.9,3.9h1.8c.3,0,.6.3.6.6s-.3.6-.6.6h-2.1c-.3,1.2-.5,2.4-.7,3.6-.4,2.4-.9,4.8-.9,6.4s.2,1.5.6,1.6c1,.3,2.4-.7,2.9-1.3.6-.7,1.2-1.6,1.4-2,0-.2.4-.3.5-.1,0,.1.2.3,0,.7-.3.8-1,1.7-1.9,2.6h-.1Z" fill="#00aeef"/>
      <path d="M132.9,27.6c-1.3.6-2.7.9-4,.9s-2.8-.4-3.8-1c-2-1.3-2.3-3.2-2.1-4.5.4-2.9,2.3-4.5,4.1-5.5.9-.5,2.4-.9,3.6-.9s2.2.3,2.8,1.2c.2.4.4.8.4,1.2,0,1.6-1.6,3.5-4.3,4.8-1.4.7-2.7,1.1-3.4,1.2.2,1.3.9,1.9,1.6,2.2.6.3,1.1.4,1.7.4.9,0,1.9-.3,3.2-1,1.7-.8,2.8-2.5,3-3,.1-.3.4-.3.6,0s.2.5,0,.8c-.4.8-1.2,2.2-3.4,3.3h0ZM126.4,21.8c-.2.8-.3,1.5-.3,2.1.8-.1,2.2-.4,3.3-1.3s1.8-2.5,1.8-3.7-.2-1-.6-1.2c-1.3-.6-3.5.7-4.2,4.1Z" fill="#00aeef"/>
      <path d="M148,21.8c-.5.6-1.2,1.2-2,1.4-.4.1-.8.2-1.2.2-.6,0-1.1-.1-1.6-.4-.9-.5-1.5-1.7-1.4-3.1,0-.6-.1-.5-.4-.2-.2.3-1.1,1.4-2,3.1-.9,1.8-1.7,4.5-1.8,4.8-.1.4-.5.5-1.3.5s-1.4,0-1.4-.5.3-3.2.6-5.3c.4-2.4,1.1-5.1,1.3-5.3.2-.2.7-.4,1.3-.3.7,0,1.1.4,1,.8s-.3,1.8-.5,2.7c-.2.9-.3,1.9-.3,2.2s0,.2.1.1.1-.2.2-.3c.2-.4,1.2-2,1.9-3.2.8-1.2,1.4-1.9,1.6-2.1.3-.2,1.7-.7,2.3-.3.7.5.1,1.7-.1,2.5-.3.8-1,2.3-.5,3,.3.4,1,.5,1.8.3.7-.2,1.3-.7,1.7-1.2.2-.2.5-.1.6,0,0,.1,0,.3-.2.5h.3Z" fill="#00aeef"/>
      <path d="M162.6,27c-1,.9-2.5,1.7-4.1,1.4-1.3-.3-2.2-1.8-2.5-4.2-1,1.7-2.8,3.3-4,3.4.3,1,.5,2.4.5,3.9.2,5.9-1.5,8.8-3.6,8.7-2.1,0-3.1-2-3.1-6.8s.2-4.6.5-7.7c-.5-.5-.9-1.1-.8-1.8.1-.9.6-1.2,1.2-1.4h0c1.5-12.2,4.2-17.8,7.5-17,1.3.3,1.8,1.5,1.8,3s-1,4.9-1.7,6.2c-1.6,3.4-3.8,6-4.9,7.2l-.2,1.4c.9.5,1.8,1.5,2.5,3.3,1.4-.2,3.3-2.1,4.1-4.5,0-2,.3-4.3.8-6.8,1.4-6.8,3.6-13.1,6.4-12.7,1.2.2,1.6,1.6,1.6,3.3s-.7,5-1,6.2c-.6,2-2.9,6.7-4.7,8.8v2.3c0,2.1.2,3.7.8,3.8,1.2.4,2.2-.6,2.9-1.3.7-.7,1.4-1.8,1.7-2.4.1-.3.3-.3.4-.2.2.1.3.5.1.9-.3.7-1.1,2-2.1,2.9h0ZM150.9,27.6c-.8,0-1.5-.1-2.1-.4-.5,4.3-.8,7.2-.8,9.1s.4,2.9,1.2,2.9c1.4,0,2.3-3.5,2.3-6.7s-.1-3.4-.6-4.9h0ZM149.1,24.5l-.2,1.7c.4.3,1,.5,1.7.5-.4-.9-.8-1.6-1.5-2.2ZM149.7,19.8c.9-.8,2.4-2.4,3.7-5.5,1-2.2,1.5-4.4,1.5-5.9s-.3-2-.9-2c-1.7-.2-3,3.1-4.3,13.4ZM159.5,15.1c-.2,1.3-.3,2.6-.4,3.8,1.1-1.3,2.5-3.7,3.7-7.2.7-2.2,1.1-4.3,1.1-5.8s-.3-2.2-.8-2.3c-1.2-.4-2.8,6.1-3.5,11.5h-.1Z" fill="#00aeef"/>
      <path d="M177.9,24.6c-.4,1-2.2,2.9-4.5,4.2,0,.3-.1.7-.2,1-.8,4.8-1.8,7.5-3,9.2-.9,1.3-2.5,2.4-3.9,2.4s-.9,0-1.3-.4c-.9-.5-1.3-1.6-1.3-2.8s.4-2.5,1.1-3.7c1.3-2.1,3.6-4,6-5.3.4-2.3.7-4.2.7-4.4v-.3s-.1,0-.2.2c-.3.5-2.6,4.2-5.2,3.8-1.8-.3-2.4-2-2.4-3.9s.1-1.8.3-2.7c.5-2.4,1.3-4.7,1.7-4.9.3-.3.5-.3,1-.3s1.2.4,1.1.9c-.1.4-.9,3.7-1.2,5-.2.9-.6,2.6-.6,3.7s.1,1,.4,1.2c.8.4,2.5-.4,4-3,1.6-2.5,2.1-6.5,2.1-6.8s.5-.7,1.3-.7,1.5,0,1.4.8c0,.6-1,6-1.7,10.1,1.8-1.1,3-2.5,3.6-3.6.3-.6.7-.7.8-.4.1.2.1.5,0,1v-.3ZM165.7,35.3c-.6,1.3-.9,2.4-.9,3.3s.3,1.4.8,1.7c1.1.5,3-.4,3.9-4.6.4-1.6.7-3.5,1-5.4-2.1,1.3-3.9,3-4.8,5Z" fill="#00aeef"/>
    </g>
    <g>
      <path d="M84.1,28.8c-.4,0-.8,0-1.1-.1-2.8-.8-3.1-3.4-2.7-4.6.5-1.4,1.3-2,1.7-2.2s.6,0,.7.2,0,.4-.2.7c-.8.6-1,1.1-1.2,1.7s-.2,2.5,1.5,3.1c.4.1.8.2,1.2.2,2.4,0,4.3-2.5,5.2-5.7.3-1.2.5-2.3.5-3.3,0-2.2-.7-3.8-1.9-4.1-.6-.1-1.1.6-2.2.9-.5.2-1.2.4-1.7.4s-.9-.2-1-.7c-.2-1,1.2-1.6,2-1.8.8-.3,2-.3,2.4-.4.4,0,.4-.1.7-.4.3-.3,2.1-2.6,2.5-4.9,0-.6,0-1.2,0-1.8,0-1.8-.5-3.4-2.2-3.8-1.6-.4-4.4.6-7.3,3.9.6,1.3.9,3,.9,5.1s0,2.9-.4,4.5c-1,6.8-4.8,13.6-7.3,13.1-1.3-.3-2-1.8-2-4.2s.4-3.9,1.2-6.4c1.2-3.6,2.9-7.1,5.1-10.2-.3-1.6-.9-2.6-1.8-2.6-2.2,0-3.1,3.8-3.1,4.6s-.3.9-.6.9-.4-.1-.4-.6c0-1.2,1.3-6.5,5.1-6.5s2.2.5,2.9,1.4c2.7-3.1,5.6-5.1,8.6-5.1s1.4.1,2.2.4c2.2.8,2.9,2.4,2.9,4s-.5,3-1.1,4.1c-1.2,2.3-3.1,4.1-3.7,4.4-.5.3-.3.5,0,.5s4.3,1,4.3,5.3,0,1.3-.3,2c-1.2,5.2-6.2,8.1-9.4,8.1h0ZM74.5,18.6c-.7,2.5-1.1,4.7-1.1,6.4s.3,2.4.9,2.6c2,.4,3.7-6.4,4.2-11.3,0-1.4.3-2.9.3-4.3s0-1.9,0-2.8c-1.8,2.9-3.1,6.2-4.1,9.4h-.1Z" fill="#231f20"/>
      <path d="M108.4,27.2c-.7.6-1.5,1.4-3,1.2-1.6-.2-2.2-1.9-2.2-4.2s0-.7,0-1.1c-.4.8-1,1.7-1.6,2.5-1.3,1.7-2.4,3-4.2,2.9-1.5-.1-2.5-1.7-2.5-4.1s0-1.5.3-2.4c.7-2.7,1.6-5,2-5.2s.9-.2,1.3-.2.6,0,.8.3c0,.1,0,.3,0,.6-.2.9-.7,3-1,4.5-.2.9-.6,2.7-.6,3.9s0,1.3.6,1.3c1.1.1,2.8-1.8,3.7-3.5.5-.9,1.2-2.5,1.8-3.6.3-1.6.9-3,1.1-3.3.2-.2.8-.2,1.2-.2s1,0,1.1.3v.4c-.2,1-.7,3.1-1,4.7-.3,1.2-.6,2.9-.6,3.9s0,1,.4,1.2c.8.4,1.7-.6,2.4-1.5.5-.7,1-1.5,1.3-2,0-.3.5-.4.7-.2,0,.1.2.4,0,.7-.4.8-1.4,2.4-2,3h0Z" fill="#231f20"/>
      <path d="M115.8,27.1c-.9.9-2.3,1.5-3.8,1.3-1.6-.3-2.2-1.8-2.2-4.1s.3-3,.7-4.8c.3-1.2.6-2.5.9-3.8h-1c-.3,0-.6-.3-.6-.6s.3-.6.6-.6h1.4c.5-2.2,1-4,1.3-4.4.4-.7.8-.9,1.3-.9s1,.5.8,1.4c0,.5-.5,2-.9,3.9h1.8c.3,0,.6.3.6.6s-.3.6-.6.6h-2.1c-.3,1.2-.5,2.4-.7,3.6-.4,2.4-.9,4.8-.9,6.4s.2,1.5.6,1.6c1,.3,2.4-.7,2.9-1.3.6-.7,1.2-1.6,1.4-2,0-.2.4-.3.5-.1,0,.1.2.3,0,.7-.3.8-1,1.7-1.9,2.6h-.1Z" fill="#231f20"/>
      <path d="M122.6,27.1c-.9.9-2.3,1.5-3.8,1.3-1.6-.3-2.2-1.8-2.2-4.1s.3-3,.7-4.8c.3-1.2.6-2.5.9-3.8h-1c-.3,0-.6-.3-.6-.6s.3-.6.6-.6h1.4c.5-2.2,1-4,1.3-4.4.4-.7.8-.9,1.3-.9s1,.5.8,1.4c0,.5-.5,2-.9,3.9h1.8c.3,0,.6.3.6.6s-.3.6-.6.6h-2.1c-.3,1.2-.5,2.4-.7,3.6-.4,2.4-.9,4.8-.9,6.4s.2,1.5.6,1.6c1,.3,2.4-.7,2.9-1.3.6-.7,1.2-1.6,1.4-2,0-.2.4-.3.5-.1,0,.1.2.3,0,.7-.3.8-1,1.7-1.9,2.6h-.1Z" fill="#231f20"/>
      <path d="M132.9,27.6c-1.3.6-2.7.9-4,.9s-2.8-.4-3.8-1c-2-1.3-2.3-3.2-2.1-4.5.4-2.9,2.3-4.5,4.1-5.5.9-.5,2.4-.9,3.6-.9s2.2.3,2.8,1.2c.2.4.4.8.4,1.2,0,1.6-1.6,3.5-4.3,4.8-1.4.7-2.7,1.1-3.4,1.2.2,1.3.9,1.9,1.6,2.2.6.3,1.1.4,1.7.4.9,0,1.9-.3,3.2-1,1.7-.8,2.8-2.5,3-3,.1-.3.4-.3.6,0s.2.5,0,.8c-.4.8-1.2,2.2-3.4,3.3h0ZM126.4,21.8c-.2.8-.3,1.5-.3,2.1.8-.1,2.2-.4,3.3-1.3s1.8-2.5,1.8-3.7-.2-1-.6-1.2c-1.3-.6-3.5.7-4.2,4.1Z" fill="#231f20"/>
      <path d="M148,21.8c-.5.6-1.2,1.2-2,1.4-.4.1-.8.2-1.2.2-.6,0-1.1-.1-1.6-.4-.9-.5-1.5-1.7-1.4-3.1,0-.6-.1-.5-.4-.2-.2.3-1.1,1.4-2,3.1-.9,1.8-1.7,4.5-1.8,4.8-.1.4-.5.5-1.3.5s-1.4,0-1.4-.5.3-3.2.6-5.3c.4-2.4,1.1-5.1,1.3-5.3.2-.2.7-.4,1.3-.3.7,0,1.1.4,1,.8s-.3,1.8-.5,2.7c-.2.9-.3,1.9-.3,2.2s0,.2.1.1.1-.2.2-.3c.2-.4,1.2-2,1.9-3.2.8-1.2,1.4-1.9,1.6-2.1.3-.2,1.7-.7,2.3-.3.7.5.1,1.7-.1,2.5-.3.8-1,2.3-.5,3,.3.4,1,.5,1.8.3.7-.2,1.3-.7,1.7-1.2.2-.2.5-.1.6,0,0,.1,0,.3-.2.5h.3Z" fill="#231f20"/>
      <path d="M162.6,27c-1,.9-2.5,1.7-4.1,1.4-1.3-.3-2.2-1.8-2.5-4.2-1,1.7-2.8,3.3-4,3.4.3,1,.5,2.4.5,3.9.2,5.9-1.5,8.8-3.6,8.7-2.1,0-3.1-2-3.1-6.8s.2-4.6.5-7.7c-.5-.5-.9-1.1-.8-1.8.1-.9.6-1.2,1.2-1.4h0c1.5-12.2,4.2-17.8,7.5-17,1.3.3,1.8,1.5,1.8,3s-1,4.9-1.7,6.2c-1.6,3.4-3.8,6-4.9,7.2l-.2,1.4c.9.5,1.8,1.5,2.5,3.3,1.4-.2,3.3-2.1,4.1-4.5,0-2,.3-4.3.8-6.8,1.4-6.8,3.6-13.1,6.4-12.7,1.2.2,1.6,1.6,1.6,3.3s-.7,5-1,6.2c-.6,2-2.9,6.7-4.7,8.8v2.3c0,2.1.2,3.7.8,3.8,1.2.4,2.2-.6,2.9-1.3.7-.7,1.4-1.8,1.7-2.4.1-.3.3-.3.4-.2.2.1.3.5.1.9-.3.7-1.1,2-2.1,2.9h0ZM150.9,27.6c-.8,0-1.5-.1-2.1-.4-.5,4.3-.8,7.2-.8,9.1s.4,2.9,1.2,2.9c1.4,0,2.3-3.5,2.3-6.7s-.1-3.4-.6-4.9h0ZM149.1,24.5l-.2,1.7c.4.3,1,.5,1.7.5-.4-.9-.8-1.6-1.5-2.2ZM149.7,19.8c.9-.8,2.4-2.4,3.7-5.5,1-2.2,1.5-4.4,1.5-5.9s-.3-2-.9-2c-1.7-.2-3,3.1-4.3,13.4ZM159.5,15.1c-.2,1.3-.3,2.6-.4,3.8,1.1-1.3,2.5-3.7,3.7-7.2.7-2.2,1.1-4.3,1.1-5.8s-.3-2.2-.8-2.3c-1.2-.4-2.8,6.1-3.5,11.5h-.1Z" fill="#231f20"/>
      <path d="M177.9,24.6c-.4,1-2.2,2.9-4.5,4.2,0,.3-.1.7-.2,1-.8,4.8-1.8,7.5-3,9.2-.9,1.3-2.5,2.4-3.9,2.4s-.9,0-1.3-.4c-.9-.5-1.3-1.6-1.3-2.8s.4-2.5,1.1-3.7c1.3-2.1,3.6-4,6-5.3.4-2.3.7-4.2.7-4.4v-.3s-.1,0-.2.2c-.3.5-2.6,4.2-5.2,3.8-1.8-.3-2.4-2-2.4-3.9s.1-1.8.3-2.7c.5-2.4,1.3-4.7,1.7-4.9.3-.3.5-.3,1-.3s1.2.4,1.1.9c-.1.4-.9,3.7-1.2,5-.2.9-.6,2.6-.6,3.7s.1,1,.4,1.2c.8.4,2.5-.4,4-3,1.6-2.5,2.1-6.5,2.1-6.8s.5-.7,1.3-.7,1.5,0,1.4.8c0,.6-1,6-1.7,10.1,1.8-1.1,3-2.5,3.6-3.6.3-.6.7-.7.8-.4.1.2.1.5,0,1v-.3ZM165.7,35.3c-.6,1.3-.9,2.4-.9,3.3s.3,1.4.8,1.7c1.1.5,3-.4,3.9-4.6.4-1.6.7-3.5,1-5.4-2.1,1.3-3.9,3-4.8,5Z" fill="#231f20"/>
    </g>
  </g>
  <g isolation="isolate">
    <g isolation="isolate">
      <path d="M85.9,36c-.6,1.1-1.2,2.6-1.3,4.9v1c0,1.4,0,3,0,4.7s-.2,3.7-.9,5.7c-1.1,2.9-4.2,6-8.9,6s-.8,0-1.1,0c-5.2-.6-6.3-4-5.9-5.7.3-1.5,1.2-2.1,1.6-2.2.4-.2,1.9,0,2.6.3.7.4.6,1,0,1.4-.5.4-1.2,1.4-1.2,2.3s.5,2.3,2.5,2.8c.4,0,.9,0,1.3,0,1.8,0,3.6-.8,4.6-2.9,1.9-3.9,1-9.8,3.4-15.5,1-2.3,2-3.3,2.4-3.7.2-.2.6-.3.8,0,.2,0,.2.4,0,.9ZM87.7,34.3c-.3,0-.7.2-1,.2-1.8,0-4.1-1.2-5.8-1.8-1-.3-2.2-.6-3.4-.6-1.8,0-3.4.5-4.3,2.1-.4.7-.6,1.4-.6,2,0,1.4.9,2.4,1.5,2.8.7.4,1.5.6,2.3.6s1,0,1.5-.2c.5,0,.8,0,.8,0,0,.2,0,.6-.4.9-.3.3-2.1,1.8-4.2,1.8s-1.3,0-2-.4c-1.5-.7-2.3-2.2-2.3-4s0-.9.2-1.4c.8-3.1,4.1-5.2,7.6-5.2,3.4,0,7.3,1.3,8.6,1.2,1.3,0,1.9-.5,2.1-.7s.7,0,.7.5-.2,2-1.4,2.4v-.2Z" fill="#231f20"/>
      <path d="M98.4,51.5c-.4.6-1.2,1.1-1.9,1.3-.4,0-.8.2-1.1.2-.6,0-1.1,0-1.5-.3-.9-.5-1.4-1.6-1.3-2.9,0-.6,0-.4-.3-.2-.2.3-1,1.3-1.9,3-.8,1.7-1.6,4.3-1.7,4.6s-.5.4-1.3.4-1.4,0-1.3-.5c0-.4.2-3,.6-5.1.3-2.3,1.1-4.8,1.2-5.1.2-.2.6-.3,1.3-.3s1.1.3,1,.7-.3,1.7-.4,2.5c-.2.9-.2,1.8-.3,2.1q0,.2,0,0s0-.2.2-.3c.2-.4,1.1-1.9,1.8-3,.8-1.1,1.3-1.8,1.5-2,.3-.2,1.7-.7,2.2-.3.7.5,0,1.6,0,2.3-.3.7-1,2.2-.5,2.8.3.4,1,.5,1.7.3.6-.2,1.3-.7,1.7-1.1.2-.2.4,0,.6,0,0,0,0,.3-.2.5v.3Z" fill="#231f20"/>
      <path d="M102.3,56.5c-.6.5-1.8,1.3-3.2,1.2-1.3-.2-2.3-1.7-2.3-4s0-1.2.2-1.8c.5-2.4,1.1-4.4,1.5-4.8.4-.5.8-.5,1.2-.5s.9.2,1,.5c.3.6-.5,3-.9,4.7-.2,1.1-.5,2.6-.5,3.6s0,1,.3,1.1c.7.3,1.8-.4,2.5-1.2.7-.7,1.1-1.5,1.3-2,0-.3.3-.3.5-.2,0,0,.2.3,0,.7-.3.8-1.1,2.1-1.9,2.8h.2ZM100.3,42.9c-.8-.2-1.3-1.1-1.1-2,.2-.9,1.1-1.5,1.9-1.3s1.3,1.1,1.1,2c-.2.9-1.1,1.5-1.9,1.3Z" fill="#231f20"/>
      <path d="M114.8,53.7c-.5.6-1.6.8-2.6.8s-.7,0-1,0c-1.3,2.5-3.4,3.7-5.1,3.5-1.9-.3-3-2.2-3-5.7s.4-4.5,1.1-7.5c1.8-7.2,4.7-12,7.5-11.4,1.2.3,1.7,1.2,1.7,2.4s-.8,3.7-1.6,5.4c-1.6,3.4-4,6.9-5.6,8.7-.3,2.1-.5,3.8-.5,5s.3,2.2,1,2.2c1.3,0,2.9-1.1,3.9-2.9-.8-.5-1.6-1.5-1.8-3-.3-2.2.6-4.7,2.3-4.6,1.1,0,1.7,1,1.7,2.6s-.2,2.1-.7,3.4c0,.3-.2.6-.4.9.3,0,.6,0,1,0,.6,0,1.2,0,1.5-.5.6-.5.9-.5.9-.3,0,.2,0,.7-.3,1ZM106.8,45.6c0,.7-.2,1.3-.3,2,1.1-1.2,2.6-3.1,3.7-5.5,1.2-2.3,2.1-4.8,2.1-6.3s-.2-1.3-.8-1.5c-1.7-.6-3.5,3.1-4.8,11.3h.1ZM111.5,50.1c0-1-.3-1.7-.9-1.8-.7,0-1,.9-1,1.9s0,1.1.3,1.6c.2.5.6.9,1.1,1.2v-.2c.3-1,.5-2,.5-2.8h0Z" fill="#231f20"/>
      <path d="M127.2,56.7c-.6.6-1.4,1.4-2.9,1.1-1.5-.2-2.1-1.8-2.1-4s0-.7,0-1c-.4.7-.9,1.6-1.5,2.4-1.2,1.6-2.2,2.9-4,2.7-1.4,0-2.4-1.6-2.4-3.9s0-1.4.3-2.2c.6-2.5,1.5-4.8,1.9-5s.8-.2,1.2-.2.6,0,.7.3c0,0,0,.3,0,.6-.2.8-.7,2.8-1,4.3-.2.9-.6,2.6-.6,3.7s0,1.2.6,1.2c1.1,0,2.6-1.7,3.5-3.3.5-.9,1.2-2.3,1.7-3.4.3-1.5.8-2.8,1.1-3.1.2-.2.8-.2,1.2-.2s1,0,1.1.2v.4c-.2,1-.7,3-.9,4.5-.2,1.2-.5,2.7-.5,3.7s0,1,.3,1.1c.7.3,1.7-.5,2.3-1.4.5-.7,1-1.4,1.2-1.9.1-.3.4-.3.6-.2.1,0,.2.3,0,.7-.4.8-1.3,2.3-1.9,2.8h0Z" fill="#231f20"/>
      <path d="M134.2,56.5c-.9.8-2.2,1.4-3.6,1.2-1.5-.3-2.1-1.7-2.1-3.9s.2-2.9.6-4.6c.2-1.1.6-2.3.8-3.6h-1c-.3,0-.6-.2-.6-.6s.3-.6.6-.6h1.3c.5-2.1,1-3.8,1.2-4.2.4-.7.8-.9,1.2-.8.4,0,1,.5.8,1.3-.1.5-.5,1.9-.9,3.7h1.8c.3,0,.6.2.6.6s-.3.6-.6.6h-2c-.2,1.1-.4,2.3-.7,3.4-.4,2.3-.9,4.6-.9,6.1s.2,1.4.6,1.5c1,.3,2.2-.7,2.8-1.2.5-.7,1.1-1.5,1.3-1.9,0-.2.3-.2.5,0,.1,0,.2.3,0,.7-.3.8-.9,1.7-1.8,2.4h0Z" fill="#231f20"/>
      <path d="M144,57c-1.2.6-2.5.9-3.8.9s-2.6-.3-3.6-1c-1.9-1.2-2.2-3-2-4.3.4-2.7,2.2-4.3,3.9-5.3.9-.5,2.2-.9,3.4-.9s2.1.3,2.6,1.1c.2.3.3.7.3,1.1,0,1.5-1.5,3.3-4.1,4.6-1.4.7-2.5,1-3.2,1.2.2,1.2.9,1.8,1.5,2.1.5.2,1,.3,1.6.3.9,0,1.8-.3,3-.9s2.7-2.3,2.9-2.9c.1-.2.4-.2.5,0s.2.4,0,.8c-.4.7-1.1,2.1-3.2,3.1h.2ZM137.7,51.5c-.2.8-.3,1.4-.3,2,.8,0,2.1-.4,3.1-1.3,1-.9,1.8-2.4,1.8-3.5s-.2-1-.6-1.1c-1.3-.6-3.3.7-4,3.9Z" fill="#231f20"/>
    </g>
  </g>
  <g isolation="isolate">
    <g isolation="isolate">
      <path d="M148,56.5c.2,0,.4,0,.6.2s.2.4.2.6,0,.4-.3.6c-.2.2-.4.2-.6.2s-.4,0-.6-.2c-.2-.2-.3-.4-.3-.6s0-.4.2-.6.4-.2.6-.2h.2Z" fill="#231f20"/>
      <path d="M155.4,53.3c-.2-.3-.5-.5-.7-.6s-.6-.2-.9-.2-.7,0-.9.2c-.3,0-.5.3-.7.5s-.3.5-.4.8c0,.3-.1.6-.1.9s0,.6.2.9c.1.3.2.5.4.8.2.2.4.4.7.5s.6.2.9.2c.7,0,1.2-.3,1.6-.8l.8.7c-.3.4-.7.6-1.1.8-.4.2-.9.2-1.3.2s-.9,0-1.3-.2c-.4-.2-.8-.4-1-.7-.3-.3-.5-.7-.7-1.1-.2-.4-.2-.9-.2-1.3s0-.9.2-1.3c.2-.4.4-.8.7-1.1s.6-.5,1-.7.9-.3,1.3-.3.9,0,1.3.2c.4.2.8.4,1.1.8l-.8.7h-.1Z" fill="#231f20"/>
      <path d="M157.1,54.9c0-.5,0-1,.3-1.4.2-.4.4-.8.7-1.1s.7-.5,1.1-.7.9-.2,1.4-.2.9,0,1.4.2c.4.2.8.4,1.1.7s.5.6.7,1.1c.2.4.3.9.3,1.4s0,1-.3,1.4c-.2.4-.4.8-.7,1.1s-.7.5-1.1.7c-.4.2-.9.2-1.4.2s-.9,0-1.4-.2c-.4-.2-.8-.4-1.1-.7s-.5-.6-.7-1.1c-.2-.4-.3-.9-.3-1.4ZM158.2,54.9c0,.3,0,.6.2.9.1.3.3.5.5.7s.4.4.7.5.6.2.9.2.7,0,.9-.2c.3,0,.5-.3.7-.5s.4-.5.5-.7c.1-.3.2-.6.2-.9s0-.6-.2-.9c-.1-.3-.3-.5-.5-.7s-.4-.4-.7-.5-.6-.2-.9-.2-.7,0-.9.2-.5.3-.7.5-.4.5-.5.7c-.1.3-.2.6-.2.9Z" fill="#231f20"/>
      <path d="M165.5,53.2v-1.5h1v1h0c0-.2.2-.3.3-.4.1,0,.3-.3.5-.4.2,0,.4-.2.6-.3.2,0,.5,0,.7,0s.6,0,.9,0c.2,0,.4.2.6.3.2,0,.3.3.4.4,0,0,.2.3.2.4.2-.4.5-.7.8-.9s.7-.3,1.2-.3.8,0,1.1.2c.3,0,.6.3.7.5.2.2.3.5.4.8,0,.3.1.7.1,1.1v3.9h-1.1v-4.4c0-.2-.1-.4-.2-.6-.1-.2-.3-.3-.5-.4-.2,0-.5,0-.8,0s-.4,0-.6,0c-.2,0-.4.2-.5.4s-.3.4-.4.6c0,.2-.1.5-.1.8v3.7h-1.1v-3.6c0-.7,0-1.2-.3-1.5-.2-.3-.5-.4-.9-.4s-.6,0-.9.2c-.2,0-.5.3-.6.5-.2.2-.3.5-.4.8,0,.3-.1.6-.1,1v3.1h-1.1v-4.9h.1Z" fill="#231f20"/>
    </g>
  </g>
  <path d="M41.1,39.2s1.9,2.5,5.5,5.4,5.6,3.6,5.9,3.8-2.3-4.7-3.8-6.1-8.1-3.8-8.1-3.8" fill="#32271b"/>
  <path d="M39.9,38.7s0,3.9-.3,6.5-1.9,8-2.4,9,1.9-13.8,1.9-15.1.8-.4.8-.4Z" fill="#32271b"/>
  <path d="M39.6,42.1h0v.5c-.5,3-.7,5.8-1.6,9.1-1.7-.3.8-5.9,1.1-8.4.2-1.2-.8-5.6-1.7-6.3l-.4-.4h0c0,.2.3.4.4.6.5,2.1.8,4,.6,6.2-.2,2.5,0,8,0,7.9-.3,1.9-1.2,4.1-2.8,5.3-1.2.9-3.3,1.1-4.7,1.1h-3.5c-1.7-.3-3-.9-4.5-1.5-1.4-.6-2.5-.8-3.5-1.9-.6-.6-1.6-1.3-2-2.1-.4-.7-.5-1.5-.8-2.1-.8-1.5-1.1-3-.8-4.7.4-2,1.5-3.2,2.4-4.9-1.1,0-2.2.6-3.4.6s-2-.7-3-1.5c-1.5-1.2-2.7-2.7-3.9-4.2-.5-.7-1.2-1.5-1.7-2.2-.7-1-1.4-1.6-2.3-2.5-.8-.9-1.6-1.8-2.4-2.8-.8-1.1-.8-1.5-1-2.8-.3-2.7,0-4.1,3-4.9,2.6-.7,5.6-.3,8.2,0,5.7.7,10.9,2.6,16.1,4.8h-1c-.1,0-.3-.1-.4-.2-.1,0-.3-.1-.4-.2v.2h.4c.1,0,.2.2.3.2h.2c.1,0,.3.1.4.2.9.4,1.7.8,2.6,1.2.4.2.8.3,1.2.5l1.7.9h0c0,.2.3.5.6.4h0c0,.3.2.3.4.2h0s0,.2.2.4v-.4h0c.2.1.4.3.6.4v.4h0v-.4c.2.1.4.2.7.4,0,0,2,3.5,2.7,5.6s2.1,6.2,2.1,6.2l-.3.8" fill="#32271b"/>
  <path d="M42.8,40.9l-.8-.5s-1.6-4-2.4-6.1-1.6-6-1.6-6c0-.3.2-.5.3-.7,0,.1,0,.3.2.4h0c0-.2,0-.4-.2-.4,0-.2,0-.5.2-.7h0s0,.2.2.4v-.4h0c.3,0,.3-.2.2-.4h0c.3-.2.3-.4.2-.7h0c.2-.6.4-1.2.7-1.8.2-.4.4-.8.6-1.2.4-.9.8-1.7,1.2-2.6,0-.1,0-.3.2-.4h0v-.6l.3-.3h0s0,.2-.2.3c0,.1,0,.2-.2.4h0c-.2.2-.5.4-.7.6,2.5-5.1,5.3-9.9,9.1-14.2,1.8-2,3.8-4.2,6.2-5.4,2.8-1.3,4-.5,5.5,1.8.8,1.1,1,1.4,1.1,2.8v3.7c0,1.2-.3,2.2,0,3.3,0,.9,0,1.9.2,2.7,0,2,0,3.9-.3,5.8-.2,1.2-.4,2.2-1.3,3.1-.9.8-2.1,1-2.9,1.8,1.7.7,3.4.9,5,2.2,1.4,1.1,2.1,2.4,2.5,4.1.2.7.6,1.4.8,2.2.2.8,0,2-.2,2.9,0,1.5-.8,2.3-1.4,3.7-.7,1.5-1.3,2.8-2.4,4.1-.8.9-1.7,1.6-2.6,2.3-1.1.9-2.8,2.1-4.3,2.2-2,0-4.1-1-5.6-2.2.2,0-3.3-4.3-5-6.1-1.6-1.6-2.5-3.2-3.6-5.1v-.8h0v.5c-.3,1.1,1.8,5,2.7,5.8,1.8,1.7,7.4,4.3,6.3,5.6-2.8-2-4.8-4-7.1-5.9,0-.2-.2-.3-.3-.5h0" fill="#32271b"/>
  <g>
    <circle cx="36" cy="27.2" r="1.2" fill="#32271b"/>
    <path d="M36.2,27.7h0c1.1-.4,2.4.2,2.8,1.3l1.8,4.8c.4,1.1-.2,2.4-1.3,2.8h0c-1.1.4-2.4-.2-2.8-1.3l-1.8-4.8c-.4-1.1.2-2.4,1.3-2.8Z" fill="#32271b"/>
    <path d="M38.1,33.1h0c-1,.4-1.6,1.1-1.4,1.7l4.9,11.2c.2.5,2.5,5.2,3.1,5h0c.6-.2-.7-5.3-.9-5.8l-3.5-11.7c-.2-.6-1.2-.7-2.2-.4Z" fill="#32271b"/>
    <path d="M34.9,26.4s-2.7-2.6-3-2.7-.8,0-.8.1.3.3.6.2,3.6,3,3.6,3c0,0-.4-.6-.4-.6Z" fill="#32271b"/>
    <path d="M36.2,25.9s.4-3.7.5-4,.5-.6.7-.4,0,.4-.3.5-.8,4.6-.8,4.6v-.7h-.1Z" fill="#32271b"/>
    <g id="pzYYIp">
      <g>
        <path d="M39.6,42.1h0v.5c-.5,3-.7,5.8-1.6,9.1-1.7-.3.8-5.9,1.1-8.4.2-1.2-.8-5.6-1.7-6.3l-.4-.4h0c0,.2.3.4.4.6.5,2.1.8,4,.6,6.2-.2,2.5,0,8,0,7.9-.3,1.9-1.2,4.1-2.8,5.3-1.2.9-3.3,1.1-4.7,1.1h-3.5c-1.7-.3-3-.9-4.5-1.5-1.4-.6-2.5-.8-3.5-1.9-.6-.6-1.6-1.3-2-2.1-.4-.7-.5-1.5-.8-2.1-.8-1.5-1.1-3-.8-4.7.4-2,1.5-3.2,2.4-4.9-1.1,0-2.2.6-3.4.6s-2-.7-3-1.5c-1.5-1.2-2.7-2.7-3.9-4.2-.5-.7-1.2-1.5-1.7-2.2-.7-1-1.4-1.6-2.3-2.5-.8-.9-1.6-1.8-2.4-2.8-.8-1.1-.8-1.5-1-2.8-.3-2.7,0-4.1,3-4.9,2.6-.7,5.6-.3,8.2,0,5.7.7,10.9,2.6,16.1,4.8h-1c-.1,0-.3-.1-.4-.2-.1,0-.3-.1-.4-.2v.2h.4c.1,0,.2.2.3.2h.2c.1,0,.3.1.4.2.9.4,1.7.8,2.6,1.2.4.2.8.3,1.2.5l1.7.9h0c0,.2.3.5.6.4h0c0,.3.2.3.4.2h0s0,.2.2.4v-.4h0c.2.1.4.3.6.4v.4h0v-.4c.2.1.4.2.7.4,0,0,2,3.5,2.7,5.6s2.1,6.2,2.1,6.2l-.3.8M26.3,50.1h0v.2c-.3,1-1.1,2.4-.4,3.3.8.9,1.8.5,2.8.3.2-2.3.4-4.4.8-6.6h0c0-.2,0-.3.1-.5.2-.7.4-1.4.6-2-2.3.4-3.2,3.4-3.8,5.2v.2h-.1ZM36.1,42.8h0c0,.2-1.1,4-1.3,5.1-.4,1.8-.9,3.6-1.3,5.3.5.2.9.4,1.2.6,1.5-1,1.7-1.2,1.9-3,.2-1.5.3-3,.5-4.4.3-2.6,1-6.2-.3-8.7-.2,1.7-.5,3.3-.7,4.9,0,0,0,.2,0,.2ZM35.9,30.3v-.2h0s0,.2.2.3c0,0,.2.1.3.2h0l-.3-.3h-.2ZM27.3,38.7h0c0-.2.2-.3.3-.5h-.5c-1.9,0-3.8.6-5.6,1.4-.6.3-1.5.7-1.8,1.4-.3.6,0,2-.2,2.2.9.9,2.7-1.1,3.5-1.7,1.3-.9,2.7-1.6,4-2.4l.2-.2h.1v-.2ZM2.9,24.2l-.5.2c.4.1.7,0,.9-.2h-.4ZM10.3,20.8c-.3,0-.7,0-1-.1v.2c.2,0,.4,0,.6.1.6.1,1.1.5,1.8.3-.4-.4-.9-.4-1.3-.4h-.1ZM18.1,22.6h.8c-.6-.6-1.3-.8-1.7-.6.3.2.6.3.9.5-.1,0-.2.1-.5.2.4.1.6.2,1,.3-.2-.3-.4-.4-.5-.5h0ZM14.8,22v-.2s.1-.1.2-.2c0-.3-1.5-.5-1.7-.5h-.2c.5.4.2.7-.1.9.4,0,2,.8,1.9,0h0ZM11.6,22.6c.1,0,.2-.2.4-.2,0-.1,0-.3.1-.5-.7-.1-1.4-.2-2-.3,0,.4-.2.6-.2.9.6.3,1.2,0,1.7,0h0ZM7.4,27.7l.4.2c1,0,1.8-.4,2.6-1-.5-.4-.8-.8-.5-1.4-1.1,0-2.1.2-3.1.6-.4.5-1.3.6-1.8,1v.6c.6.2,1.1.7,1.8.4h0c0-.1,0-.2.2-.3h.4ZM8.6,24.6h0c0-.4-.1-.7-.2-1.2-1.1,0-4.8.4-4.5,2,.3,2,4.2-.3,5.2-.6-.2,0-.3,0-.5-.1h0ZM33.1,34.6c-1.2-1.1-2.9-.3-4.2,0-1,.3-3.7.6-3.9,2,.4,0,.5.4.9.5.8.3,2.2,0,3-.3h.4c.6-.2,1.3-.5,1.9-.7.7-.3,1.3-.6,2-.9.3-.2.3-.3,0-.5h0ZM11.8,33.7c-.4,2.3,3.7.4,4.6,0,2.3-1,4.5-2.1,6.7-3.2v-.2c-1.2-.3-2.6-.9-3.8-.8-1.4.1-2.9.8-4.2,1.2-.9.3-3.2.6-3.8,1.4-.6.8.2,1.1.5,1.6h0ZM29.9,49.6c-.2.7-.6,2-.5,2.8.1,1,.7,1.2,1.5,1.7.5-.6,1.1,0,1.7-.4.7-2.9.7-6,1.6-9,.4-1.4,3.4-7.3,1.4-7.9-.7,1.3-1.5,2.5-2.3,3.8-.7,1.1-1.7,2.2-1.9,3.5,0,.2-1.1,4-1.5,5.4h0ZM25.6,46.1c1.9.2,4.3-2.6,5.3-3.9,1.6-2,3.4-4.2,4.4-6.5-1.3-.6-3,.8-4.2,1.4-1.1.5-2.5.9-2.9,2.2-.2.5,0,1-.2,1.6-.2.5-.7,1-1,1.4-.8,1.2-1,2.6-1.4,4v-.2ZM18.8,29c-1.6-2.2-7.9-3-9.4-.2-.9,1.8,2.5,2,3.6,1.7,1.9-.4,3.8-1,5.7-1.5h.1ZM26.8,40.1c-3,1.4-5.6,3.3-8.2,5.2,0,.9,0,2.3.8,2.9,1.5-1.5,3-2.8,4.6-4.1.9-.7,3.5-2.7,2.7-4h0ZM26.3,47.1c-1.6,0-4,2.4-4.4,3.9s1.5,2.4,2.9,1.9c.5-1.9,1-3.9,1.5-5.8ZM25.3,43.9c-1.3,1-8.2,5.2-5.4,7.2,1.5,1.1,2.2-1.8,2.9-2.6,1.1-1.5,2.1-2.7,2.5-4.5h0ZM3.5,23.7c1.6.4,4-.8,5.6-1.3-.5-1.4-2.8-1.1-4-.7s-1.2.9-1.6,2ZM10.2,24.7c1.6,0,2-.4,1.8-1.9-.8,0-1.6,0-2.6.1.3.3.4.4.6.5,0,.2-.2.4-.2.5.1.2.3.4.4.7h0ZM16.5,25c-.6,0-3.3-.4-2.6.9.7,1.6,2.3-.3,2.6-.9ZM15.6,24.5c.9.1,1.6,0,1.9-.7-.8-.6-1.7-.7-2.4-.3.2.3.3.6.5,1ZM22.1,37.9c.3.6,2.6.2,1.2-1.1-.7,0-1,.5-1.2,1.1ZM5.8,29.5c.4.5,1.4,1.5,1.6.2.1-.9-1.2-.8-1.6-.2ZM9,33.9c1-.4,1.2-.8.6-1.5-.7.3-1.7.7-.6,1.5ZM29.3,33.8c-.5-.6-2.3,0-1.9.6.8,0,1.4,0,1.9-.6ZM9.8,31.6c-.7-1.1-2.5-.5-1,.5.3-.2.6-.3,1-.5ZM13.4,39.1c-.7-.6-.4-.6-1.7.2.5.6,1.1.5,1.7-.2ZM18.9,39.8c1.1.2,1.6-.4,1.5-1.6-.5.6-1,1-1.5,1.6ZM2,23.9c.9-.2,1.3-.7,1.1-1.3-.8,0-1.4.4-1.1,1.3ZM18,42.8c.3-.4.5-.9.4-1.6-.9.2-1.1.8-.4,1.6ZM32.8,56.4c.4,1,1.8.6,1.2-.4-.4.2-.9,0-1.2.4ZM2.7,25.1c-.4.1-.9,1.2,0,1.1.7,0,.5-.9,0-1.1ZM10.2,35.9c1.4,0,1-1-.1-1,0,.3,0,.6.1,1ZM32.7,54.9h-1.6c.3.7.8.7,1.3.8,0-.2.2-.4.3-.8ZM33.2,54.3c0,.9.2,1.1,1.2.9,0-.5-.4-.8-1.2-.9ZM11.2,38c-.3-.4-.2-1.1-1.1-1-.1,1.3,0,.8,1.1,1ZM30.5,56.3c-1.7,0-1.2.4-.2.9,0-.3.1-.5.2-.9ZM17.3,47.9c.3-.3.3-.7,0-1.4-.8.4-.8.7,0,1.4ZM16.5,46.5c.4-.6.5-.7.4-1.3-.7.3-1,.7-.4,1.3ZM30.7,57.2c.7,0,1.1,0,1.4-.5-.7-.7-1.1,0-1.4.5ZM24.3,24.2v-.2c-.7-.2-1.4-.4-2.2-.5v.2c.7.2,1.4.8,2.2.5ZM1.7,21.7s0-.1-.2-.2c-.2.2-.4.3-.7.6.2,0,.4.1.6.2-.3.1-.5.2-.9.4,1.2.4.7-.3,1.2-1ZM35.2,54.5l.2.2c1.4-.4.7-1.7-.2-.2ZM4.5,30.9c.4.8.6.8,1.1.2-.5-.7-.6-.7-1.1-.2ZM29.4,54.2c-.2,1.1,1.1,1.4,1,.6-.3-.2-.6-.4-1-.6ZM21.2,52.9c-.5.6.4,1.3,1,.9-.2-.5-.6-.7-1-.9ZM4.5,21.1h-1c0,.3-.2.6-.3,1,.6-.1,1-.3,1.3-.9h0ZM28.7,55.2c-.4,0-.7,0-1.1-.2-.4.9.8,1,1.1.2ZM16.7,49.3c.4-.6.3-.8-.6-1.1-.2.5.1.8.6,1.1ZM17.9,44.8h.2c1.3-.5.2-1.7-.2,0ZM7.2,34c.2,1,.4,1.1,1.1.5-.3-.3-.5-.7-1.1-.5ZM27.1,57.1l.2.2c.3,0,.7-.2,1.1-.3-.6-.6-.8-.6-1.2,0h-.1ZM16.7,43.1c-.3.4-.3.8-.2,1.3.7-.5.8-.9.2-1.3ZM25.2,54.4c-.2.7,0,.9.7.9.1-.6,0-.6-.7-.9ZM24,55.8c-.2-.5-.6-.5-1.1-.6.2.5.5,1.2,1.1.6ZM8.7,21.1h0c-.7-.4-1.6-.5-2.1-.1.8,0,1.4.2,2.1.2h0ZM4.3,29.3c-.2-.1-.4-.3-.6-.4-.2.3-.3.5-.4.8.5.2.8.1,1-.4ZM25.1,56.3v.2c.4.3.5.5,1,.2-.3-.5-.4-.4-1-.4ZM20.1,54.1c-.2-.8-.3-.8-.9-.8,0,.6.1.9.9.8ZM22.1,55.5c0-.7-.4-.9-1.1-.7.2.5.6.6,1.1.7ZM5.8,20.5c-.6-.1-1.1-.4-1.6.2.6.3,1,.1,1.6-.2ZM16.9,50.1c.2.3.4.5.5.8.3-.5.2-.8,0-1.2-.2.2-.3.3-.4.4h-.1ZM18.2,52.9h.2c0-.5,0-1-.7-.8.2.3.3.6.5.8ZM35.1,56.4c.4-.2.7-.5.8-.8-.7,0-.9.2-.8.8ZM1.8,26.9c-.2-.3-.5-.5-.9-.3.1.2.2.5.3.7.2-.2.4-.3.6-.5h0ZM3.2,28.8c-.2-.2-.4-.3-.6-.4-.6.6,0,1,.6.4ZM18.5,50.4c-.4.6-.3.7.4,1,.2-.5,0-.8-.4-1ZM20,52.1v.2c.3.3.6.3.9,0,.4-.4,0,0-.1-.2h-.8ZM35.6,35.1c0-.4-.3-.8-.9-.4.3,0,.6.3.9.4ZM18.2,48.5c-.1.5-.2.5.2.8.3-.5.2-.5-.2-.8ZM36,36v.4c.3.2.5.3.7.5,0-.5-.3-.6-.6-.8h-.1ZM5.1,28.6c.3.3.6.3.8,0h-.8ZM2.2,27.1c-.2.3-.3.4-.4.6h0c.2-.1.6-.2.3-.7h.1ZM.7,24.1c0,.3-.2.5-.3.9.5-.3.7-.4.3-.9ZM1.5,25.2h0c-.2-.1-.4.1-.5.2.3.2.5.1.6-.2h0ZM36,33h.2s0-.3-.2-.4h0l.2.4h-.2ZM36.5,34.1h0c0-.2-.2-.3-.3-.2l.3.3h0ZM35.3,32.5h0v-.3h-.2v.3h.2ZM21.6,24.6c.1,0,.1-.2,0-.2s0,.1,0,.2ZM3.1,26.8c.3,0,.5,0,.6-.2.2-.2-.6.2-.6.2Z" fill="#32271b"/>
        <path d="M29.7,26.7c-.9-.4-1.7-.8-2.6-1.2-.1,0-.3-.1-.4-.2h0c.3-.1.6-.1.9-.1h0c0,.4.2.4.5.2.7.3,1.4.6,2.1.9-.1.1-.3.2-.4.3h-.1Z" fill="#32271b"/>
        <path d="M32.6,28.2c-.6-.3-1.1-.6-1.7-.9l.2-.2c.4.2.8.4,1.1.6,0,.2.2.4.4.6h0Z" fill="#32271b"/>
        <path d="M31.1,27l-.2.2c-.4-.2-.8-.3-1.2-.5.1-.1.3-.2.4-.3h.1c.1.4.5.5.9.6h0Z" fill="#32271b"/>
        <path d="M32.6,28.2c0-.2-.2-.4-.4-.6.3.2.6.4.9.7h-.5Z" fill="#32271b"/>
        <path d="M31.1,27c-.4,0-.7-.2-.9-.6.3.2.6.4.9.6Z" fill="#32271b"/>
        <path d="M33.1,28.3c.2.1.4.3.6.4h0s-.3-.1-.4-.2h0v-.3h-.2,0Z" fill="#32271b"/>
        <path d="M28.1,25.4c-.3.1-.4.1-.5-.2.2,0,.3.2.5.2Z" fill="#32271b"/>
        <path d="M23,35.6c-1.4.5-2.9.9-4.2,1.6-1.1.5-2.7,1.8-4,1.6-.9,0-1.4-.8-1.7-1.4-.5-1.2.1-1.7,1.4-2.2,2.9-1.2,5.8-2.7,8.8-3.7,2.6-.9,5.3-.2,7.8.8-.2,0-.4.2-.6.2-1.7.5-3.2,1.3-4.7,2.1-.8.5-1.8.6-2.7.9,0,0,0-.2-.1-.3h-.1v.4s.1,0,.1,0Z" fill="#fc8708"/>
        <path d="M31.4,44.2c.2-1.3,1.2-2.5,1.9-3.5.8-1.3,1.5-2.5,2.3-3.8,2.1.7-.9,6.5-1.4,7.9-.9,2.9-.9,6-1.6,9-.6.5-.8.6-1.7.4-.8-.5-1.4-.7-1.5-1.7,0-.8.3-2.1.5-2.8.4-1.4,1.4-5.1,1.5-5.4h0ZM32.4,48v.2h0v-.2h0ZM33.2,44.8v.2h0v-.2h0Z" fill="#fc8708"/>
        <path d="M20.5,25.2c.1.1,1.9.1,2.2.2,1.5.2,2.8.8,4.2,1.5,2.6,1.1,5.6,2.2,7.3,4.6h-.7c-5.7-1.5-11.4-1.8-16.7-4.7,1.3-.8,2.2-1.1,3.6-1.5h.1Z" fill="#fc8708"/>
        <path d="M25.6,46.1c.4-1.4.6-2.8,1.4-4,.3-.5.8-.9,1-1.4s0-1.1.2-1.6c.5-1.3,1.8-1.6,2.9-2.2,1.1-.6,2.8-1.9,4.2-1.4-1,2.4-2.8,4.5-4.4,6.5-1,1.3-3.4,4.1-5.3,3.9v.2Z" fill="#fc8708"/>
        <path d="M11.8,33.7c-.4-.5-1.1-.8-.5-1.6s2.8-1.1,3.8-1.4c1.3-.4,2.8-1.1,4.2-1.2,1.3-.1,2.6.5,3.8.8v.2c-2.2,1.1-4.4,2.3-6.7,3.2-.9.4-4.9,2.3-4.6,0h0Z" fill="#fc8708"/>
        <path d="M36.2,42.6c.2-1.6.5-3.2.7-4.9,1.3,2.5.5,6.1.3,8.7-.2,1.5-.3,3-.5,4.4-.2,1.8-.5,2-1.9,3-.3-.2-1.3,0-1.2-.6.4-1.8.9-3.6,1.3-5.3.3-1.1,1.3-4.9,1.3-5.1h0s0-.2,0-.2Z" fill="#fc8708"/>
        <path d="M18.8,29c-1.9.5-3.8,1.1-5.7,1.5-1.1.2-4.6,0-3.6-1.7,1.5-2.8,7.7-2,9.4.2h-.1Z" fill="#fc8708"/>
        <path d="M29.5,47.2c-.4,2.2-.6,4.4-.8,6.6-.2.5-2,.6-2.8-.3-.7-.9,0-2.3.4-3.3v-.2h0v-.2c.6-1.8,1.5-4.9,3.8-5.2-.2.7-.4,1.4-.6,2,0,0,0,.2-.1.4h0v.2h.1Z" fill="#fc8708"/>
        <path d="M26.8,40.1c.8,1.3-1.9,3.3-2.7,4-1.7,1.3-3.1,2.6-4.6,4.1s-1.5-2.6-.8-2.9c2.6-1.9,5.2-3.8,8.2-5.2,0,0-.1,0-.1,0Z" fill="#fc8708"/>
        <path d="M27.1,38.9c-1.3.8-2.7,1.6-4,2.4-.8.5-2.8,3-3.6,2.1-.3,0-.2-.6-.2-.8.3-.6.2-1.3.5-1.9.3-.7,1.2-1.1,1.8-1.4,1.8-.9,3.6-1.3,5.6-1.4h.1v.6h0l-.2.2s0,.2,0,.2Z" fill="#fc8708"/>
        <path d="M26.3,47.1c-.5,2-1,3.9-1.5,5.8,0,.8-3.4.3-2.9-1.9s2.7-4,4.4-3.9Z" fill="#fc8708"/>
        <path d="M37.2,51c0-2.5.6-4.9.8-7.4.2-2.2,0-4.1-.6-6.2v-.3c.9.7,1.3,2.1,1.4,3.4.2,1.2.4,1.7.3,2.9-.3,2.5-.8,4.8-1.4,7.2-.2,0-.4.3-.5.4Z" fill="#fc8708"/>
        <path d="M25.3,43.9c-.5,1.9-1.5,3-2.5,4.5-.6.9-1.3,3.7-2.9,2.6-2.8-2,4.1-6.2,5.4-7.2h0Z" fill="#fc8708"/>
        <path d="M28.9,36.8c-.8.3-2.2.6-3,.3-.4,0-.6-.5-.9-.5.2-1.4,2.8-1.7,3.9-2,1.3-.4,3.1-1.2,4.2,0v.5c-.6.3-1.3.6-2,.9-.6.3-1.2.5-1.9.7h-.4,0Z" fill="#fc8708"/>
        <path d="M8.6,24.6c.1,0,.3,0,.5.1-1,.4-4.9,2.6-5.2.6-.2-1.6,3.5-1.9,4.5-2,0,.5.1.9.2,1.2h0Z" fill="#fc8708"/>
        <path d="M3.5,23.7c.4-1.1.4-1.5,1.6-2,1.1-.4,3.5-.7,4,.7-1.6.4-4,1.7-5.6,1.3Z" fill="#fc8708"/>
        <path d="M33.7,31.8h.7c.5,0,.7.4.7.9l-.3.4s-.2-.3-.3-.5c0,.6-.2,1-.3,1.6-1.3-.3-2.3-.5-3.6-.5v-.2s.2-.2.4-.4l-.2-.4c.2,0,.4-.2.6-.2.8-.2,1.6-.5,2.4-.7h-.1Z" fill="#fc8708"/>
        <path d="M6.8,26.1c.9-.4,1.9-.7,3.1-.6-.3.6,0,1.1.5,1.4-.8.6-1.7,1-2.6,1l-.4-.2h0c0-.5,0-1-.5-1.4v-.3h0Z" fill="#eee9e4"/>
        <path d="M10.2,24.7c-.1-.2-.3-.4-.4-.7,0-.2.1-.3.2-.5-.1-.1-.3-.3-.6-.5,1,0,1.8,0,2.6-.1.2,1.4-.2,1.8-1.8,1.9h0Z" fill="#eee9e4"/>
        <path d="M16.5,25c-.4.7-1.9,2.5-2.6.9-.6-1.3,2-1,2.6-.9Z" fill="#fc8708"/>
        <path d="M6.8,26.1v.3c.4.4.4.9.5,1.4h-.3s0,.2-.2.3h0c-.7.3-1.1-.2-1.8-.4v-.6c.5-.4,1.5-.5,1.8-1Z" fill="#fc8708"/>
        <path d="M15.6,24.5c-.2-.4-.4-.7-.5-1,.7-.4,1.7-.3,2.4.3-.3.6-1,.8-1.9.7Z" fill="#eee9e4"/>
        <path d="M22.1,37.9c.2-.6.5-1.1,1.2-1.1,1.4,1.4-.9,1.7-1.2,1.1Z" fill="#eee9e4"/>
        <path d="M11.6,22.6c-.6,0-1.2.2-1.7,0,0-.3.1-.6.2-.9.6,0,1.3.2,2,.3,0,.2,0,.3-.1.5-.1,0-.2.2-.4.2h0Z" fill="#eee9e4"/>
        <path d="M5.8,29.5c.4-.6,1.7-.7,1.6.2-.2,1.3-1.2.3-1.6-.2Z" fill="#eee9e4"/>
        <path d="M14.8,22c0,.7-1.6,0-1.9,0,.4-.2.6-.5.1-.9h.2c.2,0,1.6.2,1.7.5,0,0-.1.1-.2.2h-.4c.2.1.3.2.5.3h0ZM14,21.7h0c-.1-.1-.3-.1-.4-.1h0c.1.1.3.1.4.1Z" fill="#eee9e4"/>
        <path d="M9,33.9c-1.1-.8-.1-1.2.6-1.5.6.7.5,1-.6,1.5Z" fill="#eee9e4"/>
        <path d="M20.5,25.2c-.2,0-.4-.1-.6-.2-.2-.4-.4-.8-.6-1.2.6.2,1.2.3,1.9.5-.2.3-.4.6-.6.9h0Z" fill="#eee9e4"/>
        <path d="M29.3,33.8c-.6.5-1.2.7-1.9.6-.4-.6,1.5-1.2,1.9-.6Z" fill="#eee9e4"/>
        <path d="M9.8,31.6c-.3.2-.7.3-1,.5-1.5-1,.2-1.6,1-.5Z" fill="#eee9e4"/>
        <path d="M13.4,39.1c-.6.7-1.2.8-1.7.2,1.3-.8,1.1-.8,1.7-.2Z" fill="#eee9e4"/>
        <path d="M18.9,39.8c.6-.6,1-1,1.5-1.6,0,1.2-.5,1.8-1.5,1.6Z" fill="#eee9e4"/>
        <path d="M2,23.9c-.2-.9.3-1.3,1.1-1.3.2.6-.2,1.1-1.1,1.3Z" fill="#eee9e4"/>
        <path d="M18,42.8c-.7-.8-.5-1.4.4-1.6,0,.7-.1,1.2-.4,1.6Z" fill="#eee9e4"/>
        <path d="M32.8,56.4c.3-.5.8-.2,1.2-.4.6,1-.8,1.3-1.2.4Z" fill="#eee9e4"/>
        <path d="M2.7,25.1c.4.3.6,1.1,0,1.1s-.3-1,0-1.1Z" fill="#eee9e4"/>
        <path d="M37.6,52.2h0c0,.2-.3.3-.4.5h0v-1.7c.2,0,.4-.3.5-.4" fill="#fc8708"/>
        <path d="M10.2,35.9c0-.3,0-.7-.1-1,1.1,0,1.5.9.1,1Z" fill="#eee9e4"/>
        <path d="M32.7,54.9c-.2.4-.2.6-.3.8-.5,0-1,0-1.3-.8h1.6Z" fill="#eee9e4"/>
        <path d="M33.2,54.3c1,0,1.1.2,1.2.9-1,.3-1.2,0-1.2-.9Z" fill="#eee9e4"/>
        <path d="M11.2,38c-1-.2-1.2.2-1.1-1,.8,0,.7.6,1.1,1Z" fill="#eee9e4"/>
        <path d="M30.5,56.3c-.1.4-.2.7-.2.9-1-.6-1.5-1,.2-.9Z" fill="#eee9e4"/>
        <path d="M17.3,47.9c-.7-.6-.7-1,0-1.4.3.6.3,1.1,0,1.4Z" fill="#eee9e4"/>
        <path d="M16.5,46.5c-.6-.7-.3-1.1.4-1.3.1.6,0,.8-.4,1.3Z" fill="#eee9e4"/>
        <path d="M30.7,57.2c.3-.6.7-1.3,1.4-.5-.2.5-.7.6-1.4.5Z" fill="#eee9e4"/>
        <path d="M24.3,24.2c-.9.3-1.5-.3-2.2-.5v-.2c.7.2,1.4.4,2.2.5v.2Z" fill="#eee9e4"/>
        <path d="M1.7,21.7c-.5.7,0,1.4-1.2,1,.4-.2.6-.3.9-.4-.2,0-.3-.1-.6-.2.3-.2.5-.4.7-.6,0,0,0,.1.2.2Z" fill="#eee9e4"/>
        <path d="M35.2,54.5c.9-1.5,1.6-.3.2.2l-.2-.2Z" fill="#eee9e4"/>
        <path d="M4.5,30.9c.5-.5.6-.5,1.1.2-.5.6-.7.6-1.1-.2Z" fill="#eee9e4"/>
        <path d="M29.4,54.2c.4.2.7.4,1,.6,0,.8-1.2.5-1-.6Z" fill="#eee9e4"/>
        <path d="M21.2,52.9c.4.2.8.4,1,.9-.6.4-1.5-.2-1-.9Z" fill="#eee9e4"/>
        <path d="M4.5,21.1c-.2.7-.7.8-1.3.9,0-.4.2-.7.3-1h1Z" fill="#eee9e4"/>
        <path d="M28.7,55.2c-.2.8-1.4.7-1.1-.2.3,0,.7,0,1.1.2Z" fill="#eee9e4"/>
        <path d="M16.7,49.3c-.4-.2-.7-.5-.6-1.1.8.2,1,.5.6,1.1Z" fill="#eee9e4"/>
        <path d="M17.9,44.8c.4-1.6,1.5-.4.2,0h-.2Z" fill="#eee9e4"/>
        <path d="M7.2,34c.5-.2.8.2,1.1.5-.7.6-.9.5-1.1-.5Z" fill="#eee9e4"/>
        <path d="M27.1,57.1c.4-.6.7-.7,1.2,0-.4,0-.7.2-1.1.3l-.2-.2h.1Z" fill="#eee9e4"/>
        <path d="M16.7,43.1c.6.4.5.8-.2,1.3-.1-.5-.2-.9.2-1.3Z" fill="#eee9e4"/>
        <path d="M25.2,54.4c.5.2.8.5.7.9-.7,0-.9-.2-.7-.9Z" fill="#eee9e4"/>
        <path d="M24,55.8c-.7.6-1,0-1.1-.6.6,0,1,0,1.1.6Z" fill="#eee9e4"/>
        <path d="M8.7,21.1c-.7,0-1.3-.1-2.1-.2.6-.3,1.4-.3,2.1,0h0v.2Z" fill="#fc8708"/>
        <path d="M4.3,29.3c-.3.5-.6.6-1,.4,0-.3.3-.5.4-.8.2.2.4.3.6.4Z" fill="#eee9e4"/>
        <path d="M25.1,56.3c.6,0,.7,0,1,.4-.5.3-.6,0-1.1-.2v-.2h.1Z" fill="#eee9e4"/>
        <path d="M20.1,54.1c-.7,0-.9-.2-.9-.8.6,0,.7,0,.9.8Z" fill="#eee9e4"/>
        <path d="M18.1,22.7c-.3-.2-.6-.3-.9-.5.4-.2,1.1,0,1.7.6h-.8Z" fill="#eee9e4"/>
        <path d="M22.1,55.5c-.5,0-.9-.2-1.1-.7.7-.2,1.1,0,1.1.7Z" fill="#eee9e4"/>
        <path d="M10.3,20.8c.4,0,.9,0,1.3.4-.7.2-1.2-.1-1.8-.3.2,0,.3-.1.5-.2h0Z" fill="#fc8708"/>
        <path d="M5.8,20.5c-.6.3-1,.4-1.6.2.5-.6,1-.3,1.6-.2Z" fill="#eee9e4"/>
        <path d="M16.9,50.1c.2-.2.3-.3.4-.4.3.4.4.8,0,1.2-.2-.3-.3-.5-.5-.8h.1Z" fill="#eee9e4"/>
        <path d="M18.2,52.9c-.2-.3-.3-.5-.5-.8.7-.2.8.3.7.8h-.2Z" fill="#eee9e4"/>
        <path d="M35.1,56.4c0-.6,0-.8.8-.8,0,.5-.2.5-.8.8Z" fill="#eee9e4"/>
        <path d="M1.8,26.9c-.2.1-.3.3-.6.5-.1-.3-.2-.5-.3-.7.4-.2.7,0,.9.3h0Z" fill="#eee9e4"/>
        <path d="M3.2,28.8c-.5.6-1.2.2-.6-.4.2.1.4.3.6.4Z" fill="#eee9e4"/>
        <path d="M18.5,50.4c.3.3.6.5.4,1-.7-.3-.8-.5-.4-1Z" fill="#eee9e4"/>
        <path d="M20,52.1h.7v.2c-.2.3-.5.3-.8,0v-.2h0Z" fill="#eee9e4"/>
        <path d="M34.9,32.3c0,.2,0,.3.2.5v.8h-.4c.2-.2,0-.9,0-.9h0s.2-.4.2-.4Z" fill="#fc8708"/>
        <path d="M35.6,35.1c-.3,0-.5-.2-.9-.4.6-.5.7,0,.9.4Z" fill="#eee9e4"/>
        <path d="M18.2,48.5c.4.4.5.3.2.8-.4-.4-.3-.3-.2-.8Z" fill="#eee9e4"/>
        <path d="M36,36c.3.2.7.4.6.8-.3-.2-.5-.3-.7-.5v-.4h.1Z" fill="#fc8708"/>
        <path d="M5.1,28.6c.3,0,.5-.1.8,0-.3.5-.3.6-.8,0Z" fill="#eee9e4"/>
        <path d="M3.3,24.2c-.2.3-.5.4-.9.2l.5-.2h.4Z" fill="#eee9e4"/>
        <path d="M2.2,27.1c.3.5,0,.6-.3.7h0c0-.2.2-.4.4-.6h-.1Z" fill="#eee9e4"/>
        <path d="M35.1,33.6v-.8c0,.3.2.6.3.9h0l-.2-.2h0Z" fill="#fc8708"/>
        <path d="M10.3,20.8c-.2,0-.3.1-.5.2-.2,0-.4,0-.6-.1v-.2c.3,0,.7,0,1,.1h.1Z" fill="#fc8708"/>
        <path d="M.7,24.1c.4.5.2.6-.3.9,0-.4.2-.6.3-.9Z" fill="#eee9e4"/>
        <path d="M18.1,22.6l.5.5c-.4-.1-.6-.2-1-.3.2-.1.4-.2.5-.2h0Z" fill="#eee9e4"/>
        <path d="M37.4,37.1v.3c0-.2-.3-.4-.4-.6h0l.4.4h0Z" fill="#fc8708"/>
        <path d="M1.5,25.2c-.2.3-.4.3-.6.2.2,0,.4-.2.5-.3h0c0,.1.1,0,.1,0h0Z" fill="#eee9e4"/>
        <path d="M27.3,38.7v-.6h.4c0,.2-.2.3-.3.5h-.1Z" fill="#fc8708"/>
        <path d="M33.1,28.3v.3c-.3,0-.5-.2-.6-.4h.6Z" fill="#32271b"/>
        <path d="M36,33l-.2-.4h0s0,.3.2.4h-.2.2Z" fill="#fc8708"/>
        <path d="M36.5,34.1l-.3-.3c.2,0,.3,0,.3.2h0Z" fill="#fc8708"/>
        <path d="M33.1,35.1v-.5c.3.2.3.3,0,.5Z" fill="#fc8708"/>
        <path d="M14.8,22c-.2,0-.3-.1-.5-.2h0c.1-.1.3-.1.4-.1v.2h.1Z" fill="#fc8708"/>
        <path d="M34.7,33.6" fill="#fc8708"/>
        <path d="M26.1,25.1h-.4v-.2c.1,0,.3.1.4.2h0Z" fill="#32271b"/>
        <path d="M23,35.6v-.4h0s0,.2.1.3h-.1Z" fill="#fc8708"/>
        <path d="M35.9,30.3l.3.3h0s-.2-.1-.3-.2v-.2h0Z" fill="#fc8708"/>
        <path d="M35.3,32.5v-.3h0v.3h0Z" fill="#eee9e4"/>
        <path d="M28.9,36.8h.4-.4Z" fill="#eee9e4"/>
        <path d="M21.6,24.6c-.1,0-.1-.2,0-.2.2,0,.2.1,0,.2Z" fill="#eee9e4"/>
        <path d="M7.4,27.7l.4.2s-.4-.2-.4-.2Z" fill="#fc8708"/>
        <path d="M36.1,42.8v.6-.6Z" fill="#eee9e4"/>
        <path d="M3.3,24.2h-.4.4Z" fill="#fc8708"/>
        <path d="M33.2,28.6s.3.1.4.2c-.2.1-.3,0-.4-.2Z" fill="#32271b"/>
        <path d="M26.7,25.3c.1,0,.3.1.4.2-.1,0-.3-.1-.4-.2Z" fill="#32271b"/>
        <path d="M3.1,26.8l.6-.2c-.3.3-.2.3-.6.2Z" fill="#eee9e4"/>
        <path d="M34.5,29.5c-.2,0-.3-.2,0-.4h0v.4h0Z" fill="#32271b"/>
        <path d="M11.6,22.6c.1,0,.2-.2.4-.2-.1,0-.2.2-.4.2Z" fill="#fff"/>
        <path d="M26.4,25.3c-.1,0-.2-.2-.3-.2h0c.1,0,.3.1.4.2h-.1Z" fill="#32271b"/>
        <path d="M35.9,30.3v.2s0-.2-.2-.3h0v.2h.2Z" fill="#eee9e4"/>
        <path d="M27.1,38.9l.2-.2-.2.2Z" fill="#eee9e4"/>
        <path d="M33.6,28.8h0v.4c0-.2-.2-.3-.2-.4h.2Z" fill="#32271b"/>
        <path d="M29.5,47v-.4.4Z" fill="#eee9e4"/>
        <path d="M36.2,42.6v.2-.2Z" fill="#eee9e4"/>
        <path d="M26.6,25.2h0c0,.1-.2.1-.2.1h.2Z" fill="#32271b"/>
        <path d="M34.5,29.5h0Z" fill="#fc8708"/>
        <path d="M26.3,50.1v.2-.2Z" fill="#eee9e4"/>
        <path d="M26.4,49.9v.2-.2Z" fill="#eee9e4"/>
        <path d="M29.5,47.2h0Z" fill="#eee9e4"/>
        <path d="M6.9,28.1h0Z" fill="#fc8708"/>
        <path d="M27.3,38h-.1.1Z" fill="#eee9e4"/>
        <path d="M33.2,44.8v.2h0v-.2h0Z" fill="#fc8708"/>
        <path d="M32.4,48v.2h0v-.2h0Z" fill="#fc8708"/>
        <path d="M31.4,44.9h0Z" fill="#eee9e4"/>
        <path d="M33.2,44.8h0Z" fill="#fc8708"/>
        <path d="M32.4,48h0Z" fill="#fc8708"/>
        <path d="M11.8,33.7h0Z" fill="#32271b"/>
        <path d="M8.6,24.6h0Z" fill="#32271b"/>
        <path d="M14,21.7h-.4c.1-.1.3-.1.4-.1h0Z" fill="#fc8708"/>
      </g>
    </g>
    <g id="pzYYIp-2">
      <g>
        <path d="M42.8,40.9l-.8-.5s-1.6-4-2.4-6.1-1.6-6-1.6-6c0-.3.2-.5.3-.7,0,.1,0,.3.2.4h0c0-.2,0-.4-.2-.4,0-.2,0-.5.2-.7h0s0,.2.2.4v-.4h0c.3,0,.3-.2.2-.4h0c.3-.2.3-.4.2-.7h0c.2-.6.4-1.2.7-1.8.2-.4.4-.8.6-1.2.4-.9.8-1.7,1.2-2.6,0-.1,0-.3.2-.4h0v-.6l.3-.3h0s0,.2-.2.3c0,.1,0,.2-.2.4h0c-.2.2-.5.4-.7.6,2.5-5.1,5.3-9.9,9.1-14.2,1.8-2,3.8-4.2,6.2-5.4,2.8-1.3,4-.5,5.5,1.8.8,1.1,1,1.4,1.1,2.8v3.7c0,1.2-.3,2.2,0,3.3,0,.9,0,1.9.2,2.7,0,2,0,3.9-.3,5.8-.2,1.2-.4,2.2-1.3,3.1-.9.8-2.1,1-2.9,1.8,1.7.7,3.4.9,5,2.2,1.4,1.1,2.1,2.4,2.5,4.1.2.7.6,1.4.8,2.2.2.8,0,2-.2,2.9,0,1.5-.8,2.3-1.4,3.7-.7,1.5-1.3,2.8-2.4,4.1-.8.9-1.7,1.6-2.6,2.3-1.1.9-2.8,2.1-4.3,2.2-2,0-4.1-1-5.6-2.2.2,0-6.8-6.5-5.9-5.7,1.8,1.7,7.4,4.3,6.3,5.6-2.8-2-4.8-4-7.1-5.9,0-.2-.2-.3-.3-.5h0M57.9,38.2c-1.6-1-4.3-2.7-6.3-1.5.6.4,1.2.8,1.8,1.2,0,0,.2,0,.3.2h0c1.8,1.5,3.3,3,4.9,4.6.9-.4,1.9-.8,1.9-2s-1.6-1.7-2.4-2.3h-.4.2v-.2ZM45.8,39.1c-1.2-1.1-2.4-2.1-3.7-3.2.6,2.7,3.5,5,5.5,6.8,1.1,1,2.2,2,3.3,3,1.3,1.2,1.6,1.2,3.4,1,0-.3.3-.7.5-1.2-1.5-1.1-3-2.1-4.5-3.2-.9-.6-4.2-2.9-4.3-3h-.2s0-.2,0-.2ZM37.9,29.9h0v-.6h0v.6h0ZM50.2,30.4c1.6-.2,3.1-.6,4.7-.8.9-.1,3.7.2,3.7-1-.3,0-1-1.3-1.6-1.6-.7-.3-1.6,0-2.3.1-1.9.5-3.6,1.4-5.2,2.5h0c0,.2,0,.3-.2.4.2,0,.4.1.6.2h.3s0,.2,0,.2ZM58.8,3.7c.3,0,.6,0,.8-.4l-.5.2s-.2,0-.3.2ZM50.5,6.9c.7-.3.9-.9,1.2-1.4,0-.2.2-.3.4-.5h-.2c-.2.3-.4.5-.7.8s-.7.6-.8,1.2h0ZM46.5,12.9c.2-.3.3-.5.5-.9-.3,0-.4.1-.5.1,0-.3.3-.7.4-1-.5.1-.9.7-1,1.6.2-.2.4-.4.6-.6v.7h0ZM50,8.2c-.4,0-.8,0-.7-.6h-.2c0,.2-1,1.3-.9,1.6h.3v.2c.5.6,1.2-1,1.5-1.3h0ZM52.7,6.7c-.2-.2-.5-.3-.8-.6-.4.5-.9,1-1.3,1.5.2.1.3.2.4.3h.4c.4-.4,1-.6,1.3-1.2ZM57.9,9s.2-.1.3-.2c0,0,.2,0,.4.1h0c.7-.2.7-.9,1.1-1.5,0-.1-.2-.3-.3-.5-.7,0-1.4.6-2,.4-1,.3-1.9.7-2.7,1.5.6.3.7.8.5,1.4,1,0,1.9-.4,2.7-.9l.2-.4h-.2ZM54.8,7.8c1-.4,5.4-1.2,4.3-2.9-.9-1.4-3.9.8-4.7,1.4.3.4.5.7.7,1.1h0c0,.1-.2.2-.3.4ZM43.2,31.4c.7-.2,1.4-.4,2.1-.6.6-.2,1.3-.4,1.9-.7,0,0,.3-.1.4-.2.8-.3,2.1-.9,2.5-1.7.2-.4,0-.8.4-1-1.1-.9-3.2.6-4.2,1-1.2.5-3.1,1.1-3.3,2.7,0,.4,0,.5.3.4h-.1ZM58.5,16.4c0-.6.3-1.3-.6-1.6-.9-.3-2.9,1-3.8,1.4-1.3.5-2.9,1-4,1.8-1,.7-1.7,2.1-2.4,3.1v.2c2.4-.6,4.8-1.1,7.2-1.9.9-.3,5.2-1.5,3.4-3,0,0,.2,0,.2,0ZM50.4,37.2c-1-.9-2.5-1.1-3.7-1.5-1.4-.4-2.8-.9-4.2-1.4-1.1,1.8,4.9,4.3,6.2,5.1,2.6,1.6,4.6,4,7,5.8.8,0,.8-1,1.6-.8.3-.9.6-1.5,0-2.3-.4-.7-1.6-1.4-2.3-1.8-1.2-.8-4.5-3-4.6-3.1ZM52.5,32.8c-.5-.2-1.2-.2-1.7-.4-.5-.3-.7-.8-1.2-1-1.2-.6-2.4,0-3.6.3-1.2.3-3.4.4-4,1.7,2.3,1.2,5.1,1.6,7.6,2.1,1.7.3,5.3.9,6.6-.5-1.2-.8-2.2-1.7-3.6-2.1h0ZM55.5,14.9c1-.5,3.5-2.9,1.6-3.7-3-1.2-7.1,3.5-7,6.2,1.8-.8,3.6-1.6,5.4-2.5ZM55.9,32.3h6.2c.3-1-.7-2-1.2-2.7-3.2.2-6.5.5-9.6,1.3.3,1.5,3.6,1.3,4.7,1.3h-.1ZM61.1,39.6c1.4-.5,2.3-2.4,1-3.4-1.3-.9-4.7-1.3-5.9,0,1.6,1.2,3.3,2.3,4.9,3.5h0ZM59.7,34.8c1,.3,3.4,1.9,3.9,0,.9-3.3-7.1-2-8.7-2,1.6,1.1,3.1,1.3,4.9,1.8h0v.2h0ZM55.8,3c-1.1.4-3.1,1.7-2.5,3.1,1.5-.7,4.2-1.3,5.1-2.7-1-.5-1.3-.9-2.5-.4h0ZM53.7,7.8c-.2,0-.3-.2-.5-.3v-.8c-.8.6-1.4,1.1-2,1.6.8,1.2,1.3,1.2,2.6.2v-.8h0ZM51.9,11.9c-.4-1.4-2.2.6-2.6,1,.7.3,3.1.7,2.6-1ZM49.3,10.8c-.8.1-1.5.8-1.7,1.8.7.3,1.3,0,1.9-.7,0-.4-.2-.8-.3-1.1h0ZM51.7,26.2c-.2,2,1.8.7,1.6,0-.6-.3-1.1-.5-1.6,0ZM59.2,10.6c1,.9,1.1-.6,1.1-1.2-.7-.2-1.8.6-1.1,1.2ZM59.4,14c0,.9.3,1.1,1.4.7.3-1.3-.7-1-1.4-.7ZM47.1,27c0-.7-1.9,0-1.8.8.8,0,1.4-.2,1.8-.8ZM59.7,13.3c.5-1.8-1.2-1-1.1.3.4,0,.7-.2,1.1-.3ZM62.3,20.7c-1.5.2-1.3,0-1.4,1,.9.2,1.4-.2,1.4-1ZM54.8,25.5c.8.9,1.5,1,2.2.2-.8,0-1.4-.1-2.2-.2ZM57.8,2.4c.3.6.9.7,1.7.2-.5-.9-1.1-.8-1.7-.2ZM58.4,26.5c.4.5.8.8,1.3.9,0-1.1-.5-1.4-1.3-.9ZM56.2,47.9c.2,1.1,1.5.5,1.1-.5-.5-.2-.7.4-1.1.5ZM60.7,4.8c.6-.5-.4-1-.9-.8,0,.4.3,1.2.9.8ZM60.6,16.2c-.9.7-.6,1.7.5.8-.2-.3-.4-.6-.5-.8ZM57.2,46.6c.4-.4.7-.7.5-1.4-.4.3-.8.6-1.2,1,.4.2.6.3.8.4h0ZM55.3,47.4c.9-.4.9-.7.3-1.4-.5.5-.6,1-.3,1.4ZM61.9,17.8c-.6.5,0,1,0,1.5.6-.8,1-.6,0-1.5ZM59.8,46.3c.4-1.1.5-1.7-.8-.6.4.3.6.4.8.6ZM62.6,29.8c.2.7.5,1,.9,1,0-1,0-1.2-.9-1ZM62.1,28.5c.3.6.5.6,1.2.8,0-.9-.5-1-1.2-.8ZM58,47.1c.5.3.9,0,1.4-.5-.6-.3-1.4-.5-1.4.5ZM44.2,15.5h-.2c-.4.5-.9,1.1-1.3,1.7h0c.8-.2.9-1.1,1.4-1.7h0ZM60,.8c-.4.1-.6.2-.9.3,0-.2.2-.3.3-.5h-.9v.2c.8.3.9,1.1,1.6,0h0ZM54.3,47.7v-.3c-1.7-.6-1.4.8,0,.3ZM61.5,10.4c.8.1.9,0,.7-.9-.7,0-.8,0-.7.9ZM58.1,44.5c.5.6,1.2-.4.4-1.1-.2.4-.3.8-.4,1.1ZM63.6,38.4c.7,0,1-1.2.2-1.3-.2.4-.4.8-.2,1.3ZM57.4,2c-.3-.2-.6-.4-.9-.6-.2.3-.5.5-.7.7.6.3,1,.2,1.6-.1ZM60.3,43c-.2.3-.5.5-.7.8.7.5,1.6-.4.7-.8ZM64.7,30.3c-.5.7-.4,1,.3,1.2.2-.5.2-.9-.3-1.2ZM61.1,29v-.2c-1.3-1-1.4.7,0,.2ZM61.7,14.7c.9,0,1-.2.5-1.1-.6.2-.5.6-.5,1.1ZM61.1,45c.4-.2.7-.3,1-.5v-.3c-.8-.2-1,0-1,.8ZM61.9,27.6c-.2-.4-.5-.8-1-.9-.2.7,0,.9,1,.9ZM61.8,42.1c.6-.4.6-.8,0-1.1-.3.5-.3.8,0,1.1ZM64.1,40c-.4.4-.7.7-.5,1.2.9,0,.7-.7.5-1.2ZM54.1,3.4c-.6,0-1.2.7-1.6,1.4h0c.5-.5.9-1,1.4-1.5h.2,0ZM62.3,7.9c-.3-.1-.5-.2-.9-.3,0,.3,0,.5-.2.7.5.2.8,0,1-.4h.1ZM62.6,43.3c.6,0,.5-.3.7-.9h-.2c-.5.3-.6.3-.5.9ZM65.6,36.2c-.3.3-.3.7,0,1.2.6-.4.6-.7,0-1.2ZM65.2,38.5c-.7.3-.9.8-.4,1.2.3-.4.5-.8.4-1.2ZM55.8,1.6c-.7,0-.9.4-1.3.9.6-.2,1.1-.3,1.3-.9ZM64.6,32.2c0,.5.2.8.7,1v-1h-.7ZM65.9,34.3c-.6.3-.4.7,0,1.1l.2-.2c0-.3,0-.6-.2-.9ZM54.4,48.8c.4.3.5.3,1.1,0-.3-.5-.5-.5-1.1,0ZM62.4,4.7c0-.3-.2-.5-.2-.8-.5,0-.5.4-.5.8h.7ZM62,6.4c0,.2,0,.5-.2.7.8,0,1.1-.6.2-.7ZM64.6,34.6c.4-.7.3-.9-.3-1.1,0,.4,0,.8.3,1.1ZM63.6,36.2v.2c.4,0,.7-.2.8-.5.2-.5,0,0-.2,0s-.4.3-.6.4h0ZM41.7,32.2c-.7,0-.6.4-.4.8,0-.3.3-.5.4-.8ZM63.6,32.7c0-.6,0-.5-.4-.8,0,.6-.2.6.4.8ZM41.7,34.9c0-.3.2-.5.2-.8,0,0-.2,0-.3-.2,0,.4-.3.7,0,1h0ZM59.6,8.7c.4.1.6,0,.6-.5-.3,0-.5.3-.6.5ZM62.1,5.5v-.2c-.2,0-.4,0-.7-.2,0,.6.4.4.7.4ZM61.5,2.4c-.3-.2-.5-.3-.8-.5,0,.6.3.6.8.5ZM61.4,2.9h-.6v.2c.3,0,.5,0,.6-.3h0ZM39.5,31.2h0v.4h.2l-.2-.4ZM40.1,32.4c-.2,0-.2.2,0,.4h0v-.4h0ZM39.7,30.5h0v.3h0v-.3h0ZM45,15.7v.2-.2ZM60,5.8c.3,0,.5,0,.6-.2l-.6.2Z" fill="#32271b"/>
        <path d="M40.4,22.8c.4-.9.8-1.7,1.2-2.6,0-.1,0-.3.2-.4h0c-.2.1-.5.3-.7.5h0c.2.3,0,.4-.2.5-.3.7-.6,1.4-1,2.1h.6,0Z" fill="#32271b"/>
        <path d="M39.1,25.8c.2-.6.4-1.2.7-1.8h-.3c-.2.3-.3.7-.5,1.1v.7h0Z" fill="#32271b"/>
        <path d="M39.5,23.9h.3c.2-.3.4-.8.6-1.2h-.6c.2.5,0,.8-.3,1.1h0Z" fill="#32271b"/>
        <path d="M39.1,25.8v-.7c0,.4-.2.7-.2,1.1h0c0-.1.2-.3.3-.4h0Z" fill="#32271b"/>
        <path d="M39.5,23.9c.2-.3.4-.6.3-1,0,.3-.2.7-.3,1Z" fill="#32271b"/>
        <path d="M38.8,26.2c0,.2,0,.5-.2.7h0c0-.1,0-.2.2-.4h0v-.3h0Z" fill="#32271b"/>
        <path d="M40.8,20.7c.3,0,.4-.2.2-.5,0,.2,0,.3-.2.5Z" fill="#32271b"/>
        <path d="M51.2,25.2c1.4-.5,2.8-1.1,4.2-1.5,1.1-.3,3.2-.3,4.1-1.3.6-.7.5-1.5.3-2.2-.4-1.3-1.2-1.2-2.5-.8-3,.9-6.2,1.8-9.1,2.9-2.6,1-4.2,3.3-5.4,5.6.2,0,.4-.1.6-.2,1.6-.7,3.3-1.1,5-1.5.9-.2,1.8-.7,2.6-1v-.3h0v.4h.2Z" fill="#fc8708"/>
        <path d="M55.1,40.3c.6.4,1.8,1.1,2.3,1.8.6.8.3,1.4,0,2.3-.6.7-.8.8-1.6.8-2.5-1.8-4.4-4.1-7-5.8-1.3-.8-7.3-3.3-6.2-5.1,1.4.5,2.8.9,4.2,1.4,1.2.4,2.7.6,3.7,1.5.3.2,3.4,2.3,4.6,3.1ZM52.1,40.6h0v.2h-.2v-.2h.2ZM49.4,38.8h0v.2h.2-.2v-.2Z" fill="#fc8708"/>
        <path d="M46.4,15.6c0,.2-1.4,1.3-1.6,1.6-1,1.2-1.6,2.5-2.3,3.8-1.2,2.5-2.8,5.3-2.6,8.2.2-.1.4-.3.6-.4,3.4-4.9,7.5-8.8,9.6-14.4-1.5.3-2.4.6-3.8,1.2h0Z" fill="#fc8708"/>
        <path d="M56.1,34.9c-1.2-.8-2.2-1.7-3.6-2.1-.5-.2-1.2-.2-1.7-.4-.5-.3-.7-.8-1.2-1-1.2-.6-2.4,0-3.6.3-1.2.3-3.4.4-4,1.7,2.3,1.2,5.1,1.6,7.6,2.1,1.7.3,5.3.9,6.6-.5h0Z" fill="#fc8708"/>
        <path d="M58.5,16.4c0-.6.3-1.3-.6-1.6-.9-.3-2.9,1-3.8,1.4-1.3.5-2.9,1-4,1.8-1,.7-1.7,2.1-2.4,3.1v.2c2.4-.6,4.8-1.1,7.2-1.9.9-.3,5.2-1.5,3.4-3,0,0,.2,0,.2,0Z" fill="#fc8708"/>
        <path d="M45.8,39.1c-1.2-1.1-2.4-2.1-3.7-3.2.6,2.7,3.5,5,5.5,6.8,1.1,1,2.2,2,3.3,3,1.3,1.2,1.6,1.2,3.4,1,0-.3,1-.8.5-1.2-1.5-1.1-3-2.1-4.5-3.2-.9-.6-4.2-2.9-4.3-3h-.2s0-.2,0-.2Z" fill="#fc8708"/>
        <path d="M57.2,11.2c1.9.8-.6,3.1-1.6,3.7-1.7.9-3.6,1.7-5.4,2.5-.2-2.7,4-7.4,7-6.2Z" fill="#fc8708"/>
        <path d="M53.8,38.2c1.8,1.4,3.3,2.9,4.9,4.5.5.2,1.9-.8,1.9-2s-1.6-1.7-2.4-2.3h-.4c-1.6-1-4.3-2.7-6.3-1.5.6.4,1.2.8,1.8,1.2,0,0,.2,0,.3.2h.2Z" fill="#fc8708"/>
        <path d="M51.2,31.1c.3,1.5,3.6,1.3,4.7,1.3h6.2c1.1,0-.5-2.9-1.2-2.7-3.2.2-6.5.5-9.6,1.3h-.1Z" fill="#fc8708"/>
        <path d="M50.2,30.4c1.6-.2,3.1-.6,4.7-.8.9-.1,4,.5,4.1-.8.2-.2-.3-.6-.3-.7-.6-.3-1-.9-1.6-1.1-.7-.3-1.6,0-2.3.1-1.9.5-3.6,1.4-5.2,2.5h0c0,.3.2.4.4.6h.3v.2s0,0-.1,0Z" fill="#fc8708"/>
        <path d="M56.2,36.1c1.6,1.2,3.3,2.3,4.9,3.5.5.7,2.8-2,1-3.4s-4.7-1.3-5.9,0h0Z" fill="#fc8708"/>
        <path d="M50.5,46.1c-1.7-1.8-3.6-3.4-5.4-5.1-1.6-1.6-2.5-3.2-3.6-5.1,0,0-.2,0-.3-.2-.3,1.1.4,2.4,1.1,3.5.7,1,.8,1.6,1.7,2.4,1.8,1.7,3.7,3.2,5.8,4.6h.7Z" fill="#fc8708"/>
        <path d="M54.8,33c1.6,1.1,3.1,1.3,4.9,1.8,1,.3,3.4,1.9,3.9,0,.9-3.3-7.1-2-8.7-2h0v.2h-.1Z" fill="#fc8708"/>
        <path d="M47.6,29.9c.8-.3,2.1-.9,2.5-1.7.2-.4,0-.8.4-1-1.1-.9-3.2.6-4.2,1-1.2.5-3.1,1.1-3.3,2.7,0,.1.2.3.3.4.7-.2,1.4-.4,2.1-.6.6-.2,1.3-.4,1.9-.7,0,0,.3-.1.4-.2h-.1Z" fill="#fc8708"/>
        <path d="M55,7.4c0,.1-.2.2-.3.4,1-.4,5.4-1.2,4.3-2.9-.9-1.4-3.9.8-4.7,1.4.3.4.5.7.7,1.1h0Z" fill="#fc8708"/>
        <path d="M58.3,3.5c-1-.5-1.3-.9-2.5-.4-1.1.4-3.1,1.7-2.5,3.1,1.5-.7,4.2-1.3,5.1-2.7h0Z" fill="#fc8708"/>
        <path d="M40.7,29.3c-.2.1-.4.3-.6.4-.3.3-.3.7,0,1.1,0,0,1.3.2,1.7.6.7-1.1,1.5-1.9,2.4-2.7h0c-.2-.2-.4-.2-.5-.2v-.4c-.2,0-.4.1-.6.2-.8.3-1.5.7-2.3,1h-.1Z" fill="#fc8708"/>
        <path d="M57.3,7.4c-1,.3-1.9.7-2.7,1.5.6.3.7.8.5,1.4,1,0,1.9-.4,2.7-.9l.2-.4h0c-.3-.4-.6-.8-.5-1.3v-.2h-.2Z" fill="#eee9e4"/>
        <path d="M53.9,8.6v-.8c-.2,0-.3-.2-.5-.3v-.8c-.8.6-1.4,1.1-2,1.6.8,1.2,1.3,1.2,2.6.2h0Z" fill="#eee9e4"/>
        <path d="M49.3,12.9c.7.3,3.1.7,2.6-1-.4-1.4-2.2.6-2.6,1Z" fill="#fc8708"/>
        <path d="M57.3,7.4v.2c0,.5.3.9.6,1.4,0,0,.2-.1.3-.2,0,0,.2,0,.4.1h0c.7-.2.7-.9,1.1-1.5,0-.1-.2-.3-.3-.5-.7,0-1.4.6-2,.4h0Z" fill="#fc8708"/>
        <path d="M49.6,11.9c0-.4-.2-.8-.3-1.1-.8.1-1.5.8-1.7,1.8.7.3,1.3,0,1.9-.7h0Z" fill="#eee9e4"/>
        <path d="M53.4,26.3c-.6-.3-1.1-.5-1.6,0-.2,2,1.8.7,1.6,0Z" fill="#eee9e4"/>
        <path d="M51.4,7.9c.4-.4,1-.6,1.3-1.2-.2-.2-.5-.3-.8-.6-.4.5-.9,1-1.3,1.5.2.1.3.2.4.3,0,0,.4,0,.4,0Z" fill="#eee9e4"/>
        <path d="M60.3,9.4c-.7-.2-1.8.6-1.1,1.2,1,.9,1.1-.6,1.1-1.2Z" fill="#eee9e4"/>
        <path d="M48.8,9h0c0,.1-.2.2-.2.3h-.3c0-.3.8-1.4.9-1.5h.2c0,.5.3.6.7.5-.2.3-1,1.9-1.5,1.3,0-.2.2-.3.3-.5h-.1ZM49.2,8.4h0c0,.1-.2.2-.2.3h0c0-.1.2-.2.2-.3Z" fill="#eee9e4"/>
        <path d="M60.8,14.8c.3-1.3-.7-1-1.4-.7,0,.9.3,1.1,1.4.7Z" fill="#eee9e4"/>
        <path d="M46.4,15.7c0-.2.2-.4.4-.6,0-.4-.2-.8-.3-1.4-.3.5-.7,1-1.1,1.6.4.1.7.2,1,.3h0Z" fill="#eee9e4"/>
        <path d="M45.2,27.9c.8,0,1.4-.2,1.8-.8,0-.7-1.9,0-1.8.8Z" fill="#eee9e4"/>
        <path d="M58.7,13.5c.4,0,.7-.2,1.1-.3.5-1.8-1.2-1-1.1.3Z" fill="#eee9e4"/>
        <path d="M60.8,21.6c.9.2,1.4-.2,1.4-1-1.5.2-1.3,0-1.4,1Z" fill="#eee9e4"/>
        <path d="M57,25.7c-.8,0-1.4-.1-2.2-.2.8.9,1.5,1,2.2.2Z" fill="#eee9e4"/>
        <path d="M59.5,2.6c-.5-.9-1.1-.8-1.7-.2.3.6.9.7,1.7.2Z" fill="#eee9e4"/>
        <path d="M59.7,27.5c0-1.1-.5-1.4-1.3-.9.4.5.8.8,1.3.9Z" fill="#eee9e4"/>
        <path d="M57.3,47.4c-.5-.2-.7.4-1.1.5.2,1.1,1.5.5,1.1-.5Z" fill="#eee9e4"/>
        <path d="M59.8,4c0,.4.3,1.2.9.8.6-.5-.4-1-.9-.8Z" fill="#eee9e4"/>
        <path d="M51,47.3h.6l-1.2-1.2h-.7" fill="#fc8708"/>
        <path d="M61.2,17.1c-.2-.3-.4-.6-.5-.8-.9.7-.6,1.7.5.8Z" fill="#eee9e4"/>
        <path d="M56.4,46.2c.4.2.6.3.8.4.4-.4.7-.7.5-1.4-.4.3-.8.6-1.2,1h0Z" fill="#eee9e4"/>
        <path d="M55.6,46c-.5.5-.6,1-.3,1.4.9-.4.9-.7.3-1.4Z" fill="#eee9e4"/>
        <path d="M61.8,19.3c.6-.8,1-.6,0-1.5-.6.5,0,1,0,1.5Z" fill="#eee9e4"/>
        <path d="M59,45.7c.4.3.6.4.8.6.4-1.1.5-1.7-.8-.6Z" fill="#eee9e4"/>
        <path d="M63.5,30.8c0-1,0-1.2-.9-1,.2.7.5,1,.9,1Z" fill="#eee9e4"/>
        <path d="M63.3,29.2c0-.9-.5-1-1.2-.8.3.6.5.6,1.2.8Z" fill="#eee9e4"/>
        <path d="M59.4,46.6c-.6-.3-1.4-.5-1.4.5.5.3.9,0,1.4-.5Z" fill="#eee9e4"/>
        <path d="M42.8,17.3c.8-.3.9-1.2,1.4-1.8h-.2c-.4.5-.9,1.1-1.3,1.7h0Z" fill="#eee9e4"/>
        <path d="M58.4.8c.8.3.9,1.1,1.6,0-.4.1-.6.2-.9.3,0-.2.2-.3.3-.5h-.9v.2h0Z" fill="#eee9e4"/>
        <path d="M54.3,47.5c-1.7-.6-1.4.8,0,.3v-.3Z" fill="#eee9e4"/>
        <path d="M62.2,9.6c-.7,0-.8,0-.7.9.8.1.9,0,.7-.9Z" fill="#eee9e4"/>
        <path d="M58.5,43.4c-.2.4-.3.8-.4,1.1.5.6,1.2-.4.4-1.1Z" fill="#eee9e4"/>
        <path d="M63.8,37.1c-.2.4-.4.8-.2,1.3.7,0,1-1.2.2-1.3Z" fill="#eee9e4"/>
        <path d="M55.8,2.1c.6.3,1,.2,1.6,0-.3-.2-.6-.4-.9-.6-.2.3-.5.5-.7.7h0Z" fill="#eee9e4"/>
        <path d="M59.6,43.8c.7.5,1.6-.4.7-.8-.2.3-.5.5-.7.8Z" fill="#eee9e4"/>
        <path d="M64.9,31.5c.2-.5.2-.9-.3-1.2-.5.7-.4,1,.3,1.2Z" fill="#eee9e4"/>
        <path d="M61.1,28.8c-1.3-1-1.4.7,0,.2v-.2Z" fill="#eee9e4"/>
        <path d="M62.2,13.7c-.6.2-.5.6-.5,1.1.9,0,1-.2.5-1.1Z" fill="#eee9e4"/>
        <path d="M62.1,44.2c-.8-.2-1,0-1,.8.4-.2.7-.3,1-.5v-.3Z" fill="#eee9e4"/>
        <path d="M60.9,26.7c-.2.7,0,.9,1,.9-.2-.4-.5-.8-1-.9Z" fill="#eee9e4"/>
        <path d="M61.8,40.9c-.3.5-.3.8,0,1.1.6-.4.6-.8,0-1.1Z" fill="#eee9e4"/>
        <path d="M63.6,41.2c.9,0,.7-.7.5-1.2-.4.4-.7.7-.5,1.2Z" fill="#eee9e4"/>
        <path d="M52.7,4.9c.5-.5.9-1,1.4-1.5-.6,0-1.2.7-1.6,1.4h.2,0Z" fill="#fc8708"/>
        <path d="M61.3,8.2c.5.2.8,0,1-.4-.3-.1-.5-.2-.9-.3,0,.3,0,.5-.2.7h.1Z" fill="#eee9e4"/>
        <path d="M63.1,42.3c-.5.4-.6.4-.5,1,.6,0,.5-.3.7-.9h-.2Z" fill="#eee9e4"/>
        <path d="M65.5,37.3c.6-.4.6-.7,0-1.2-.3.3-.3.7,0,1.2Z" fill="#eee9e4"/>
        <path d="M46.5,12.2c0-.3.3-.7.4-1-.5.1-.9.7-1,1.6.2-.2.4-.4.6-.6h0Z" fill="#eee9e4"/>
        <path d="M64.9,39.7c.3-.4.5-.8.4-1.2-.7.3-.9.8-.4,1.2Z" fill="#eee9e4"/>
        <path d="M51.3,5.7c-.3.3-.7.6-.8,1.2.7-.3.9-.9,1.2-1.4-.2,0-.3,0-.5.2h0Z" fill="#fc8708"/>
        <path d="M54.5,2.6c.6-.2,1.1-.3,1.3-.9-.7,0-.9.4-1.3.9Z" fill="#eee9e4"/>
        <path d="M65.3,32.2h-.6c0,.5.2.8.7,1v-1h0Z" fill="#eee9e4"/>
        <path d="M66.1,35.2c0-.3,0-.6-.2-.9-.6.3-.4.7,0,1.1,0,0,.2-.2.2-.2Z" fill="#eee9e4"/>
        <path d="M55.5,48.9c-.3-.5-.5-.5-1.1,0,.4.3.5.3,1.1,0Z" fill="#eee9e4"/>
        <path d="M61.6,4.8h.7c0-.3-.2-.5-.2-.8-.5,0-.5.4-.5.8Z" fill="#eee9e4"/>
        <path d="M61.8,7.1c.8,0,1.1-.6.2-.7,0,.2,0,.5-.2.7Z" fill="#eee9e4"/>
        <path d="M64.3,33.5c0,.4,0,.8.3,1.1.4-.7.3-.9-.3-1.1Z" fill="#eee9e4"/>
        <path d="M64.2,35.8c-.2,0-.4.3-.6.4v.2c.4,0,.7-.2.8-.5.2-.5,0,0-.2-.1Z" fill="#eee9e4"/>
        <path d="M40.5,30.5h-.5s0,.2.2.4c.2.2.3.4.5.6,0,0,.2-.2.3-.2-.3,0-.4,0-.3-.4,0-.1,0-.2-.2-.4Z" fill="#fc8708"/>
        <path d="M41.3,33c0-.3.3-.5.4-.8-.7,0-.6.4-.4.8Z" fill="#eee9e4"/>
        <path d="M63.3,31.9c0,.6-.2.6.4.8,0-.6,0-.5-.4-.8Z" fill="#eee9e4"/>
        <path d="M41.6,33.9c0,.4-.3.7,0,1,0-.3.2-.5.2-.8,0,0-.2,0-.3-.2h0Z" fill="#fc8708"/>
        <path d="M60.2,8.2c-.3,0-.5.3-.6.5.4.1.6,0,.6-.5Z" fill="#eee9e4"/>
        <path d="M58.8,3.7c.3,0,.6,0,.8-.4l-.5.2s-.2,0-.3.2Z" fill="#eee9e4"/>
        <path d="M61.5,5.1c0,.6.4.4.7.4v-.2c-.2,0-.4,0-.7-.2Z" fill="#eee9e4"/>
        <path d="M40.7,31.5c-.2-.2-.3-.4-.5-.6,0,.3.3.6.4.9h0v-.3h0Z" fill="#fc8708"/>
        <path d="M51.3,5.7c.2,0,.3,0,.5-.2,0-.2.2-.3.4-.5h-.2c-.2.3-.4.5-.7.8h0Z" fill="#fc8708"/>
        <path d="M60.7,1.9c0,.6.3.6.8.5-.3-.2-.5-.3-.8-.5Z" fill="#eee9e4"/>
        <path d="M46.5,12.1v.7c.2-.3.3-.5.5-.9-.3,0-.4.1-.5.1h0Z" fill="#eee9e4"/>
        <path d="M41.2,35.7s.2,0,.3.2v-.8h0v.5h-.3Z" fill="#fc8708"/>
        <path d="M60.8,3.2c.3,0,.5,0,.6-.3h-.6v.2h0Z" fill="#eee9e4"/>
        <path d="M49.9,30.3c0-.2-.2-.3-.4-.5,0,.1,0,.2-.2.3.2,0,.4.1.6.2Z" fill="#fc8708"/>
        <path d="M38.8,26.2v.3c.3-.2.3-.4.2-.7l-.3.4h0Z" fill="#32271b"/>
        <path d="M39.7,31.7l-.2-.4h0v.4h.2Z" fill="#fc8708"/>
        <path d="M40,32.8v-.4c-.2,0-.2.2,0,.4h0Z" fill="#fc8708"/>
        <path d="M43.2,31.4s-.2-.3-.3-.4c0,.4,0,.5.3.4Z" fill="#fc8708"/>
        <path d="M48.6,9.5c0-.2.2-.3.3-.5h0c0,.1-.2.2-.2.3v.2h0Z" fill="#fc8708"/>
        <path d="M40.8,30.9c0,.3,0,.4.3.4,0,0-.2-.3-.3-.4Z" fill="#fc8708"/>
        <path d="M42,19.2l.3-.3h0s0,.2-.2.3h0Z" fill="#32271b"/>
        <path d="M51.2,25.2v-.4h-.3v.3h.3Z" fill="#fc8708"/>
        <path d="M38,29.5v.4h0v-.3h0Z" fill="#fc8708"/>
        <path d="M39.8,30.8v-.3h0v.3h0Z" fill="#eee9e4"/>
        <path d="M47.6,29.9s-.3.1-.4.2c0,0,.3-.1.4-.2Z" fill="#eee9e4"/>
        <path d="M45.2,15.9v-.2.2Z" fill="#eee9e4"/>
        <path d="M58,9l-.2.4.2-.4Z" fill="#fc8708"/>
        <path d="M45.9,39.2l.3.4-.3-.4Z" fill="#eee9e4"/>
        <path d="M58.8,3.7s.2,0,.3-.2c0,0-.2,0-.3.2Z" fill="#fc8708"/>
        <path d="M38.9,26.5c0,.1,0,.3-.2.4.3,0,.3-.2.2-.4Z" fill="#32271b"/>
        <path d="M41.8,19.7c0,.1,0,.3-.2.4,0-.1,0-.3.2-.4Z" fill="#32271b"/>
        <path d="M60.6,5.5l-.6.2c.3,0,.5,0,.6-.2Z" fill="#eee9e4"/>
        <path d="M38.5,28.1c0-.2,0-.4-.2-.4h0c0,.1,0,.3.2.4h0Z" fill="#32271b"/>
        <path d="M51.4,7.9h-.4.4Z" fill="#fff"/>
        <path d="M41.9,19.6v-.4h0c0,.1,0,.2-.2.4h.2Z" fill="#32271b"/>
        <path d="M38,29.5h0v-.3h0v.2h0Z" fill="#eee9e4"/>
        <path d="M50.2,30.4h-.3.3Z" fill="#eee9e4"/>
        <path d="M38.7,26.9h0s0,.1.2.4v-.4h-.2Z" fill="#32271b"/>
        <path d="M53.7,38.1l-.3-.2.3.2Z" fill="#eee9e4"/>
        <path d="M45.8,39.1h.2-.2Z" fill="#eee9e4"/>
        <path d="M41.7,19.6h0c0,.1,0,0,0-.1h0Z" fill="#32271b"/>
        <path d="M38.5,28.1h0Z" fill="#fc8708"/>
        <path d="M58.1,38.3h.2-.2Z" fill="#eee9e4"/>
        <path d="M57.9,38.2h.2-.2Z" fill="#eee9e4"/>
        <path d="M53.8,38.2" fill="#eee9e4"/>
        <path d="M58.6,9h0Z" fill="#fc8708"/>
        <path d="M49.6,29.8h0s0,0,0,0Z" fill="#eee9e4"/>
        <path d="M49.4,38.8v.2h.2-.2v-.2Z" fill="#fc8708"/>
        <path d="M52.2,40.7v.2h-.2v-.2h.2Z" fill="#fc8708"/>
        <path d="M50.9,37.7h0Z" fill="#eee9e4"/>
        <path d="M49.4,38.9h0Z" fill="#fc8708"/>
        <path d="M52.2,40.7h0Z" fill="#fc8708"/>
        <path d="M58.5,16.4h0Z" fill="#32271b"/>
        <path d="M55,7.4h0Z" fill="#32271b"/>
        <path d="M49,8.7c0-.1.2-.2.2-.3h0c0,.1-.2.2-.2.3h0Z" fill="#fc8708"/>
      </g>
    </g>
  </g>
  <path d="M37,14.4c-1.4,2.4-3.5,6.2-3.5,6.2,0,0-4-1.5-6.6-2.4-2.7-.9-5.3-2.5-6.2-5.1s-.3-5.8,2.9-6.9,5.2,1.4,5.2,1.4c0,0-.1-3.3,3-4.4,3.1-1.1,5.7.8,6.7,3.4,1,2.6,0,5.5-1.4,7.9h0Z" fill="#ec4097"/>
  <path d="M19.7,22.1c5.1,1.5,11.3,3.9,15.9,7.7,4.6,3.8-2.4,0-2.4,0l-9-5.6" fill="#32271b"/>
  <path d="M37.6,29.9v-.3c.2-1.4,1.1-5.7,4.3-11.4s-.4.9-.2,1.4-3.1,8.6-2.8,9.4,1.2,3,1.3,3.5-.3,2.2-.7,1.8" fill="#32271b"/>
</svg>