<?xml version="1.0" encoding="UTF-8"?>
<svg id="Layer_1" xmlns="http://www.w3.org/2000/svg" baseProfile="tiny" version="1.2" viewBox="0 0 180 60">
  <!-- Generator: Adobe Illustrator 30.1.0, SVG Export Plug-In . SVG Version: 2.1.1 Build 136)  -->
  <g>
    <circle cx="36.6" cy="28.1" r="1.2" fill="#32271b"/>
    <path d="M36.8,28.6h0c1.1-.4,2.4.2,2.8,1.3l1.8,4.8c.4,1.1-.2,2.4-1.3,2.8h0c-1.1.4-2.4-.2-2.8-1.3l-1.8-4.8c-.4-1.1.2-2.4,1.3-2.8Z" fill="#32271b"/>
    <path d="M38.7,34h0c-1,.4-1.6,1.1-1.4,1.7l4.9,11.2c.2.5,2.5,5.2,3.1,5h0c.6-.2-.7-5.3-.9-5.8l-3.5-11.7c-.2-.6-1.2-.7-2.2-.4Z" fill="#32271b"/>
    <path d="M35.5,27.3s-2.7-2.6-3-2.7-.8,0-.8.1.3.3.6.2,3.6,3,3.6,3c0,0-.4-.6-.4-.6Z" fill="#32271b"/>
    <path d="M36.8,26.8s.4-3.7.5-4,.5-.6.7-.4,0,.4-.3.5-.8,4.6-.8,4.6v-.7h-.1Z" fill="#32271b"/>
    <g id="pzYYIp">
      <g>
        <path d="M40.2,43h0v.5c-.5,3-.7,5.8-1.6,9.1-1.7-.3.8-5.9,1.1-8.4.2-1.2-.8-5.6-1.7-6.3l-.4-.4h0c0,.2.3.4.4.6.5,2.1.8,4,.6,6.2-.2,2.5,0,8,0,7.9-.3,1.9-1.2,4.1-2.8,5.3-1.2.9-3.3,1.1-4.7,1.1s-2.3,0-3.5,0c-1.7-.3-3-.9-4.5-1.5-1.4-.6-2.5-.8-3.5-1.9-.6-.6-1.6-1.3-2-2.1-.4-.7-.5-1.5-.8-2.1-.8-1.5-1.1-3-.8-4.7.4-2,1.5-3.2,2.4-4.9-1.1,0-2.2.6-3.4.6s-2-.7-3-1.5c-1.5-1.2-2.7-2.7-3.9-4.2-.5-.7-1.2-1.5-1.7-2.2-.7-1-1.4-1.6-2.3-2.5-.8-.9-1.6-1.8-2.4-2.8-.8-1.1-.8-1.5-1-2.8-.3-2.7,0-4.1,3-4.9,2.6-.7,5.6-.3,8.2,0,5.7.7,10.9,2.6,16.1,4.8h-1c-.1,0-.3-.1-.4-.2-.1,0-.3-.1-.4-.2v.2h.4c.1,0,.2.2.3.2h.2c.1,0,.3.1.4.2.9.4,1.7.8,2.6,1.2.4.2.8.3,1.2.5l1.7.9h0c0,.2.3.5.6.4h0c0,.3.2.3.4.2h0s0,.2.2.4v-.4h0c.2.1.4.3.6.4,0,.2,0,.3,0,.4h0c0-.1,0-.3,0-.4.2.1.4.2.7.4,0,0,2,3.5,2.7,5.6s2.1,6.2,2.1,6.2l-.3.8M26.9,51h0v.2c-.3,1-1.1,2.4-.4,3.3.8.9,1.8.5,2.8.3.2-2.3.4-4.4.8-6.6h0c0-.2,0-.3.1-.5.2-.7.4-1.4.6-2-2.3.4-3.2,3.4-3.8,5.2v.2h-.1ZM36.7,43.7h0c0,.2-1.1,4-1.3,5.1-.4,1.8-.9,3.6-1.3,5.3.5.2.9.4,1.2.6,1.5-1,1.7-1.2,1.9-3,.2-1.5.3-3,.5-4.4.3-2.6,1-6.2-.3-8.7-.2,1.7-.5,3.3-.7,4.9,0,0,0,.2,0,.2ZM36.5,31.2s0-.1,0-.2h0s0,.2.2.3c0,0,.2.1.3.2h0l-.3-.3h-.1ZM27.9,39.6h0c0-.2.2-.3.3-.5-.1,0-.2,0-.4,0h-.1c-1.9,0-3.8.6-5.6,1.4-.6.3-1.5.7-1.8,1.4-.3.6,0,2-.2,2.2.9.9,2.7-1.1,3.5-1.7,1.3-.9,2.7-1.6,4-2.4l.2-.2h.1ZM3.5,25.1l-.5.2c.4.1.7,0,.9-.2h-.4ZM10.9,21.7c-.3,0-.7,0-1-.1v.2c.2,0,.4,0,.6.1.6.1,1.1.5,1.8.3-.4-.4-.9-.4-1.3-.4h-.1ZM18.7,23.5h.8c-.6-.6-1.3-.8-1.7-.6.3.2.6.3.9.5-.1,0-.2.1-.5.2.4.1.6.2,1,.3-.2-.3-.4-.4-.5-.5h0ZM15.4,22.9v-.2s.1-.1.2-.2c0-.3-1.5-.5-1.7-.5h-.2c.5.4.2.7-.1.9.4,0,2,.8,1.9,0h0ZM12.2,23.5c.1,0,.2-.2.4-.2,0-.1,0-.3.1-.5-.7-.1-1.4-.2-2-.3,0,.4-.2.6-.2.9.6.3,1.2,0,1.7,0h0ZM8,28.6l.4.2c1,0,1.8-.4,2.6-1-.5-.4-.8-.8-.5-1.4-1.1,0-2.1.2-3.1.6-.4.5-1.3.6-1.8,1v.6c.6.2,1.1.7,1.8.4h0c0-.1,0-.2.2-.3h.4ZM9.2,25.5h0c0-.4-.1-.7-.2-1.2-1.1,0-4.8.4-4.5,2,.3,2,4.2-.3,5.2-.6-.2,0-.3,0-.5-.1h0ZM33.7,35.5c-1.2-1.1-2.9-.3-4.2,0-1,.3-3.7.6-3.9,2,.4,0,.5.4.9.5.8.3,2.2,0,3-.3.1,0,.3,0,.4,0,.6-.2,1.3-.5,1.9-.7.7-.3,1.3-.6,2-.9.3-.2.3-.3,0-.5h0ZM12.4,34.6c-.4,2.3,3.7.4,4.6,0,2.3-1,4.5-2.1,6.7-3.2v-.2c-1.2-.3-2.6-.9-3.8-.8-1.4.1-2.9.8-4.2,1.2-.9.3-3.2.6-3.8,1.4-.6.8.2,1.1.5,1.6h0ZM30.5,50.5c-.2.7-.6,2-.5,2.8.1,1,.7,1.2,1.5,1.7.5-.6,1.1,0,1.7-.4.7-2.9.7-6,1.6-9,.4-1.4,3.4-7.3,1.4-7.9-.7,1.3-1.5,2.5-2.3,3.8-.7,1.1-1.7,2.2-1.9,3.5,0,.2-1.1,4-1.5,5.4h0ZM26.2,47c1.9.2,4.3-2.6,5.3-3.9,1.6-2,3.4-4.2,4.4-6.5-1.3-.6-3,.8-4.2,1.4-1.1.5-2.5.9-2.9,2.2-.2.5,0,1-.2,1.6-.2.5-.7,1-1,1.4-.8,1.2-1,2.6-1.4,4v-.2ZM19.4,29.9c-1.6-2.2-7.9-3-9.4-.2-.9,1.8,2.5,2,3.6,1.7,1.9-.4,3.8-1,5.7-1.5h.1ZM27.4,41c-3,1.4-5.6,3.3-8.2,5.2,0,.9,0,2.3.8,2.9,1.5-1.5,3-2.8,4.6-4.1.9-.7,3.5-2.7,2.7-4h0ZM26.9,48c-1.6,0-4,2.4-4.4,3.9s1.5,2.4,2.9,1.9c.5-1.9,1-3.9,1.5-5.8ZM25.9,44.8c-1.3,1-8.2,5.2-5.4,7.2,1.5,1.1,2.2-1.8,2.9-2.6,1.1-1.5,2.1-2.7,2.5-4.5h0ZM4.1,24.6c1.6.4,4-.8,5.6-1.3-.5-1.4-2.8-1.1-4-.7s-1.2.9-1.6,2ZM10.8,25.6c1.6,0,2-.4,1.8-1.9-.8,0-1.6,0-2.6.1.3.3.4.4.6.5,0,.2-.2.4-.2.5.1.2.3.4.4.7h0ZM17.1,25.9c-.6,0-3.3-.4-2.6.9.7,1.6,2.3-.3,2.6-.9ZM16.2,25.4c.9.1,1.6,0,1.9-.7-.8-.6-1.7-.7-2.4-.3.2.3.3.6.5,1ZM22.7,38.8c.3.6,2.6.2,1.2-1.1-.7,0-1,.5-1.2,1.1ZM6.4,30.4c.4.5,1.4,1.5,1.6.2.1-.9-1.2-.8-1.6-.2ZM9.6,34.8c1-.4,1.2-.8.6-1.5-.7.3-1.7.7-.6,1.5ZM29.9,34.7c-.5-.6-2.3,0-1.9.6.8,0,1.4,0,1.9-.6ZM10.4,32.5c-.7-1.1-2.5-.5-1,.5.3-.2.6-.3,1-.5ZM14,40c-.7-.6-.4-.6-1.7.2.5.6,1.1.5,1.7-.2ZM19.5,40.7c1.1.2,1.6-.4,1.5-1.6-.5.6-1,1-1.5,1.6ZM2.6,24.8c.9-.2,1.3-.7,1.1-1.3-.8,0-1.4.4-1.1,1.3ZM18.6,43.7q.5-.6.4-1.6c-.9.2-1.1.8-.4,1.6ZM33.4,57.3c.4,1,1.8.6,1.2-.4-.4.2-.9,0-1.2.4ZM3.3,26c-.4.1-.9,1.2,0,1.1.7,0,.5-.9,0-1.1ZM10.8,36.8c1.4,0,1-1-.1-1,0,.3,0,.6.1,1ZM33.3,55.8h-1.6c.3.7.8.7,1.3.8,0-.2.2-.4.3-.8ZM33.8,55.2c0,.9.2,1.1,1.2.9,0-.7,0-.7-1.2-.9ZM11.8,38.9c-.3-.4-.2-1.1-1.1-1-.1,1.3,0,.8,1.1,1ZM31.1,57.2c-1.7,0-1.2.4-.2.9,0-.3.1-.5.2-.9ZM17.9,48.8q.5-.4,0-1.4c-.8.4-.8.7,0,1.4ZM17.1,47.4c.4-.6.5-.7.4-1.3-.7.3-1,.7-.4,1.3ZM31.3,58.1c.7,0,1.1,0,1.4-.5-.7-.7-1.1,0-1.4.5ZM24.9,25.1v-.2c-.7-.2-1.4-.4-2.2-.5v.2c.7.2,1.4.8,2.2.5ZM2.3,22.6s0-.1-.2-.2c-.2.2-.4.3-.7.6.2,0,.4.1.6.2-.3.1-.5.2-.9.4,1.2.4.7-.3,1.2-1ZM35.8,55.4l.2.2c1.4-.4.7-1.7-.2-.2ZM5.1,31.8c.4.8.6.8,1.1.2-.5-.7-.6-.7-1.1-.2ZM30,55.1c-.2,1.1,1.1,1.4,1,.6-.3-.2-.6-.4-1-.6ZM21.8,53.8c-.5.6.4,1.3,1,.9-.2-.5-.6-.7-1-.9ZM5.1,22h-1c0,.3-.2.6-.3,1,.6-.1,1-.3,1.3-.9h0ZM29.3,56.1c-.4,0-.7,0-1.1-.2-.4.9.8,1,1.1.2ZM17.3,50.2c.4-.6.3-.8-.6-1.1-.2.5.1.8.6,1.1ZM18.5,45.7s.1,0,.2,0c1.3-.5.2-1.7-.2,0ZM7.8,34.9c.2,1,.4,1.1,1.1.5-.3-.3-.5-.7-1.1-.5ZM27.7,58l.2.2c.3,0,.7-.2,1.1-.3-.6-.6-.8-.6-1.2,0h-.1ZM17.3,44c-.3.4-.3.8-.2,1.3.7-.5.8-.9.2-1.3ZM25.8,55.3c-.2.7,0,.9.7.9.1-.6,0-.6-.7-.9ZM24.6,56.7c-.2-.5-.6-.5-1.1-.6.2.5.5,1.2,1.1.6ZM9.3,22h0c-.7-.4-1.6-.5-2.1-.1.8,0,1.4.2,2.1.2h0ZM4.9,30.2c-.2-.1-.4-.3-.6-.4-.2.3-.3.5-.4.8.5.2.8.1,1-.4ZM25.7,57.2v.2c.4.3.5.5,1,.2-.3-.5-.4-.4-1-.4ZM20.7,55c-.2-.8-.3-.8-.9-.8,0,.6.1.9.9.8ZM22.7,56.4c0-.7-.4-.9-1.1-.7.2.5.6.6,1.1.7ZM6.4,21.4c-.6-.1-1.1-.4-1.6.2.6.3,1,.1,1.6-.2ZM17.5,51c.2.3.4.5.5.8.3-.5.2-.8,0-1.2-.2.2-.3.3-.4.4h-.1ZM18.8,53.8h.2c0-.5,0-1-.7-.8.2.3.3.6.5.8ZM35.7,57.3q.6-.3.8-.8c-.7,0-.9.2-.8.8ZM2.4,27.8c-.2-.3-.5-.5-.9-.3.1.2.2.5.3.7.2-.2.4-.3.6-.5h0ZM3.8,29.7c-.2-.2-.4-.3-.6-.4-.6.6,0,1,.6.4ZM19.1,51.3c-.4.6-.3.7.4,1,.2-.5,0-.8-.4-1ZM20.6,53v.2q.5.4.9,0s0,0-.1-.2h-.8ZM36.2,36c0-.4-.3-.8-.9-.4.3,0,.6.3.9.4ZM18.8,49.4c-.1.5-.2.5.2.8.3-.5.2-.5-.2-.8ZM36.6,36.9c0,.2,0,.3,0,.4.3.2.5.3.7.5,0-.5-.3-.6-.6-.8h0ZM5.7,29.5q.5.5.8,0h-.8ZM2.8,28c-.2.3-.3.4-.4.6h0c.2-.1.6-.2.3-.7h0ZM1.3,25c0,.3-.2.5-.3.9.5-.3.7-.4.3-.9ZM2.1,26.1h0c-.2-.1-.4.1-.5.2.3.2.5.1.6-.2h0ZM36.6,33.9h.2c0,0,0-.3-.2-.4h0l.2.4h-.1ZM37.1,35h0c0-.2-.2-.3-.3-.2l.3.3h0ZM35.9,33.4h0v-.3h-.2s0,.2,0,.3h.1ZM22.2,25.5c.1,0,.1-.2,0-.2s0,.1,0,.2ZM3.7,27.7q.4,0,.6-.2s-.6.2-.6.2Z" fill="#32271b"/>
        <path d="M30.3,27.6c-.9-.4-1.7-.8-2.6-1.2-.1,0-.3-.1-.4-.2h0c.3-.1.6-.1.9-.1h0c0,.4.2.4.5.2.7.3,1.4.6,2.1.9-.1.1-.3.2-.4.3h-.1Z" fill="#32271b"/>
        <path d="M33.2,29.1c-.6-.3-1.1-.6-1.7-.9l.2-.2c.4.2.8.4,1.1.6,0,.2.2.4.4.6h0Z" fill="#32271b"/>
        <path d="M31.7,27.9l-.2.2c-.4-.2-.8-.3-1.2-.5.1-.1.3-.2.4-.3h.1c.1.4.5.5.9.6h0Z" fill="#32271b"/>
        <path d="M33.2,29.1c0-.2-.2-.4-.4-.6.3.2.6.4.9.7h-.5Z" fill="#32271b"/>
        <path d="M31.7,27.9c-.4,0-.7-.2-.9-.6.3.2.6.4.9.6Z" fill="#32271b"/>
        <path d="M33.7,29.2c.2.1.4.3.6.4h0c0,0-.3-.1-.4-.2h0v-.3h0Z" fill="#32271b"/>
        <path d="M28.7,26.3c-.3.1-.4.1-.5-.2.2,0,.3.2.5.2Z" fill="#32271b"/>
        <path d="M23.6,36.5c-1.4.5-2.9.9-4.2,1.6-1.1.5-2.7,1.8-4,1.6-.9,0-1.4-.8-1.7-1.4-.5-1.2.1-1.7,1.4-2.2,2.9-1.2,5.8-2.7,8.8-3.7,2.6-.9,5.3-.2,7.8.8-.2,0-.4.2-.6.2-1.7.5-3.2,1.3-4.7,2.1-.8.5-1.8.6-2.7.9,0,0,0-.2-.1-.3h-.1v.4h.1Z" fill="#00aeef"/>
        <path d="M32,45.1c.2-1.3,1.2-2.5,1.9-3.5.8-1.3,1.5-2.5,2.3-3.8,2.1.7-.9,6.5-1.4,7.9-.9,2.9-.9,6-1.6,9-.6.5-.8.6-1.7.4-.8-.5-1.4-.7-1.5-1.7,0-.8.3-2.1.5-2.8.4-1.4,1.4-5.1,1.5-5.4h0ZM33,48.9v.2h0v-.2h0ZM33.8,45.7v.2h0v-.2h0Z" fill="#00aeef"/>
        <path d="M21.1,26.1c.1.1,1.9.1,2.2.2,1.5.2,2.8.8,4.2,1.5,2.6,1.1,5.6,2.2,7.3,4.6h-.7c-5.7-1.5-11.4-1.8-16.7-4.7,1.3-.8,2.2-1.1,3.6-1.5h.1Z" fill="#00aeef"/>
        <path d="M26.2,47c.4-1.4.6-2.8,1.4-4,.3-.5.8-.9,1-1.4s0-1.1.2-1.6c.5-1.3,1.8-1.6,2.9-2.2,1.1-.6,2.8-1.9,4.2-1.4-1,2.4-2.8,4.5-4.4,6.5-1,1.3-3.4,4.1-5.3,3.9v.2Z" fill="#00aeef"/>
        <path d="M12.4,34.6c-.4-.5-1.1-.8-.5-1.6s2.8-1.1,3.8-1.4c1.3-.4,2.8-1.1,4.2-1.2,1.3-.1,2.6.5,3.8.8v.2c-2.2,1.1-4.4,2.3-6.7,3.2-.9.4-4.9,2.3-4.6,0h0Z" fill="#00aeef"/>
        <path d="M36.8,43.5c.2-1.6.5-3.2.7-4.9,1.3,2.5.5,6.1.3,8.7-.2,1.5-.3,3-.5,4.4-.2,1.8-.5,2-1.9,3-.3-.2-1.3,0-1.2-.6.4-1.8.9-3.6,1.3-5.3.3-1.1,1.3-4.9,1.3-5.1h0s0,0,0-.2Z" fill="#00aeef"/>
        <path d="M19.4,29.9c-1.9.5-3.8,1.1-5.7,1.5-1.1.2-4.6,0-3.6-1.7,1.5-2.8,7.7-2,9.4.2h-.1Z" fill="#00aeef"/>
        <path d="M30.1,48.1c-.4,2.2-.6,4.4-.8,6.6-.2.5-2,.6-2.8-.3-.7-.9,0-2.3.4-3.3v-.2h0v-.2c.6-1.8,1.5-4.9,3.8-5.2-.2.7-.4,1.4-.6,2,0,0,0,.2-.1.4h0c0,0,.1.2.1.2Z" fill="#00aeef"/>
        <path d="M27.4,41c.8,1.3-1.9,3.3-2.7,4-1.7,1.3-3.1,2.6-4.6,4.1s-1.5-2.6-.8-2.9c2.6-1.9,5.2-3.8,8.2-5.2h-.1Z" fill="#00aeef"/>
        <path d="M27.7,39.8c-1.3.8-2.7,1.6-4,2.4-.8.5-2.8,3-3.6,2.1-.3,0-.2-.6-.2-.8.3-.6.2-1.3.5-1.9.3-.7,1.2-1.1,1.8-1.4,1.8-.9,3.6-1.3,5.6-1.4h.1v.6h0l-.2.2v.2Z" fill="#00aeef"/>
        <path d="M26.9,48c-.5,2-1,3.9-1.5,5.8,0,.8-3.4.3-2.9-1.9s2.7-4,4.4-3.9Z" fill="#00aeef"/>
        <path d="M37.8,51.9c0-2.5.6-4.9.8-7.4.2-2.2,0-4.1-.6-6.2v-.3c.9.7,1.3,2.1,1.4,3.4.2,1.2.4,1.7.3,2.9-.3,2.5-.8,4.8-1.4,7.2-.2,0-.4.3-.5.4Z" fill="#00aeef"/>
        <path d="M25.9,44.8c-.5,1.9-1.5,3-2.5,4.5-.6.9-1.3,3.7-2.9,2.6-2.8-2,4.1-6.2,5.4-7.2h0Z" fill="#00aeef"/>
        <path d="M29.5,37.7c-.8.3-2.2.6-3,.3-.4,0-.6-.5-.9-.5.2-1.4,2.8-1.7,3.9-2,1.3-.4,3.1-1.2,4.2,0v.5c-.6.3-1.3.6-2,.9-.6.3-1.2.5-1.9.7-.1,0-.3,0-.4,0h0Z" fill="#00aeef"/>
        <path d="M9.2,25.5c.1,0,.3,0,.5.1-1,.4-4.9,2.6-5.2.6-.2-1.6,3.5-1.9,4.5-2,0,.5.1.9.2,1.2h0Z" fill="#00aeef"/>
        <path d="M4.1,24.6c.4-1.1.4-1.5,1.6-2,1.1-.4,3.5-.7,4,.7-1.6.4-4,1.7-5.6,1.3Z" fill="#00aeef"/>
        <path d="M34.3,32.7h.7c.5,0,.7.4.7.9l-.3.4c0,0-.2-.3-.3-.5,0,.6-.2,1-.3,1.6-1.3-.3-2.3-.5-3.6-.5v-.2c0,0,.2-.2.4-.4,0,0-.1-.2-.2-.4.2,0,.4-.2.6-.2.8-.2,1.6-.5,2.4-.7h-.1Z" fill="#00aeef"/>
        <path d="M7.4,27c.9-.4,1.9-.7,3.1-.6-.3.6,0,1.1.5,1.4-.8.6-1.7,1-2.6,1l-.4-.2h0c0-.5,0-1-.5-1.4v-.3h0Z" fill="#eee9e4"/>
        <path d="M10.8,25.6c-.1-.2-.3-.4-.4-.7,0-.2.1-.3.2-.5-.1-.1-.3-.3-.6-.5,1,0,1.8,0,2.6-.1.2,1.4-.2,1.8-1.8,1.9h0Z" fill="#eee9e4"/>
        <path d="M17.1,25.9c-.4.7-1.9,2.5-2.6.9-.6-1.3,2-1,2.6-.9Z" fill="#00aeef"/>
        <path d="M7.4,27v.3c.4.4.4.9.5,1.4h-.3s0,.2-.2.3h0c-.7.3-1.1-.2-1.8-.4v-.6c.5-.4,1.5-.5,1.8-1Z" fill="#00aeef"/>
        <path d="M16.2,25.4c-.2-.4-.4-.7-.5-1,.7-.4,1.7-.3,2.4.3-.3.6-1,.8-1.9.7Z" fill="#eee9e4"/>
        <path d="M22.7,38.8c.2-.6.5-1.1,1.2-1.1,1.4,1.4-.9,1.7-1.2,1.1Z" fill="#eee9e4"/>
        <path d="M12.2,23.5c-.6,0-1.2.2-1.7,0,0-.3.1-.6.2-.9.6,0,1.3.2,2,.3,0,.2,0,.3-.1.5-.1,0-.2.2-.4.2h0Z" fill="#eee9e4"/>
        <path d="M6.4,30.4c.4-.6,1.7-.7,1.6.2-.2,1.3-1.2.3-1.6-.2Z" fill="#eee9e4"/>
        <path d="M15.4,22.9c0,.7-1.6,0-1.9,0,.4-.2.6-.5.1-.9h.2c.2,0,1.6.2,1.7.5,0,0-.1.1-.2.2h-.4c.2.1.3.2.5.3h0ZM14.6,22.6h0c-.1-.1-.3-.1-.4-.1h0c.1.1.3.1.4.1Z" fill="#eee9e4"/>
        <path d="M9.6,34.8c-1.1-.8-.1-1.2.6-1.5.6.7.5,1-.6,1.5Z" fill="#eee9e4"/>
        <path d="M21.1,26.1c-.2,0-.4-.1-.6-.2-.2-.4-.4-.8-.6-1.2.6.2,1.2.3,1.9.5-.2.3-.4.6-.6.9h0Z" fill="#eee9e4"/>
        <path d="M29.9,34.7c-.6.5-1.2.7-1.9.6-.4-.6,1.5-1.2,1.9-.6Z" fill="#eee9e4"/>
        <path d="M10.4,32.5c-.3.2-.7.3-1,.5-1.5-1,.2-1.6,1-.5Z" fill="#eee9e4"/>
        <path d="M14,40c-.6.7-1.2.8-1.7.2,1.3-.8,1.1-.8,1.7-.2Z" fill="#eee9e4"/>
        <path d="M19.5,40.7c.6-.6,1-1,1.5-1.6,0,1.2-.5,1.8-1.5,1.6Z" fill="#eee9e4"/>
        <path d="M2.6,24.8c-.2-.9.3-1.3,1.1-1.3.2.6-.2,1.1-1.1,1.3Z" fill="#eee9e4"/>
        <path d="M18.6,43.7c-.7-.8-.5-1.4.4-1.6q0,1-.4,1.6Z" fill="#eee9e4"/>
        <path d="M33.4,57.3c.3-.5.8-.2,1.2-.4.6,1-.8,1.3-1.2.4Z" fill="#eee9e4"/>
        <path d="M3.3,26c.4.3.6,1.1,0,1.1s-.3-1,0-1.1Z" fill="#eee9e4"/>
        <path d="M38.2,53.1h0c0,.2-.3.3-.4.5h0c0-.6,0-1.2,0-1.7.2,0,.4-.3.5-.4" fill="#00aeef"/>
        <path d="M10.8,36.8c0-.3,0-.7-.1-1,1.1,0,1.5.9.1,1Z" fill="#eee9e4"/>
        <path d="M33.3,55.8c-.2.4-.2.6-.3.8-.5,0-1,0-1.3-.8h1.6Z" fill="#eee9e4"/>
        <path d="M33.8,55.2c1,0,1.1.2,1.2.9-1,.3-1.2,0-1.2-.9Z" fill="#eee9e4"/>
        <path d="M11.8,38.9c-1-.2-1.2.2-1.1-1,.8,0,.7.6,1.1,1Z" fill="#eee9e4"/>
        <path d="M31.1,57.2c-.1.4-.2.7-.2.9-1-.6-1.5-1,.2-.9Z" fill="#eee9e4"/>
        <path d="M17.9,48.8c-.7-.6-.7-1,0-1.4q.4.9,0,1.4Z" fill="#eee9e4"/>
        <path d="M17.1,47.4c-.6-.7-.3-1.1.4-1.3.1.6,0,.8-.4,1.3Z" fill="#eee9e4"/>
        <path d="M31.3,58.1c.3-.6.7-1.3,1.4-.5-.2.5-.7.6-1.4.5Z" fill="#eee9e4"/>
        <path d="M24.9,25.1c-.9.3-1.5-.3-2.2-.5v-.2c.7.2,1.4.4,2.2.5v.2Z" fill="#eee9e4"/>
        <path d="M2.3,22.6c-.5.7,0,1.4-1.2,1,.4-.2.6-.3.9-.4-.2,0-.3-.1-.6-.2.3-.2.5-.4.7-.6,0,0,0,.1.2.2Z" fill="#eee9e4"/>
        <path d="M35.8,55.4c.9-1.5,1.6-.3.2.2l-.2-.2Z" fill="#eee9e4"/>
        <path d="M5.1,31.8c.5-.5.6-.5,1.1.2-.5.6-.7.6-1.1-.2Z" fill="#eee9e4"/>
        <path d="M30,55.1c.4.2.7.4,1,.6,0,.8-1.2.5-1-.6Z" fill="#eee9e4"/>
        <path d="M21.8,53.8c.4.2.8.4,1,.9-.6.4-1.5-.2-1-.9Z" fill="#eee9e4"/>
        <path d="M5.1,22c-.2.7-.7.8-1.3.9,0-.4.2-.7.3-1h1Z" fill="#eee9e4"/>
        <path d="M29.3,56.1c-.2.8-1.4.7-1.1-.2.3,0,.7,0,1.1.2Z" fill="#eee9e4"/>
        <path d="M17.3,50.2c-.4-.2-.7-.5-.6-1.1.8.2,1,.5.6,1.1Z" fill="#eee9e4"/>
        <path d="M18.5,45.7c.4-1.6,1.5-.4.2,0,0,0-.1,0-.2,0Z" fill="#eee9e4"/>
        <path d="M7.8,34.9c.5-.2.8.2,1.1.5-.7.6-.9.5-1.1-.5Z" fill="#eee9e4"/>
        <path d="M27.7,58c.4-.6.7-.7,1.2,0-.4,0-.7.2-1.1.3l-.2-.2h.1Z" fill="#eee9e4"/>
        <path d="M17.3,44c.6.4.5.8-.2,1.3-.1-.5-.2-.9.2-1.3Z" fill="#eee9e4"/>
        <path d="M25.8,55.3q.8.3.7.9c-.7,0-.9-.2-.7-.9Z" fill="#eee9e4"/>
        <path d="M24.6,56.7c-.7.6-1,0-1.1-.6.6,0,1,0,1.1.6Z" fill="#eee9e4"/>
        <path d="M9.3,22c-.7,0-1.3-.1-2.1-.2.6-.3,1.4-.3,2.1,0h0v.2Z" fill="#00aeef"/>
        <path d="M4.9,30.2c-.3.5-.6.6-1,.4,0-.3.3-.5.4-.8.2.2.4.3.6.4Z" fill="#eee9e4"/>
        <path d="M25.7,57.2c.6,0,.7,0,1,.4-.5.3-.6,0-1.1-.2v-.2h.1Z" fill="#eee9e4"/>
        <path d="M20.7,55c-.7,0-.9-.2-.9-.8.6,0,.7,0,.9.8Z" fill="#eee9e4"/>
        <path d="M18.7,23.6c-.3-.2-.6-.3-.9-.5.4-.2,1.1,0,1.7.6h-.8Z" fill="#eee9e4"/>
        <path d="M22.7,56.4c-.5,0-.9-.2-1.1-.7.7-.2,1.1,0,1.1.7Z" fill="#eee9e4"/>
        <path d="M10.9,21.7c.4,0,.9,0,1.3.4-.7.2-1.2-.1-1.8-.3.2,0,.3-.1.5-.2h0Z" fill="#00aeef"/>
        <path d="M6.4,21.4c-.6.3-1,.4-1.6.2.5-.6,1-.3,1.6-.2Z" fill="#eee9e4"/>
        <path d="M17.5,51c.2-.2.3-.3.4-.4.3.4.4.8,0,1.2-.2-.3-.3-.5-.5-.8h.1Z" fill="#eee9e4"/>
        <path d="M18.8,53.8c-.2-.3-.3-.5-.5-.8.7-.2.8.3.7.8h-.2Z" fill="#eee9e4"/>
        <path d="M35.7,57.3c0-.6,0-.8.8-.8,0,.5-.2.5-.8.8Z" fill="#eee9e4"/>
        <path d="M2.4,27.8c-.2.1-.3.3-.6.5-.1-.3-.2-.5-.3-.7.4-.2.7,0,.9.3h0Z" fill="#eee9e4"/>
        <path d="M3.8,29.7c-.5.6-1.2.2-.6-.4.2.1.4.3.6.4Z" fill="#eee9e4"/>
        <path d="M19.1,51.3c.3.3.6.5.4,1-.7-.3-.8-.5-.4-1Z" fill="#eee9e4"/>
        <path d="M20.6,53h.7s0,0,.1.2q-.4.5-.9,0v-.2h0Z" fill="#eee9e4"/>
        <path d="M35.2,33.6l.3-.4c0,.2,0,.3.2.5v.8h-.4c.2-.2.2-.3,0-.5v-.4h0Z" fill="#00aeef"/>
        <path d="M36.2,36c-.3,0-.5-.2-.9-.4.6-.5.7,0,.9.4Z" fill="#eee9e4"/>
        <path d="M18.8,49.4c.4.4.5.3.2.8-.4-.4-.3-.3-.2-.8Z" fill="#eee9e4"/>
        <path d="M36.6,36.9c.3.2.7.4.6.8-.3-.2-.5-.3-.7-.5,0,0,0-.2,0-.4h0Z" fill="#00aeef"/>
        <path d="M5.7,29.5c.3,0,.5-.1.8,0-.3.5-.3.6-.8,0Z" fill="#eee9e4"/>
        <path d="M3.9,25.1c-.2.3-.5.4-.9.2l.5-.2h.4Z" fill="#eee9e4"/>
        <path d="M2.8,28c.3.5,0,.6-.3.7h0c0-.2.2-.4.4-.6h0Z" fill="#eee9e4"/>
        <path d="M35.7,34.5v-.8c0,.3.2.6.3.9h0l-.2-.2h0Z" fill="#00aeef"/>
        <path d="M10.9,21.7c-.2,0-.3.1-.5.2-.2,0-.4,0-.6-.1v-.2c.3,0,.7,0,1,.1h.1Z" fill="#00aeef"/>
        <path d="M1.3,25c.4.5.2.6-.3.9,0-.4.2-.6.3-.9Z" fill="#eee9e4"/>
        <path d="M18.7,23.5l.5.5c-.4-.1-.6-.2-1-.3.2-.1.4-.2.5-.2h0Z" fill="#eee9e4"/>
        <path d="M38,38v.3c0-.2-.3-.4-.4-.6h0l.4.4h0Z" fill="#00aeef"/>
        <path d="M2.1,26.1c-.2.3-.4.3-.6.2.2,0,.4-.2.5-.3h0c0,.1.1,0,.1,0Z" fill="#eee9e4"/>
        <path d="M27.9,39.6v-.6c.1,0,.2,0,.4,0,0,.2-.2.3-.3.5h-.1Z" fill="#00aeef"/>
        <path d="M33.7,29.2v.3c-.3,0-.5-.2-.6-.4h.6Z" fill="#32271b"/>
        <path d="M36.6,33.9l-.2-.4h0c0,0,0,.3.2.4h-.2.1Z" fill="#00aeef"/>
        <path d="M37.1,35l-.3-.3c.2,0,.3,0,.3.2h0Z" fill="#00aeef"/>
        <path d="M33.7,36v-.5c.3.2.3.3,0,.5Z" fill="#00aeef"/>
        <path d="M15.4,22.9c-.2,0-.3-.1-.5-.2h0c.1-.1.3-.1.4-.1v.2h.1Z" fill="#00aeef"/>
        <path d="M35.3,34c.2,0,.3.3,0,.5v-.5Z" fill="#00aeef"/>
        <path d="M26.7,26h-.4v-.2c.1,0,.3.1.4.2h0Z" fill="#32271b"/>
        <path d="M23.6,36.5v-.4h0c0,0,0,.2.1.3h-.1Z" fill="#00aeef"/>
        <path d="M36.5,31.2l.3.3h0s-.2-.1-.3-.2v-.2h0Z" fill="#00aeef"/>
        <path d="M35.9,33.4s0-.2,0-.3h0s0,.2,0,.3h0Z" fill="#eee9e4"/>
        <path d="M29.5,37.7c.1,0,.3,0,.4,0-.1,0-.3,0-.4,0Z" fill="#eee9e4"/>
        <path d="M22.2,25.5c-.1,0-.1-.2,0-.2.2,0,.2.1,0,.2Z" fill="#eee9e4"/>
        <path d="M8,28.6l.4.2s-.4-.2-.4-.2Z" fill="#00aeef"/>
        <path d="M36.7,43.7v.6-.6Z" fill="#eee9e4"/>
        <path d="M3.9,25.1h-.4.4Z" fill="#00aeef"/>
        <path d="M33.8,29.5c0,0,.3.1.4.2-.2.1-.3,0-.4-.2Z" fill="#32271b"/>
        <path d="M27.3,26.2c.1,0,.3.1.4.2-.1,0-.3-.1-.4-.2Z" fill="#32271b"/>
        <path d="M3.7,27.7l.6-.2c-.3.3-.2.3-.6.2Z" fill="#eee9e4"/>
        <path d="M35.1,30.4c-.2,0-.3-.2,0-.4h0c0,.1,0,.3,0,.4h0Z" fill="#32271b"/>
        <path d="M12.2,23.5c.1,0,.2-.2.4-.2-.1,0-.2.2-.4.2Z" fill="#fff"/>
        <path d="M27,26.2c-.1,0-.2-.2-.3-.2h0c.1,0,.3.1.4.2h-.1Z" fill="#32271b"/>
        <path d="M36.5,31.2v.2s0-.2-.2-.3h0s0,.1,0,.2h.1Z" fill="#eee9e4"/>
        <path d="M27.7,39.8l.2-.2-.2.2Z" fill="#eee9e4"/>
        <path d="M34.2,29.7h0v.4c0-.2-.2-.3-.2-.4h.1Z" fill="#32271b"/>
        <path d="M30.1,47.9v-.4.4Z" fill="#eee9e4"/>
        <path d="M36.8,43.5v.2-.2Z" fill="#eee9e4"/>
        <path d="M27.2,26.1h0c0,.1-.2.1-.2.1h.2Z" fill="#32271b"/>
        <path d="M35.1,30.4h0Z" fill="#00aeef"/>
        <path d="M26.9,51v.2-.2Z" fill="#eee9e4"/>
        <path d="M27,50.8v.2-.2Z" fill="#eee9e4"/>
        <path d="M30.1,48.1h0q0,0,0,0Z" fill="#eee9e4"/>
        <path d="M7.5,29h0Z" fill="#00aeef"/>
        <path d="M27.9,38.9h-.1.1Z" fill="#eee9e4"/>
        <path d="M33.8,45.7v.2h0v-.2h0Z" fill="#00aeef"/>
        <path d="M33,48.9v.2h0v-.2h0Z" fill="#00aeef"/>
        <path d="M32,45.8h0Z" fill="#eee9e4"/>
        <path d="M33.8,45.7h0Z" fill="#00aeef"/>
        <path d="M33,48.9h0Z" fill="#00aeef"/>
        <path d="M12.4,34.6h0Z" fill="#32271b"/>
        <path d="M9.2,25.5h0Z" fill="#32271b"/>
        <path d="M14.6,22.6h-.4c.1-.1.3-.1.4-.1h0Z" fill="#00aeef"/>
      </g>
    </g>
    <g id="pzYYIp-2">
      <g>
        <path d="M43.4,41.8l-.8-.5s-1.6-4-2.4-6.1-1.6-6-1.6-6c0-.3.2-.5.3-.7,0,.1,0,.3.2.4h0c0-.2,0-.4-.2-.4,0-.2,0-.5.2-.7h0s0,.2.2.4v-.4h0c.3,0,.3-.2.2-.4h0c.3-.2.3-.4.2-.7h0c.2-.6.4-1.2.7-1.8.2-.4.4-.8.6-1.2.4-.9.8-1.7,1.2-2.6,0-.1,0-.3.2-.4h0s0-.1,0-.2v-.4c0,0,.2-.2.3-.3h0s0,.2-.2.3c0,.1,0,.2-.2.4h0c-.2.2-.5.4-.7.6,2.5-5.1,5.3-9.9,9.1-14.2,1.8-2,3.8-4.2,6.2-5.4,2.8-1.3,4-.5,5.5,1.8.8,1.1,1,1.4,1.1,2.8v3.7c0,1.2-.3,2.2,0,3.3,0,.9,0,1.9.2,2.7,0,2,0,3.9-.3,5.8-.2,1.2-.4,2.2-1.3,3.1-.9.8-2.1,1-2.9,1.8,1.7.7,3.4.9,5,2.2,1.4,1.1,2.1,2.4,2.5,4.1.2.7.6,1.4.8,2.2.2.8,0,2-.2,2.9,0,1.5-.8,2.3-1.4,3.7-.7,1.5-1.3,2.8-2.4,4.1-.8.9-1.7,1.6-2.6,2.3-1.1.9-2.8,2.1-4.3,2.2-2,0-4.1-1-5.6-2.2.2,0-3.3-4.3-5-6.1-1.6-1.6-2.5-3.2-3.6-5.1v-.8h0v.5c-.3,1.1,1.8,5,2.7,5.8,1.8,1.7,7.4,4.3,6.3,5.6-2.8-2-4.8-4-7.1-5.9,0-.2-.2-.3-.3-.5h0M58.5,39.1c-1.6-1-4.3-2.7-6.3-1.5.6.4,1.2.8,1.8,1.2,0,0,.2,0,.3.2h0c1.8,1.5,3.3,3,4.9,4.6.9-.4,1.9-.8,1.9-2s-1.6-1.7-2.4-2.3h-.2s0,0-.2,0h.2ZM46.4,40c-1.2-1.1-2.4-2.1-3.7-3.2.6,2.7,3.5,5,5.5,6.8,1.1,1,2.2,2,3.3,3,1.3,1.2,1.6,1.2,3.4,1,0-.3.3-.7.5-1.2-1.5-1.1-3-2.1-4.5-3.2-.9-.6-4.2-2.9-4.3-3h0s0,0-.2,0h0ZM38.5,30.8h0v-.6h0v.6h0ZM50.8,31.3c1.6-.2,3.1-.6,4.7-.8.9-.1,3.7.2,3.7-1-.3,0-1-1.3-1.6-1.6-.7-.3-1.6,0-2.3.1-1.9.5-3.6,1.4-5.2,2.5h0c0,.2,0,.3-.2.4.2,0,.4.1.6.2h.3v.2ZM59.4,4.6c.3.1.6,0,.8-.4l-.5.2c0,0-.2,0-.3.2ZM51.1,7.8c.7-.3.9-.9,1.2-1.4,0-.2.2-.3.4-.5,0,0,0,0-.2,0-.2.3-.4.5-.7.8s-.7.6-.8,1.2h0ZM47.1,13.8c.2-.3.3-.5.5-.9-.3,0-.4.1-.5.1,0-.3.3-.7.4-1-.5.1-.9.7-1,1.6.2-.2.4-.4.6-.6v.7h0ZM50.6,9.1c-.4,0-.8,0-.7-.6,0,0,0,0-.2.1,0,.1-1,1.2-.9,1.5h.3v.2c.5.6,1.2-1,1.5-1.3h0ZM53.3,7.6c-.2-.2-.5-.3-.8-.6-.4.5-.9,1-1.3,1.5.2.1.3.2.4.3h.4c.4-.4,1-.6,1.3-1.2ZM58.5,9.9s.2-.1.3-.2c0,0,.2,0,.4.1h0c.7-.2.7-.9,1.1-1.5,0-.1-.2-.3-.3-.5-.7,0-1.4.6-2,.4-1,.3-1.9.7-2.7,1.5.6.3.7.8.5,1.4,1,0,1.9-.4,2.7-.9l.2-.4h-.2ZM55.4,8.7c1-.4,5.4-1.2,4.3-2.9-.9-1.4-3.9.8-4.7,1.4.3.4.5.7.7,1.1h0c0,.1-.2.2-.3.4ZM43.8,32.3c.7-.2,1.4-.4,2.1-.6.6-.2,1.3-.4,1.9-.7,0,0,.3-.1.4-.2.8-.3,2.1-.9,2.5-1.7.2-.4,0-.8.4-1-1.1-.9-3.2.6-4.2,1-1.2.5-3.1,1.1-3.3,2.7,0,.4,0,.5.3.4h-.1ZM59.1,17.3c0-.6.3-1.3-.6-1.6-.9-.3-2.9,1-3.8,1.4-1.3.5-2.9,1-4,1.8-1,.7-1.7,2.1-2.4,3.1,0,0,0,.1,0,.2,2.4-.6,4.8-1.1,7.2-1.9.9-.3,5.2-1.5,3.4-3h0ZM51,38.1c-1-.9-2.5-1.1-3.7-1.5-1.4-.4-2.8-.9-4.2-1.4-1.1,1.8,4.9,4.3,6.2,5.1,2.6,1.6,4.6,4,7,5.8.8,0,.8-1,1.6-.8.3-.9.6-1.5,0-2.3-.4-.7-1.6-1.4-2.3-1.8-1.2-.8-4.5-3-4.6-3.1ZM53.1,33.7c-.5-.2-1.2-.2-1.7-.4-.5-.3-.7-.8-1.2-1-1.2-.6-2.4,0-3.6.3-1.2.3-3.4.4-4,1.7,2.3,1.2,5.1,1.6,7.6,2.1,1.7.3,5.3.9,6.6-.5-1.2-.8-2.2-1.7-3.6-2.1h0ZM56.1,15.8c1-.5,3.5-2.9,1.6-3.7-3-1.2-7.1,3.5-7,6.2,1.8-.8,3.6-1.6,5.4-2.5ZM56.5,33.2c2.1,0,4.1,0,6.2,0,.3-1-.7-2-1.2-2.7-3.2.2-6.5.5-9.6,1.3.3,1.5,3.6,1.3,4.7,1.3h-.1ZM61.7,40.5c1.4-.5,2.3-2.4,1-3.4-1.3-.9-4.7-1.3-5.9,0,1.6,1.2,3.3,2.3,4.9,3.5ZM60.3,35.7c1,.3,3.4,1.9,3.9,0,.9-3.3-7.1-2-8.7-2,1.6,1.1,3.1,1.3,4.9,1.8h0ZM56.4,3.9c-1.1.4-3.1,1.7-2.5,3.1,1.5-.7,4.2-1.3,5.1-2.7-1-.5-1.3-.9-2.5-.4h0ZM54.3,8.7c-.2,0-.3-.2-.5-.3v-.8c-.8.6-1.4,1.1-2,1.6.8,1.2,1.3,1.2,2.6.2,0-.3,0-.5,0-.8h0ZM52.5,12.8c-.4-1.4-2.2.6-2.6,1,.7.3,3.1.7,2.6-1ZM49.9,11.7c-.8.1-1.5.8-1.7,1.8.7.3,1.3,0,1.9-.7,0-.4-.2-.8-.3-1.1h0ZM52.3,27.1c-.2,2,1.8.7,1.6,0-.6-.3-1.1-.5-1.6,0ZM59.8,11.5c1,.9,1.1-.6,1.1-1.2-.7-.2-1.8.6-1.1,1.2ZM60,14.9c0,.9.3,1.1,1.4.7.3-1.3-.7-1-1.4-.7ZM47.7,27.9c0-.7-1.9,0-1.8.8.8,0,1.4-.2,1.8-.8ZM60.3,14.2c.5-1.8-1.2-1-1.1.3.4,0,.7-.2,1.1-.3ZM62.9,21.6c-1.5.2-1.3,0-1.4,1,.9.2,1.4-.2,1.4-1ZM55.4,26.4c.8.9,1.5,1,2.2.2-.8,0-1.4-.1-2.2-.2ZM58.4,3.3c.3.6.9.7,1.7.2-.5-.9-1.1-.8-1.7-.2ZM59,27.4q.6.8,1.3.9c0-1.1-.5-1.4-1.3-.9ZM56.8,48.8c.2,1.1,1.5.5,1.1-.5-.5-.2-.7.4-1.1.5ZM61.3,5.7c.6-.5-.4-1-.9-.8,0,.4.3,1.2.9.8ZM61.2,17.1c-.9.7-.6,1.7.5.8-.2-.3-.4-.6-.5-.8ZM57.8,47.5c.4-.4.7-.7.5-1.4-.4.3-.8.6-1.2,1,.4.2.6.3.8.4h0ZM55.9,48.3c.9-.4.9-.7.3-1.4q-.7.8-.3,1.4ZM62.5,18.7c-.6.5,0,1,0,1.5.6-.8,1-.6,0-1.5ZM60.4,47.2c.4-1.1.5-1.7-.8-.6.4.3.6.4.8.6ZM63.2,30.7q.3,1,.9,1c0-1,0-1.2-.9-1ZM62.7,29.4c.3.6.5.6,1.2.8,0-.9-.5-1-1.2-.8ZM58.6,48c.5.3.9,0,1.4-.5-.6-.3-1.4-.5-1.4.5ZM44.8,16.4s0,0-.2-.1c-.4.6-.9,1.2-1.3,1.8h0c.8-.2.9-1.1,1.4-1.7ZM60.6,1.7c-.4.1-.6.2-.9.3,0-.2.2-.3.3-.5h-.9v.2c.8.3.9,1.1,1.6,0h0ZM54.9,48.6v-.3c-1.7-.6-1.4.8,0,.3ZM62.1,11.3c.8.1.9,0,.7-.9-.7,0-.8,0-.7.9ZM58.7,45.4c.5.6,1.2-.4.4-1.1-.2.4-.3.8-.4,1.1ZM64.2,39.3c.7,0,1-1.2.2-1.3-.2.4-.4.8-.2,1.3ZM58,2.9c-.3-.2-.6-.4-.9-.6-.2.3-.5.5-.7.7.6.3,1,.2,1.6-.1ZM60.9,43.9c-.2.3-.5.5-.7.8.7.5,1.6-.4.7-.8ZM65.3,31.2c-.5.7-.4,1,.3,1.2.2-.5.2-.9-.3-1.2ZM61.7,29.9v-.2c-1.3-1-1.4.7,0,.2ZM62.3,15.6c.9,0,1-.2.5-1.1-.6.2-.5.6-.5,1.1ZM61.7,45.9c.4-.2.7-.3,1-.5v-.3c-.8-.2-1,0-1,.8ZM62.5,28.5c-.2-.4-.5-.8-1-.9-.2.7,0,.9,1,.9ZM62.4,43c.6-.4.6-.8,0-1.1q-.4.7,0,1.1ZM64.7,40.9c-.4.4-.7.7-.5,1.2.9,0,.7-.7.5-1.2ZM54.7,4.3c-.6,0-1.2.7-1.6,1.4h0c.5-.5.9-1,1.4-1.5h0ZM62.9,8.8c-.3-.1-.5-.2-.9-.3,0,.3,0,.5-.2.7.5.2.8,0,1-.4h.1ZM63.2,44.2c.6,0,.5-.3.7-.9h-.2c-.5.3-.6.3-.5.9ZM66.2,37.1q-.5.4,0,1.2c.6-.4.6-.7,0-1.2ZM65.8,39.4c-.7.3-.9.8-.4,1.2.3-.4.5-.8.4-1.2ZM56.4,2.5c-.7,0-.9.4-1.3.9.6-.2,1.1-.3,1.3-.9ZM65.2,33.1c0,.5.2.8.7,1,0-.3,0-.6,0-1h-.6ZM66.5,35.2c-.6.3-.4.7,0,1.1,0,0,0,0,.2-.2,0-.3,0-.6-.2-.9ZM55,49.7c.4.3.5.3,1.1,0-.3-.5-.5-.5-1.1,0ZM63,5.6c0-.3-.2-.5-.2-.8-.5,0-.5.4-.5.8h.7ZM62.6,7.3c0,.2,0,.5-.2.7.8,0,1.1-.6.2-.7ZM65.2,35.5c.4-.7.3-.9-.3-1.1,0,.4,0,.8.3,1.1ZM64.2,37.1v.2q.6,0,.8-.5s0,0-.2,0c-.2,0-.4.3-.6.4ZM42.3,33.1c-.7,0-.6.4-.4.8,0-.3.3-.5.4-.8ZM64.2,33.6c0-.6,0-.5-.4-.8,0,.6-.2.6.4.8ZM42.3,35.8c0-.3.2-.5.2-.8,0,0-.2,0-.3-.2,0,.4-.3.7,0,1h0ZM60.2,9.6q.6.2.6-.5c-.3,0-.5.3-.6.5ZM62.7,6.4v-.2c-.2,0-.4,0-.7-.2,0,.6.4.4.7.4ZM62.1,3.3c-.3-.2-.5-.3-.8-.5,0,.6.3.6.8.5ZM62,3.8c-.2,0-.4,0-.6,0v.2c.3,0,.5,0,.6-.3ZM40.1,32.1h0c0,0,0,.3,0,.4h.2l-.2-.4ZM40.7,33.3c-.2,0-.2.2,0,.4h0v-.4h0ZM40.3,31.4h0c0,.1,0,.2,0,.3h0v-.3h0ZM45.6,16.6c0,.1,0,.2,0,.2,0-.1,0-.2,0-.2ZM60.6,6.7q.4,0,.6-.2l-.6.2Z" fill="#32271b"/>
        <path d="M41,23.7c.4-.9.8-1.7,1.2-2.6,0-.1,0-.3.2-.4h0c-.2.1-.5.3-.7.5h0c.2.3,0,.4-.2.5-.3.7-.6,1.4-1,2.1h.6,0Z" fill="#32271b"/>
        <path d="M39.7,26.7c.2-.6.4-1.2.7-1.8h-.3c-.2.3-.3.7-.5,1.1v.7h0Z" fill="#32271b"/>
        <path d="M40.1,24.8h.3c.2-.3.4-.8.6-1.2h-.6c.2.5,0,.8-.3,1.1h0Z" fill="#32271b"/>
        <path d="M39.7,26.7v-.7c0,.4-.2.7-.2,1.1h0c0-.1.2-.3.3-.4h0Z" fill="#32271b"/>
        <path d="M40.1,24.8c.2-.3.4-.6.3-1,0,.3-.2.7-.3,1Z" fill="#32271b"/>
        <path d="M39.4,27.1c0,.2,0,.5-.2.7h0c0-.1,0-.2.2-.4h0s0-.2,0-.3h0Z" fill="#32271b"/>
        <path d="M41.4,21.6c.3,0,.4-.2.2-.5,0,.2,0,.3-.2.5Z" fill="#32271b"/>
        <path d="M51.8,26.1c1.4-.5,2.8-1.1,4.2-1.5,1.1-.3,3.2-.3,4.1-1.3.6-.7.5-1.5.3-2.2-.4-1.3-1.2-1.2-2.5-.8-3,.9-6.2,1.8-9.1,2.9-2.6,1-4.2,3.3-5.4,5.6.2,0,.4-.1.6-.2,1.6-.7,3.3-1.1,5-1.5.9-.2,1.8-.7,2.6-1,0-.1,0-.2,0-.3h0v.4h.2Z" fill="#00aeef"/>
        <path d="M55.7,41.2c.6.4,1.8,1.1,2.3,1.8.6.8.3,1.4,0,2.3-.6.7-.8.8-1.6.8-2.5-1.8-4.4-4.1-7-5.8-1.3-.8-7.3-3.3-6.2-5.1,1.4.5,2.8.9,4.2,1.4,1.2.4,2.7.6,3.7,1.5.3.2,3.4,2.3,4.6,3.1ZM52.7,41.5h0s0,0,0,.2h0s0,0-.2,0h.1ZM50,39.7h0v.2h.2s0,0-.2,0h0Z" fill="#00aeef"/>
        <path d="M47,16.5c0,.2-1.4,1.3-1.6,1.6-1,1.2-1.6,2.5-2.3,3.8-1.2,2.5-2.8,5.3-2.6,8.2.2-.1.4-.3.6-.4,3.4-4.9,7.5-8.8,9.6-14.4-1.5.3-2.4.6-3.8,1.2h0Z" fill="#00aeef"/>
        <path d="M56.7,35.8c-1.2-.8-2.2-1.7-3.6-2.1-.5-.2-1.2-.2-1.7-.4-.5-.3-.7-.8-1.2-1-1.2-.6-2.4,0-3.6.3-1.2.3-3.4.4-4,1.7,2.3,1.2,5.1,1.6,7.6,2.1,1.7.3,5.3.9,6.6-.5h0Z" fill="#00aeef"/>
        <path d="M59.1,17.3c0-.6.3-1.3-.6-1.6-.9-.3-2.9,1-3.8,1.4-1.3.5-2.9,1-4,1.8-1,.7-1.7,2.1-2.4,3.1,0,0,0,.1,0,.2,2.4-.6,4.8-1.1,7.2-1.9.9-.3,5.2-1.5,3.4-3h0Z" fill="#00aeef"/>
        <path d="M46.4,40c-1.2-1.1-2.4-2.1-3.7-3.2.6,2.7,3.5,5,5.5,6.8,1.1,1,2.2,2,3.3,3,1.3,1.2,1.6,1.2,3.4,1,0-.3,1-.8.5-1.2-1.5-1.1-3-2.1-4.5-3.2-.9-.6-4.2-2.9-4.3-3h0s0,0-.2,0h0Z" fill="#00aeef"/>
        <path d="M57.8,12.1c1.9.8-.6,3.1-1.6,3.7-1.7.9-3.6,1.7-5.4,2.5-.2-2.7,4-7.4,7-6.2Z" fill="#00aeef"/>
        <path d="M54.4,39.1c1.8,1.4,3.3,2.9,4.9,4.5.5.2,1.9-.8,1.9-2s-1.6-1.7-2.4-2.3h-.2s0,0-.2,0c-1.6-1-4.3-2.7-6.3-1.5.6.4,1.2.8,1.8,1.2,0,0,.2,0,.3.2h0c0,0,.2,0,.2,0Z" fill="#00aeef"/>
        <path d="M51.8,32c.3,1.5,3.6,1.3,4.7,1.3,2.1,0,4.1,0,6.2,0,1.1,0-.5-2.9-1.2-2.7-3.2.2-6.5.5-9.6,1.3h-.1Z" fill="#00aeef"/>
        <path d="M50.8,31.3c1.6-.2,3.1-.6,4.7-.8.9-.1,4,.5,4.1-.8.2-.2-.3-.6-.3-.7-.6-.3-1-.9-1.6-1.1-.7-.3-1.6,0-2.3.1-1.9.5-3.6,1.4-5.2,2.5h0c0,.3.2.4.4.6h.3v.2Z" fill="#00aeef"/>
        <path d="M56.8,37c1.6,1.2,3.3,2.3,4.9,3.5.5.7,2.8-2,1-3.4s-4.7-1.3-5.9,0Z" fill="#00aeef"/>
        <path d="M51.1,47c-1.7-1.8-3.6-3.4-5.4-5.1-1.6-1.6-2.5-3.2-3.6-5.1,0,0-.2,0-.3-.2-.3,1.1.4,2.4,1.1,3.5.7,1,.8,1.6,1.7,2.4,1.8,1.7,3.7,3.2,5.8,4.6h.7Z" fill="#00aeef"/>
        <path d="M55.4,33.9c1.6,1.1,3.1,1.3,4.9,1.8,1,.3,3.4,1.9,3.9,0,.9-3.3-7.1-2-8.7-2h-.1Z" fill="#00aeef"/>
        <path d="M48.2,30.8c.8-.3,2.1-.9,2.5-1.7.2-.4,0-.8.4-1-1.1-.9-3.2.6-4.2,1-1.2.5-3.1,1.1-3.3,2.7,0,.1.2.3.3.4.7-.2,1.4-.4,2.1-.6.6-.2,1.3-.4,1.9-.7,0,0,.3-.1.4-.2h-.1Z" fill="#00aeef"/>
        <path d="M55.6,8.3c0,.1-.2.2-.3.4,1-.4,5.4-1.2,4.3-2.9-.9-1.4-3.9.8-4.7,1.4.3.4.5.7.7,1.1h0Z" fill="#00aeef"/>
        <path d="M58.9,4.4c-1-.5-1.3-.9-2.5-.4-1.1.4-3.1,1.7-2.5,3.1,1.5-.7,4.2-1.3,5.1-2.7h0Z" fill="#00aeef"/>
        <path d="M41.3,30.2c-.2.1-.4.3-.6.4-.3.3-.3.7,0,1.1h.5v-.4c.4.4.8.6,1.2,1,.7-1.1,1.5-1.9,2.4-2.7h0c-.2-.2-.4-.2-.5-.2v-.4c-.2,0-.4.1-.6.2-.8.3-1.5.7-2.3,1h-.1Z" fill="#00aeef"/>
        <path d="M57.9,8.3c-1,.3-1.9.7-2.7,1.5.6.3.7.8.5,1.4,1,0,1.9-.4,2.7-.9l.2-.4h0c-.3-.4-.6-.8-.5-1.3,0,0,0-.2,0-.2h-.1Z" fill="#eee9e4"/>
        <path d="M54.5,9.5c0-.3,0-.5,0-.8-.2,0-.3-.2-.5-.3v-.8c-.8.6-1.4,1.1-2,1.6.8,1.2,1.3,1.2,2.6.2h0Z" fill="#eee9e4"/>
        <path d="M49.9,13.8c.7.3,3.1.7,2.6-1-.4-1.4-2.2.6-2.6,1Z" fill="#00aeef"/>
        <path d="M57.9,8.3v.2c0,.5.3.9.6,1.4,0,0,.2-.1.3-.2,0,0,.2,0,.4.1h0c.7-.2.7-.9,1.1-1.5,0-.1-.2-.3-.3-.5-.7,0-1.4.6-2,.4h0Z" fill="#00aeef"/>
        <path d="M50.2,12.8c0-.4-.2-.8-.3-1.1-.8.1-1.5.8-1.7,1.8.7.3,1.3,0,1.9-.7h0Z" fill="#eee9e4"/>
        <path d="M54,27.2c-.6-.3-1.1-.5-1.6,0-.2,2,1.8.7,1.6,0Z" fill="#eee9e4"/>
        <path d="M52,8.8c.4-.4,1-.6,1.3-1.2-.2-.2-.5-.3-.8-.6-.4.5-.9,1-1.3,1.5.2.1.3.2.4.3h.4Z" fill="#eee9e4"/>
        <path d="M60.9,10.3c-.7-.2-1.8.6-1.1,1.2,1,.9,1.1-.6,1.1-1.2Z" fill="#eee9e4"/>
        <path d="M49.4,9.9h0c0,.1-.2.2-.2.3h-.3c0-.3.8-1.4.9-1.5,0,0,0,0,.2-.1,0,.6.3.7.7.6-.2.3-1,1.9-1.5,1.3,0-.2.2-.3.3-.5h0ZM49.8,9.3h0c0,.1-.2.2-.2.3h0c0-.1.2-.2.2-.3Z" fill="#eee9e4"/>
        <path d="M61.4,15.7c.3-1.3-.7-1-1.4-.7,0,.9.3,1.1,1.4.7Z" fill="#eee9e4"/>
        <path d="M47,16.6c0-.2.2-.4.4-.6,0-.4-.2-.8-.3-1.4-.3.5-.7,1-1.1,1.6.4.1.7.2,1,.3h0Z" fill="#eee9e4"/>
        <path d="M45.8,28.8c.8,0,1.4-.2,1.8-.8,0-.7-1.9,0-1.8.8Z" fill="#eee9e4"/>
        <path d="M59.3,14.4c.4,0,.7-.2,1.1-.3.5-1.8-1.2-1-1.1.3Z" fill="#eee9e4"/>
        <path d="M61.4,22.5c.9.2,1.4-.2,1.4-1-1.5.2-1.3,0-1.4,1Z" fill="#eee9e4"/>
        <path d="M57.6,26.6c-.8,0-1.4-.1-2.2-.2.8.9,1.5,1,2.2.2Z" fill="#eee9e4"/>
        <path d="M60.1,3.5c-.5-.9-1.1-.8-1.7-.2.3.6.9.7,1.7.2Z" fill="#eee9e4"/>
        <path d="M60.3,28.4c0-1.1-.5-1.4-1.3-.9q.6.8,1.3.9Z" fill="#eee9e4"/>
        <path d="M57.9,48.3c-.5-.2-.7.4-1.1.5.2,1.1,1.5.5,1.1-.5Z" fill="#eee9e4"/>
        <path d="M60.4,4.9c0,.4.3,1.2.9.8.6-.5-.4-1-.9-.8Z" fill="#eee9e4"/>
        <path d="M51.6,48.2h0c.2,0,.4,0,.6,0h0l-1.2-1.2h-.7" fill="#00aeef"/>
        <path d="M61.8,18c-.2-.3-.4-.6-.5-.8-.9.7-.6,1.7.5.8Z" fill="#eee9e4"/>
        <path d="M57,47.1c.4.2.6.3.8.4.4-.4.7-.7.5-1.4-.4.3-.8.6-1.2,1h0Z" fill="#eee9e4"/>
        <path d="M56.2,46.9q-.7.8-.3,1.4c.9-.4.9-.7.3-1.4Z" fill="#eee9e4"/>
        <path d="M62.4,20.2c.6-.8,1-.6,0-1.5-.6.5,0,1,0,1.5Z" fill="#eee9e4"/>
        <path d="M59.6,46.6c.4.3.6.4.8.6.4-1.1.5-1.7-.8-.6Z" fill="#eee9e4"/>
        <path d="M64.1,31.7c0-1,0-1.2-.9-1q.3,1,.9,1Z" fill="#eee9e4"/>
        <path d="M63.9,30.1c0-.9-.5-1-1.2-.8.3.6.5.6,1.2.8Z" fill="#eee9e4"/>
        <path d="M60,47.5c-.6-.3-1.4-.5-1.4.5.5.3.9,0,1.4-.5Z" fill="#eee9e4"/>
        <path d="M43.4,18.2c.8-.3.9-1.2,1.4-1.8,0,0,0,0-.2-.1-.4.6-.9,1.2-1.3,1.8h0Z" fill="#eee9e4"/>
        <path d="M59,1.7c.8.3.9,1.1,1.6,0-.4.1-.6.2-.9.3,0-.2.2-.3.3-.5h-.9v.2h0Z" fill="#eee9e4"/>
        <path d="M54.9,48.4c-1.7-.6-1.4.8,0,.3v-.3Z" fill="#eee9e4"/>
        <path d="M62.8,10.5c-.7,0-.8,0-.7.9.8.1.9,0,.7-.9Z" fill="#eee9e4"/>
        <path d="M59.1,44.3c-.2.4-.3.8-.4,1.1.5.6,1.2-.4.4-1.1Z" fill="#eee9e4"/>
        <path d="M64.4,38c-.2.4-.4.8-.2,1.3.7,0,1-1.2.2-1.3Z" fill="#eee9e4"/>
        <path d="M56.4,3c.6.3,1,.2,1.6,0-.3-.2-.6-.4-.9-.6-.2.3-.5.5-.7.7Z" fill="#eee9e4"/>
        <path d="M60.2,44.7c.7.5,1.6-.4.7-.8-.2.3-.5.5-.7.8Z" fill="#eee9e4"/>
        <path d="M65.5,32.4c.2-.5.2-.9-.3-1.2-.5.7-.4,1,.3,1.2Z" fill="#eee9e4"/>
        <path d="M61.7,29.7c-1.3-1-1.4.7,0,.2v-.2Z" fill="#eee9e4"/>
        <path d="M62.8,14.6c-.6.2-.5.6-.5,1.1.9,0,1-.2.5-1.1Z" fill="#eee9e4"/>
        <path d="M62.7,45.1c-.8-.2-1,0-1,.8.4-.2.7-.3,1-.5v-.3Z" fill="#eee9e4"/>
        <path d="M61.5,27.6c-.2.7,0,.9,1,.9-.2-.4-.5-.8-1-.9Z" fill="#eee9e4"/>
        <path d="M62.4,41.8q-.4.7,0,1.1c.6-.4.6-.8,0-1.1Z" fill="#eee9e4"/>
        <path d="M64.2,42.1c.9,0,.7-.7.5-1.2-.4.4-.7.7-.5,1.2Z" fill="#eee9e4"/>
        <path d="M53.3,5.8c.5-.5.9-1,1.4-1.5-.6,0-1.2.7-1.6,1.4h.2Z" fill="#00aeef"/>
        <path d="M61.9,9.1c.5.2.8,0,1-.4-.3-.1-.5-.2-.9-.3,0,.3,0,.5-.2.7h.1Z" fill="#eee9e4"/>
        <path d="M63.7,43.2c-.5.4-.6.4-.5,1,.6,0,.5-.3.7-.9h-.2Z" fill="#eee9e4"/>
        <path d="M66.1,38.2c.6-.4.6-.7,0-1.2q-.5.4,0,1.2Z" fill="#eee9e4"/>
        <path d="M47.1,13.1c0-.3.3-.7.4-1-.5.1-.9.7-1,1.6.2-.2.4-.4.6-.6h0Z" fill="#eee9e4"/>
        <path d="M65.5,40.6c.3-.4.5-.8.4-1.2-.7.3-.9.8-.4,1.2Z" fill="#eee9e4"/>
        <path d="M51.9,6.6c-.3.3-.7.6-.8,1.2.7-.3.9-.9,1.2-1.4-.2,0-.3,0-.5.2h0Z" fill="#00aeef"/>
        <path d="M55.1,3.5c.6-.2,1.1-.3,1.3-.9-.7,0-.9.4-1.3.9Z" fill="#eee9e4"/>
        <path d="M65.9,33.1h-.6c0,.5.2.8.7,1,0-.3,0-.6,0-1Z" fill="#eee9e4"/>
        <path d="M66.7,36.1c0-.3,0-.6-.2-.9-.6.3-.4.7,0,1.1l.2-.2Z" fill="#eee9e4"/>
        <path d="M56.1,49.8c-.3-.5-.5-.5-1.1,0,.4.3.5.3,1.1,0Z" fill="#eee9e4"/>
        <path d="M62.2,5.7h.7c0-.3-.2-.5-.2-.8-.5,0-.5.4-.5.8Z" fill="#eee9e4"/>
        <path d="M62.4,8c.8,0,1.1-.6.2-.7,0,.2,0,.5-.2.7Z" fill="#eee9e4"/>
        <path d="M64.9,34.4c0,.4,0,.8.3,1.1.4-.7.3-.9-.3-1.1Z" fill="#eee9e4"/>
        <path d="M64.8,36.7c-.2,0-.4.3-.6.4v.2q.6,0,.8-.5s0,0-.2-.1Z" fill="#eee9e4"/>
        <path d="M41.1,31.4h-.5s0,.2.2.4c.2.2.3.4.5.6,0,0,.2-.2.3-.2-.3,0-.4,0-.3-.4,0-.1,0-.2-.2-.4Z" fill="#00aeef"/>
        <path d="M41.9,33.9c0-.3.3-.5.4-.8-.7,0-.6.4-.4.8Z" fill="#eee9e4"/>
        <path d="M63.9,32.8c0,.6-.2.6.4.8,0-.6,0-.5-.4-.8Z" fill="#eee9e4"/>
        <path d="M42.2,34.8c0,.4-.3.7,0,1,0-.3.2-.5.2-.8,0,0-.2,0-.3-.2h0Z" fill="#00aeef"/>
        <path d="M60.8,9.1c-.3,0-.5.3-.6.5q.6.2.6-.5Z" fill="#eee9e4"/>
        <path d="M59.4,4.6c.3.1.6,0,.8-.4l-.5.2c0,0-.2,0-.3.2Z" fill="#eee9e4"/>
        <path d="M62.1,6c0,.6.4.4.7.4v-.2c-.2,0-.4,0-.7-.2Z" fill="#eee9e4"/>
        <path d="M41.3,32.4c-.2-.2-.3-.4-.5-.6,0,.3.3.6.4.9h0v-.3Z" fill="#00aeef"/>
        <path d="M51.9,6.6c.2,0,.3,0,.5-.2,0-.2.2-.3.4-.5,0,0,0,0-.2,0-.2.3-.4.5-.7.8Z" fill="#00aeef"/>
        <path d="M61.3,2.8c0,.6.3.6.8.5-.3-.2-.5-.3-.8-.5Z" fill="#eee9e4"/>
        <path d="M47.1,13v.7c.2-.3.3-.5.5-.9-.3,0-.4.1-.5.1h0Z" fill="#eee9e4"/>
        <path d="M41.8,36.6s.2,0,.3.2v-.8h0v.5h-.2Z" fill="#00aeef"/>
        <path d="M61.4,4.1c.3,0,.5,0,.6-.3-.2,0-.4,0-.6,0v.2Z" fill="#eee9e4"/>
        <path d="M50.5,31.2c0-.2-.2-.3-.4-.5,0,.1,0,.2-.2.3.2,0,.4.1.6.2Z" fill="#00aeef"/>
        <path d="M39.4,27.1s0,.2,0,.3c.3-.2.3-.4.2-.7,0,0-.3.4-.3.4Z" fill="#32271b"/>
        <path d="M40.3,32.6l-.2-.4h0c0,0,0,.3,0,.4h.2Z" fill="#00aeef"/>
        <path d="M40.6,33.7v-.4c-.2,0-.2.2,0,.4h0Z" fill="#00aeef"/>
        <path d="M43.8,32.3c0,0-.2-.3-.3-.4,0,.4,0,.5.3.4Z" fill="#00aeef"/>
        <path d="M49.2,10.4c0-.2.2-.3.3-.5h0c0,.1-.2.2-.2.3v.2Z" fill="#00aeef"/>
        <path d="M41.4,31.8c0,.3,0,.4.3.4,0,0-.2-.3-.3-.4Z" fill="#00aeef"/>
        <path d="M42.6,20.1c0,0,.2-.2.3-.3h0s0,.2-.2.3h0Z" fill="#32271b"/>
        <path d="M51.8,26.1v-.4h-.3c0,.1,0,.2,0,.3h.2Z" fill="#00aeef"/>
        <path d="M38.6,30.4v.4h0v-.3h0Z" fill="#00aeef"/>
        <path d="M40.4,31.7v-.3h0c0,.1,0,.2,0,.3h0Z" fill="#eee9e4"/>
        <path d="M48.2,30.8c0,0-.3.1-.4.2,0,0,.3-.1.4-.2Z" fill="#eee9e4"/>
        <path d="M45.8,16.8c0-.1,0-.2,0-.2,0,.1,0,.2,0,.2Z" fill="#eee9e4"/>
        <path d="M58.6,9.9l-.2.4.2-.4Z" fill="#00aeef"/>
        <path d="M46.5,40.1l.3.4-.3-.4Z" fill="#eee9e4"/>
        <path d="M59.4,4.6c0,0,.2,0,.3-.2,0,0-.2,0-.3.2Z" fill="#00aeef"/>
        <path d="M39.5,27.4c0,.1,0,.3-.2.4.3,0,.3-.2.2-.4Z" fill="#32271b"/>
        <path d="M42.4,20.6c0,.1,0,.3-.2.4,0-.1,0-.3.2-.4Z" fill="#32271b"/>
        <path d="M61.2,6.4l-.6.2q.4,0,.6-.2Z" fill="#eee9e4"/>
        <path d="M39.1,29c0-.2,0-.4-.2-.4h0c0,.1,0,.3.2.4h0Z" fill="#32271b"/>
        <path d="M52,8.8h-.4.4Z" fill="#fff"/>
        <path d="M42.5,20.5v-.4h0c0,.1,0,.2-.2.4h.2Z" fill="#32271b"/>
        <path d="M38.6,30.4h0v-.3h0v.2h0Z" fill="#eee9e4"/>
        <path d="M50.8,31.3h-.3.3Z" fill="#eee9e4"/>
        <path d="M39.3,27.8h0s0,.1.2.4v-.4h-.1Z" fill="#32271b"/>
        <path d="M54.3,39l-.3-.2.3.2Z" fill="#eee9e4"/>
        <path d="M46.4,40s0,0,.2,0c0,0,0,0-.2,0Z" fill="#eee9e4"/>
        <path d="M42.3,20.5h0c0,.1,0,0,0-.1h0Z" fill="#32271b"/>
        <path d="M39.1,29h0Z" fill="#00aeef"/>
        <path d="M58.7,39.2h.2-.2Z" fill="#eee9e4"/>
        <path d="M58.5,39.1s0,0,.2,0c0,0,0,0-.2,0Z" fill="#eee9e4"/>
        <path d="M54.4,39.1h0q0,0,0,0Z" fill="#eee9e4"/>
        <path d="M59.2,9.9h0Z" fill="#00aeef"/>
        <path d="M50.2,30.7h0q0-.1,0,0Z" fill="#eee9e4"/>
        <path d="M50,39.7v.2h.2s0,0-.2,0h0Z" fill="#00aeef"/>
        <path d="M52.8,41.6s0,0,0,.2h0s0,0-.2,0h.1Z" fill="#00aeef"/>
        <path d="M51.5,38.6h0Z" fill="#eee9e4"/>
        <path d="M50,39.8h0Z" fill="#00aeef"/>
        <path d="M52.8,41.6h0Z" fill="#00aeef"/>
        <path d="M59.1,17.3h0Z" fill="#32271b"/>
        <path d="M55.6,8.3h0Z" fill="#32271b"/>
        <path d="M49.6,9.6c0-.1.2-.2.2-.3h0c0,.1-.2.2-.2.3h0Z" fill="#00aeef"/>
      </g>
    </g>
  </g>
  <g isolation="isolate">
    <g isolation="isolate">
      <path d="M84.7,29.7c-.4,0-.8,0-1.1-.1-2.8-.8-3.1-3.4-2.7-4.6.5-1.4,1.3-2,1.7-2.2.2-.1.6,0,.7.2.1.2.1.4-.2.7-.8.6-1,1.1-1.2,1.7s-.2,2.5,1.5,3.1c.4.1.8.2,1.2.2,2.4,0,4.3-2.5,5.2-5.7.3-1.2.5-2.3.5-3.3,0-2.2-.7-3.8-1.9-4.1-.6-.1-1.1.6-2.2.9-.5.2-1.2.4-1.7.4s-.9-.2-1-.7c-.2-1,1.2-1.6,2-1.8.8-.3,2-.3,2.4-.4.4,0,.4-.1.7-.4.3-.3,2.1-2.6,2.5-4.9.1-.6.1-1.2.1-1.8,0-1.8-.5-3.4-2.2-3.8-1.6-.4-4.4.6-7.3,3.9.6,1.3.9,3,.9,5.1s-.1,2.9-.4,4.5c-1,6.8-4.8,13.6-7.3,13.1-1.3-.3-2-1.8-2-4.2s.4-3.9,1.2-6.4c1.2-3.6,2.9-7.1,5.1-10.2-.3-1.6-.9-2.6-1.8-2.6-2.2,0-3.1,3.8-3.1,4.6s-.3.9-.6.9c-.2,0-.4-.1-.4-.6,0-1.2,1.3-6.5,5.1-6.5s2.2.5,2.9,1.4c2.7-3.1,5.6-5.1,8.6-5.1s1.4.1,2.2.4c2.2.8,2.9,2.4,2.9,4s-.5,3-1.1,4.1c-1.2,2.3-3.1,4.1-3.7,4.4-.5.3-.3.5,0,.5.3,0,4.3,1,4.3,5.3s0,1.3-.3,2c-1.2,5.2-6.2,8.1-9.4,8.1ZM75.1,19.5c-.7,2.5-1.1,4.7-1.1,6.4s.3,2.4.9,2.6c2,.4,3.7-6.4,4.2-11.3.1-1.4.3-2.9.3-4.3s0-1.9-.1-2.8c-1.8,2.9-3.1,6.2-4.1,9.4Z" fill="#00aeef"/>
      <path d="M109,28.1c-.7.6-1.5,1.4-3,1.2-1.6-.2-2.2-1.9-2.2-4.2s0-.7,0-1.1c-.4.8-1,1.7-1.6,2.5-1.3,1.7-2.4,3-4.2,2.9-1.5-.1-2.5-1.7-2.5-4.1s0-1.5.3-2.4c.7-2.7,1.6-5,2-5.2.4-.2.9-.2,1.3-.2.3,0,.6,0,.8.3.1.1.1.3,0,.6-.2.9-.7,3-1,4.5-.2.9-.6,2.7-.6,3.9s.1,1.3.6,1.3c1.1.1,2.8-1.8,3.7-3.5.5-.9,1.2-2.5,1.8-3.6.3-1.6.9-3,1.1-3.3.2-.2.8-.2,1.2-.2s1,0,1.1.3c0,.1,0,.3,0,.4-.2,1-.7,3.1-1,4.7-.3,1.2-.6,2.9-.6,3.9s.1,1,.4,1.2c.8.4,1.7-.6,2.4-1.5.5-.7,1-1.5,1.3-2,.1-.3.5-.4.7-.2.1.1.2.4,0,.7-.4.8-1.4,2.4-2,3Z" fill="#00aeef"/>
      <path d="M116.4,28c-.9.9-2.3,1.5-3.8,1.3-1.6-.3-2.2-1.8-2.2-4.1s.3-3,.7-4.8c.3-1.2.6-2.5.9-3.8h-1c-.3,0-.6-.3-.6-.6s.3-.6.6-.6h1.4c.5-2.2,1-4,1.3-4.4.4-.7.8-.9,1.3-.9.5,0,1,.5.8,1.4-.1.5-.5,2-.9,3.9h1.8c.3,0,.6.3.6.6s-.3.6-.6.6h-2.1c-.3,1.2-.5,2.4-.7,3.6-.4,2.4-.9,4.8-.9,6.4s.2,1.5.6,1.6c1,.3,2.4-.7,2.9-1.3.6-.7,1.2-1.6,1.4-2,0-.2.4-.3.5-.1.1.1.2.3,0,.7-.3.8-1,1.7-1.9,2.6Z" fill="#00aeef"/>
      <path d="M123.2,28c-.9.9-2.3,1.5-3.8,1.3-1.6-.3-2.2-1.8-2.2-4.1s.3-3,.7-4.8c.3-1.2.6-2.5.9-3.8h-1c-.3,0-.6-.3-.6-.6s.3-.6.6-.6h1.4c.5-2.2,1-4,1.3-4.4.4-.7.8-.9,1.3-.9.5,0,1,.5.8,1.4-.1.5-.5,2-.9,3.9h1.8c.3,0,.6.3.6.6s-.3.6-.6.6h-2.1c-.3,1.2-.5,2.4-.7,3.6-.4,2.4-.9,4.8-.9,6.4s.2,1.5.6,1.6c1,.3,2.4-.7,2.9-1.3.6-.7,1.2-1.6,1.4-2,0-.2.4-.3.5-.1.1.1.2.3,0,.7-.3.8-1,1.7-1.9,2.6Z" fill="#00aeef"/>
      <path d="M133.5,28.5c-1.3.6-2.7.9-4,.9s-2.8-.4-3.8-1c-2-1.3-2.3-3.2-2.1-4.5.4-2.9,2.3-4.5,4.1-5.5.9-.5,2.4-.9,3.6-.9s2.2.3,2.8,1.2c.2.4.4.8.4,1.2,0,1.6-1.6,3.5-4.3,4.8-1.4.7-2.7,1.1-3.4,1.2.2,1.3.9,1.9,1.6,2.2.6.3,1.1.4,1.7.4.9,0,1.9-.3,3.2-1,1.7-.8,2.8-2.5,3-3,.1-.3.4-.3.6,0s.2.5,0,.8c-.4.8-1.2,2.2-3.4,3.3ZM127,22.7c-.2.8-.3,1.5-.3,2.1.8-.1,2.2-.4,3.3-1.3,1.1-.9,1.8-2.5,1.8-3.7s-.2-1-.6-1.2c-1.3-.6-3.5.7-4.2,4.1Z" fill="#00aeef"/>
      <path d="M148.6,22.7c-.5.6-1.2,1.2-2,1.4-.4.1-.8.2-1.2.2-.6,0-1.1-.1-1.6-.4-.9-.5-1.5-1.7-1.4-3.1,0-.6-.1-.5-.4-.2-.2.3-1.1,1.4-2,3.1-.9,1.8-1.7,4.5-1.8,4.8-.1.4-.5.5-1.3.5-.8,0-1.4,0-1.4-.5,0-.4.3-3.2.6-5.3.4-2.4,1.1-5.1,1.3-5.3.2-.2.7-.4,1.3-.3.7,0,1.1.4,1,.8-.1.4-.3,1.8-.5,2.7-.2.9-.3,1.9-.3,2.2,0,.2,0,.2.1.1s.1-.2.2-.3c.2-.4,1.2-2,1.9-3.2.8-1.2,1.4-1.9,1.6-2.1.3-.2,1.7-.7,2.3-.3.7.5.1,1.7-.1,2.5-.3.8-1,2.3-.5,3,.3.4,1,.5,1.8.3.7-.2,1.3-.7,1.7-1.2.2-.2.5-.1.6,0,0,.1,0,.3-.2.5Z" fill="#00aeef"/>
      <path d="M163.2,27.9c-1,.9-2.5,1.7-4.1,1.4-1.3-.3-2.2-1.8-2.5-4.2-1,1.7-2.8,3.3-4,3.4.3,1,.5,2.4.5,3.9.2,5.9-1.5,8.8-3.6,8.7-2.1,0-3.1-2-3.1-6.8s.2-4.6.5-7.7c-.5-.5-.9-1.1-.8-1.8.1-.9.6-1.2,1.2-1.4h0c1.5-12.2,4.2-17.8,7.5-17,1.3.3,1.8,1.5,1.8,3,0,2.1-1,4.9-1.7,6.2-1.6,3.4-3.8,6-4.9,7.2l-.2,1.4c.9.5,1.8,1.5,2.5,3.3,1.4-.2,3.3-2.1,4.1-4.5,0-2,.3-4.3.8-6.8,1.4-6.8,3.6-13.1,6.4-12.7,1.2.2,1.6,1.6,1.6,3.3s-.7,5-1,6.2c-.6,2-2.9,6.7-4.7,8.8,0,.8,0,1.6,0,2.3,0,2.1.2,3.7.8,3.8,1.2.4,2.2-.6,2.9-1.3.7-.7,1.4-1.8,1.7-2.4.1-.3.3-.3.4-.2.2.1.3.5.1.9-.3.7-1.1,2-2.1,2.9ZM151.5,28.5c-.8,0-1.5-.1-2.1-.4-.5,4.3-.8,7.2-.8,9.1s.4,2.9,1.2,2.9c1.4,0,2.3-3.5,2.3-6.7s-.1-3.4-.6-4.9ZM149.7,25.4l-.2,1.7c.4.3,1,.5,1.7.5-.4-.9-.8-1.6-1.5-2.2ZM150.3,20.7c.9-.8,2.4-2.4,3.7-5.5,1-2.2,1.5-4.4,1.5-5.9s-.3-2-.9-2c-1.7-.2-3,3.1-4.3,13.4ZM160.1,16c-.2,1.3-.3,2.6-.4,3.8,1.1-1.3,2.5-3.7,3.7-7.2.7-2.2,1.1-4.3,1.1-5.8s-.3-2.2-.8-2.3c-1.2-.4-2.8,6.1-3.5,11.5Z" fill="#00aeef"/>
      <path d="M178.5,25.5c-.4,1-2.2,2.9-4.5,4.2,0,.3-.1.7-.2,1-.8,4.8-1.8,7.5-3,9.2-.9,1.3-2.5,2.4-3.9,2.4s-.9-.1-1.3-.4c-.9-.5-1.3-1.6-1.3-2.8s.4-2.5,1.1-3.7c1.3-2.1,3.6-4,6-5.3.4-2.3.7-4.2.7-4.4s0-.3,0-.3c0,0-.1,0-.2.2-.3.5-2.6,4.2-5.2,3.8-1.8-.3-2.4-2-2.4-3.9s.1-1.8.3-2.7c.5-2.4,1.3-4.7,1.7-4.9.3-.3.5-.3,1-.3s1.2.4,1.1.9c-.1.4-.9,3.7-1.2,5-.2.9-.6,2.6-.6,3.7s.1,1,.4,1.2c.8.4,2.5-.4,4-3,1.6-2.5,2.1-6.5,2.1-6.8s.5-.7,1.3-.7,1.5,0,1.4.8c0,.6-1,6-1.7,10.1,1.8-1.1,3-2.5,3.6-3.6.3-.6.7-.7.8-.4.1.2.1.5,0,1ZM166.3,36.2c-.6,1.3-.9,2.4-.9,3.3s.3,1.4.8,1.7c1.1.5,3-.4,3.9-4.6.4-1.6.7-3.5,1-5.4-2.1,1.3-3.9,3-4.8,5Z" fill="#00aeef"/>
    </g>
  </g>
  <g isolation="isolate">
    <g isolation="isolate">
      <path d="M86.5,36.9c-.6,1.1-1.2,2.6-1.3,4.9,0,.3,0,.7,0,1,0,1.4.1,3,.1,4.7s-.2,3.7-.9,5.7c-1.1,2.9-4.2,6-8.9,6s-.8,0-1.1,0c-5.2-.6-6.3-4-5.9-5.7.3-1.5,1.2-2.1,1.6-2.2.4-.2,1.9-.1,2.6.3.7.4.6,1,0,1.4-.5.4-1.2,1.4-1.2,2.3s.5,2.3,2.5,2.8c.4.1.9.1,1.3.1,1.8,0,3.6-.8,4.6-2.9,1.9-3.9,1-9.8,3.4-15.5,1-2.3,2-3.3,2.4-3.7.2-.2.6-.3.8-.1.2.1.2.4,0,.9ZM88.3,35.2c-.3.1-.7.2-1,.2-1.8,0-4.1-1.2-5.8-1.8-1-.3-2.2-.6-3.4-.6-1.8,0-3.4.5-4.3,2.1-.4.7-.6,1.4-.6,2,0,1.4.9,2.4,1.5,2.8.7.4,1.5.6,2.3.6s1,0,1.5-.2c.5-.1.8-.1.8,0,.1.2-.1.6-.4.9-.3.3-2.1,1.8-4.2,1.8s-1.3-.1-2-.4c-1.5-.7-2.3-2.2-2.3-4s0-.9.2-1.4c.8-3.1,4.1-5.2,7.6-5.2,3.4.1,7.3,1.3,8.6,1.2,1.3-.1,1.9-.5,2.1-.7.2-.2.7-.1.7.5s-.2,2-1.4,2.4Z" fill="#231f20"/>
      <path d="M99,52.4c-.4.6-1.2,1.1-1.9,1.3-.4.1-.8.2-1.1.2-.6,0-1.1-.1-1.5-.3-.9-.5-1.4-1.6-1.3-2.9,0-.6-.1-.4-.3-.2-.2.3-1,1.3-1.9,3-.8,1.7-1.6,4.3-1.7,4.6-.1.3-.5.4-1.3.4-.8,0-1.4,0-1.3-.5,0-.4.2-3,.6-5.1.3-2.3,1.1-4.8,1.2-5.1.2-.2.6-.3,1.3-.3.6,0,1.1.3,1,.7-.1.4-.3,1.7-.4,2.5-.2.9-.2,1.8-.3,2.1,0,.2,0,.2.1.1,0,0,.1-.2.2-.3.2-.4,1.1-1.9,1.8-3,.8-1.1,1.3-1.8,1.5-2,.3-.2,1.7-.7,2.2-.3.7.5.1,1.6-.1,2.3-.3.7-1,2.2-.5,2.8.3.4,1,.5,1.7.3.6-.2,1.3-.7,1.7-1.1.2-.2.4-.1.6,0,0,.1,0,.3-.2.5Z" fill="#231f20"/>
      <path d="M102.9,57.4c-.6.5-1.8,1.3-3.2,1.2-1.3-.2-2.3-1.7-2.3-4s0-1.2.2-1.8c.5-2.4,1.1-4.4,1.5-4.8.4-.5.8-.5,1.2-.5.4,0,.9.2,1,.5.3.6-.5,3-.9,4.7-.2,1.1-.5,2.6-.5,3.6s.1,1,.3,1.1c.7.3,1.8-.4,2.5-1.2.7-.7,1.1-1.5,1.3-2,.1-.3.3-.3.5-.2.1,0,.2.3.1.7-.3.8-1.1,2.1-1.9,2.8ZM100.9,43.8c-.8-.2-1.3-1.1-1.1-2,.2-.9,1.1-1.5,1.9-1.3.8.2,1.3,1.1,1.1,2-.2.9-1.1,1.5-1.9,1.3Z" fill="#231f20"/>
      <path d="M115.4,54.6c-.5.6-1.6.8-2.6.8s-.7,0-1-.1c-1.3,2.5-3.4,3.7-5.1,3.5-1.9-.3-3-2.2-3-5.7s.4-4.5,1.1-7.5c1.8-7.2,4.7-12,7.5-11.4,1.2.3,1.7,1.2,1.7,2.4s-.8,3.7-1.6,5.4c-1.6,3.4-4,6.9-5.6,8.7-.3,2.1-.5,3.8-.5,5s.3,2.2,1,2.2c1.3.1,2.9-1.1,3.9-2.9-.8-.5-1.6-1.5-1.8-3-.3-2.2.6-4.7,2.3-4.6,1.1,0,1.7,1,1.7,2.6s-.2,2.1-.7,3.4c-.1.3-.2.6-.4.9.3,0,.6.1,1,.1.6,0,1.2-.1,1.5-.5.6-.5.9-.5.9-.3.1.2,0,.7-.3,1ZM107.4,46.5c-.1.7-.2,1.3-.3,2,1.1-1.2,2.6-3.1,3.7-5.5,1.2-2.3,2.1-4.8,2.1-6.3s-.2-1.3-.8-1.5c-1.7-.6-3.5,3.1-4.8,11.3ZM112.1,51c0-1-.3-1.7-.9-1.8-.7,0-1,.9-1,1.9s.1,1.1.3,1.6c.2.5.6.9,1.1,1.2,0,0,0-.1,0-.2.3-1,.5-2,.5-2.8Z" fill="#231f20"/>
      <path d="M127.8,57.6c-.6.6-1.4,1.4-2.9,1.1-1.5-.2-2.1-1.8-2.1-4s0-.7,0-1c-.4.7-.9,1.6-1.5,2.4-1.2,1.6-2.2,2.9-4,2.7-1.4-.1-2.4-1.6-2.4-3.9s0-1.4.3-2.2c.6-2.5,1.5-4.8,1.9-5,.4-.2.8-.2,1.2-.2.3,0,.6,0,.7.3.1.1.1.3,0,.6-.2.8-.7,2.8-1,4.3-.2.9-.6,2.6-.6,3.7s.1,1.2.6,1.2c1.1.1,2.6-1.7,3.5-3.3.5-.9,1.2-2.3,1.7-3.4.3-1.5.8-2.8,1.1-3.1.2-.2.8-.2,1.2-.2s1,0,1.1.2c0,.1,0,.2,0,.4-.2,1-.7,3-.9,4.5-.2,1.2-.5,2.7-.5,3.7s.1,1,.3,1.1c.7.3,1.7-.5,2.3-1.4.5-.7,1-1.4,1.2-1.9.1-.3.4-.3.6-.2.1.1.2.3,0,.7-.4.8-1.3,2.3-1.9,2.8Z" fill="#231f20"/>
      <path d="M134.8,57.4c-.9.8-2.2,1.4-3.6,1.2-1.5-.3-2.1-1.7-2.1-3.9s.2-2.9.6-4.6c.2-1.1.6-2.3.8-3.6h-1c-.3,0-.6-.2-.6-.6s.3-.6.6-.6h1.3c.5-2.1,1-3.8,1.2-4.2.4-.7.8-.9,1.2-.8.4,0,1,.5.8,1.3-.1.5-.5,1.9-.9,3.7h1.8c.3,0,.6.2.6.6s-.3.6-.6.6h-2c-.2,1.1-.4,2.3-.7,3.4-.4,2.3-.9,4.6-.9,6.1s.2,1.4.6,1.5c1,.3,2.2-.7,2.8-1.2.5-.7,1.1-1.5,1.3-1.9,0-.2.3-.2.5-.1.1.1.2.3,0,.7-.3.8-.9,1.7-1.8,2.4Z" fill="#231f20"/>
      <path d="M144.6,57.9c-1.2.6-2.5.9-3.8.9s-2.6-.3-3.6-1c-1.9-1.2-2.2-3-2-4.3.4-2.7,2.2-4.3,3.9-5.3.9-.5,2.2-.9,3.4-.9s2.1.3,2.6,1.1c.2.3.3.7.3,1.1,0,1.5-1.5,3.3-4.1,4.6-1.4.7-2.5,1-3.2,1.2.2,1.2.9,1.8,1.5,2.1.5.2,1,.3,1.6.3.9,0,1.8-.3,3-.9s2.7-2.3,2.9-2.9c.1-.2.4-.2.5,0,.1.2.2.4,0,.8-.4.7-1.1,2.1-3.2,3.1ZM138.3,52.4c-.2.8-.3,1.4-.3,2,.8-.1,2.1-.4,3.1-1.3,1-.9,1.8-2.4,1.8-3.5s-.2-1-.6-1.1c-1.3-.6-3.3.7-4,3.9Z" fill="#231f20"/>
    </g>
  </g>
  <g isolation="isolate">
    <g isolation="isolate">
      <path d="M148.6,57.4c.2,0,.4,0,.6.2s.2.4.2.6,0,.4-.3.6c-.2.2-.4.2-.6.2s-.4,0-.6-.2c-.2-.2-.3-.4-.3-.6s0-.4.2-.6.4-.2.6-.2Z" fill="#231f20"/>
      <path d="M156,54.2c-.2-.3-.5-.5-.7-.6s-.6-.2-.9-.2-.7,0-.9.2c-.3.1-.5.3-.7.5s-.3.5-.4.8c0,.3-.1.6-.1.9s0,.6.2.9c.1.3.2.5.4.8.2.2.4.4.7.5.3.1.6.2.9.2.7,0,1.2-.3,1.6-.8l.8.7c-.3.4-.7.6-1.1.8-.4.2-.9.2-1.3.2s-.9,0-1.3-.2c-.4-.2-.8-.4-1-.7-.3-.3-.5-.7-.7-1.1-.2-.4-.2-.9-.2-1.3s0-.9.2-1.3c.2-.4.4-.8.7-1.1.3-.3.6-.5,1-.7s.9-.3,1.3-.3.9,0,1.3.2c.4.2.8.4,1.1.8l-.8.7Z" fill="#231f20"/>
      <path d="M157.7,55.8c0-.5,0-1,.3-1.4.2-.4.4-.8.7-1.1.3-.3.7-.5,1.1-.7s.9-.2,1.4-.2.9,0,1.4.2c.4.2.8.4,1.1.7.3.3.5.6.7,1.1.2.4.3.9.3,1.4s0,1-.3,1.4c-.2.4-.4.8-.7,1.1-.3.3-.7.5-1.1.7-.4.2-.9.2-1.4.2s-.9,0-1.4-.2c-.4-.2-.8-.4-1.1-.7-.3-.3-.5-.6-.7-1.1-.2-.4-.3-.9-.3-1.4ZM158.8,55.8c0,.3,0,.6.2.9.1.3.3.5.5.7.2.2.4.4.7.5.3.1.6.2.9.2s.7,0,.9-.2c.3-.1.5-.3.7-.5s.4-.5.5-.7c.1-.3.2-.6.2-.9s0-.6-.2-.9c-.1-.3-.3-.5-.5-.7-.2-.2-.4-.4-.7-.5s-.6-.2-.9-.2-.7,0-.9.2-.5.3-.7.5c-.2.2-.4.5-.5.7-.1.3-.2.6-.2.9Z" fill="#231f20"/>
      <path d="M166.1,54.1c0-.3,0-.6,0-.8,0-.3,0-.5,0-.7h1c0,.2,0,.3,0,.5,0,.2,0,.3,0,.5h0c0-.2.2-.3.3-.4.1-.1.3-.3.5-.4.2-.1.4-.2.6-.3.2,0,.5-.1.7-.1s.6,0,.9.1c.2,0,.4.2.6.3.2.1.3.3.4.4,0,.1.2.3.2.4.2-.4.5-.7.8-.9s.7-.3,1.2-.3.8,0,1.1.2c.3.1.6.3.7.5.2.2.3.5.4.8,0,.3.1.7.1,1.1v3.9h-1.1v-3.8c0-.2,0-.4,0-.6,0-.2-.1-.4-.2-.6-.1-.2-.3-.3-.5-.4-.2,0-.5-.1-.8-.1s-.4,0-.6.1c-.2,0-.4.2-.5.4s-.3.4-.4.6c0,.2-.1.5-.1.8v3.7h-1.1v-3.6c0-.7,0-1.2-.3-1.5-.2-.3-.5-.4-.9-.4s-.6,0-.9.2c-.2.1-.5.3-.6.5-.2.2-.3.5-.4.8,0,.3-.1.6-.1,1v3.1h-1.1v-4.9Z" fill="#231f20"/>
    </g>
  </g>
  <path d="M37.6,15.3c-1.4,2.4-3.5,6.2-3.5,6.2,0,0-4-1.5-6.6-2.4-2.7-.9-5.3-2.5-6.2-5.1s-.3-5.8,2.9-6.9,5.2,1.4,5.2,1.4c0,0-.1-3.3,3-4.4,3.1-1.1,5.7.8,6.7,3.4,1,2.6,0,5.5-1.4,7.9h0Z" fill="#ef60a3"/>
</svg>